Source-HROTx_VROTd.ufo
<glyph name="exclam" format="2">
  <advance width="205"/>
  <unicode hex="0021"/>
  <outline>
    <contour>
      <point x="49.835120788004446" y="167.7731902523619" type="line"/>
      <point x="177.114341401583" y="87.7731902523619" type="line" smooth="yes"/>
      <point x="179.84380181448822" y="86.05761694841034"/>
      <point x="181.27681409379505" y="82.87135696525307"/>
      <point x="180.74930026904573" y="79.6909678268698" type="curve" smooth="yes"/>
      <point x="167.31427142650134" y="-1.309032173130204" type="line"/>
      <point x="151.52992034453283" y="1.309032173130204" type="line"/>
      <point x="164.96494918707722" y="82.3090321731302" type="line" smooth="yes"/>
      <point x="165.49246301182654" y="85.48942131151348"/>
      <point x="171.32936846744516" y="72.51123644368654"/>
      <point x="168.59990805453995" y="74.2268097476381" type="curve" smooth="yes"/>
      <point x="41.32068744096139" y="154.2268097476381" type="line"/>
    </contour>
    <contour>
      <point x="41.28274421332529" y="6.7491926497535655" type="line"/>
      <point x="168.56196482690385" y="87.74919264975357" type="line" smooth="yes"/>
      <point x="171.27293104493128" y="89.47444098645492"/>
      <point x="165.49980148983136" y="76.5060469042528"/>
      <point x="164.96760571258466" y="79.67505105591583" type="curve" smooth="yes"/>
      <point x="151.53257687004026" y="159.67505105591584" type="line"/>
      <point x="167.3116149009939" y="162.32494894408416" type="line"/>
      <point x="180.7466437435383" y="82.32494894408417" type="line" smooth="yes"/>
      <point x="181.278839520785" y="79.15594479242114"/>
      <point x="179.86325084724655" y="75.97605568694779"/>
      <point x="177.1522846292191" y="74.25080735024643" type="curve" smooth="yes"/>
      <point x="49.87306401564055" y="-6.7491926497535655" type="line"/>
    </contour>
    <contour>
      <point x="164.85712472806148" y="303.0" type="line"/>
      <point x="164.85712472806148" y="618.0" type="line"/>
      <point x="180.85712472806148" y="618.0" type="line"/>
      <point x="180.85712472806148" y="303.0" type="line"/>
    </contour>
    <contour>
      <point x="133.79824014605848" y="261.618802153517" type="line"/>
      <point x="166.32515208063967" y="307.618802153517" type="line" smooth="yes"/>
      <point x="170.97845168733113" y="314.1995615670854"/>
      <point x="183.40455983592085" y="298.7915318304162"/>
      <point x="175.98742458252087" y="295.6378520239558" type="curve" smooth="yes"/>
      <point x="67.80008706097911" y="249.63785202395582" type="line"/>
      <point x="61.53948735206032" y="264.3621479760442" type="line"/>
      <point x="169.72682487360208" y="310.3621479760442" type="line" smooth="yes"/>
      <point x="177.14396012700206" y="313.5158277825046"/>
      <point x="184.04239698217475" y="304.96195726005146"/>
      <point x="179.3890973754833" y="298.381197846483" type="curve" smooth="yes"/>
      <point x="146.8621854409021" y="252.381197846483" type="line"/>
    </contour>
    <contour>
      <point x="39.694499725630074" y="687.2835860970102" type="line"/>
      <point x="176.16610849463376" y="625.2835860970102" type="line" smooth="yes"/>
      <point x="181.6800231220315" y="622.778576373872"/>
      <point x="165.28925100939645" y="611.4117061685452"/>
      <point x="164.8757896919232" y="617.4538397296476" type="curve" smooth="yes"/>
      <point x="160.63314900480393" y="679.4538397296476" type="line"/>
      <point x="176.5958190770805" y="680.5461602703524" type="line"/>
      <point x="180.83845976419977" y="618.5461602703524" type="line" smooth="yes"/>
      <point x="181.25192108167303" y="612.50402670925"/>
      <point x="175.06205558888695" y="608.2114041798516"/>
      <point x="169.5481409614892" y="610.7164139029898" type="curve" smooth="yes"/>
      <point x="33.07653219248552" y="672.7164139029898" type="line"/>
    </contour>
  </outline>
</glyph>
<glyph name="quotedbl" format="2">
  <advance width="366"/>
  <unicode hex="0022"/>
  <outline>
    <contour>
      <point x="167.22182540694797" y="444.0" type="line"/>
      <point x="167.22182540694797" y="618.0" type="line"/>
      <point x="183.22182540694797" y="618.0" type="line"/>
      <point x="183.22182540694797" y="444.0" type="line"/>
    </contour>
    <contour>
      <point x="134.18349072634084" y="402.81316852873385" type="line"/>
      <point x="168.83172300448166" y="448.81316852873385" type="line" smooth="yes"/>
      <point x="173.77541949252523" y="455.3765636429335"/>
      <point x="185.94342478709174" y="439.9299143592923"/>
      <point x="178.40490200941764" y="436.6605161392091" type="curve" smooth="yes"/>
      <point x="72.33888483143551" y="390.6605161392091" type="line"/>
      <point x="65.97273162649617" y="405.3394838607909" type="line"/>
      <point x="172.0387488044783" y="451.3394838607909" type="line" smooth="yes"/>
      <point x="179.5772715821524" y="454.6088820808741"/>
      <point x="186.55562429745785" y="445.7502265854658"/>
      <point x="181.61192780941428" y="439.18683147126615" type="curve" smooth="yes"/>
      <point x="146.96369553127346" y="393.18683147126615" type="line"/>
    </contour>
    <contour>
      <point x="48.55563603149688" y="687.2219363287561" type="line"/>
      <point x="178.66328376982162" y="625.2219363287561" type="line" smooth="yes"/>
      <point x="184.51720956651278" y="622.4323739494192"/>
      <point x="168.4298458280942" y="610.2592559206616"/>
      <point x="167.3363825036373" y="616.6510039960668" type="curve" smooth="yes"/>
      <point x="156.7297807858391" y="678.6510039960668" type="line"/>
      <point x="172.50066659246042" y="681.3489960039332" type="line"/>
      <point x="183.10726831025863" y="619.3489960039332" type="line" smooth="yes"/>
      <point x="184.2007316347155" y="612.957247928528"/>
      <point x="177.63429284076548" y="607.988501291907"/>
      <point x="171.78036704407432" y="610.7780636712439" type="curve" smooth="yes"/>
      <point x="41.672719305749574" y="672.7780636712439" type="line"/>
    </contour>
    <contour>
      <point x="323.492424049175" y="444.0" type="line"/>
      <point x="323.492424049175" y="618.0" type="line"/>
      <point x="339.492424049175" y="618.0" type="line"/>
      <point x="339.492424049175" y="444.0" type="line"/>
    </contour>
    <contour>
      <point x="290.45408936856785" y="402.81316852873385" type="line"/>
      <point x="325.1023216467087" y="448.81316852873385" type="line" smooth="yes"/>
      <point x="330.0460181347525" y="455.37656364293383"/>
      <point x="342.2140234293191" y="439.92991435929247"/>
      <point x="334.67550065164465" y="436.6605161392091" type="curve" smooth="yes"/>
      <point x="228.60948347366252" y="390.6605161392091" type="line"/>
      <point x="222.24333026872318" y="405.3394838607909" type="line"/>
      <point x="328.3093474467053" y="451.3394838607909" type="line" smooth="yes"/>
      <point x="335.8478702243798" y="454.60888208087425"/>
      <point x="342.8262229396851" y="445.7502265854661"/>
      <point x="337.8825264516413" y="439.18683147126615" type="curve" smooth="yes"/>
      <point x="303.2342941735005" y="393.18683147126615" type="line"/>
    </contour>
    <contour>
      <point x="204.82623467372386" y="687.2219363287561" type="line"/>
      <point x="334.93388241204866" y="625.2219363287561" type="line" smooth="yes"/>
      <point x="340.7878082087398" y="622.4323739494192"/>
      <point x="324.7004444703212" y="610.2592559206616"/>
      <point x="323.6069811458643" y="616.6510039960668" type="curve" smooth="yes"/>
      <point x="313.0003794280661" y="678.6510039960668" type="line"/>
      <point x="328.7712652346874" y="681.3489960039332" type="line"/>
      <point x="339.37786695248565" y="619.3489960039332" type="line" smooth="yes"/>
      <point x="340.4713302769425" y="612.957247928528"/>
      <point x="333.90489148299247" y="607.988501291907"/>
      <point x="328.0509656863013" y="610.7780636712439" type="curve" smooth="yes"/>
      <point x="197.94331794797657" y="672.7780636712439" type="line"/>
    </contour>
  </outline>
</glyph>
<glyph name="numbersign" format="2">
  <advance width="480"/>
  <unicode hex="0023"/>
  <outline>
    <contour>
      <point x="253.64368372031552" y="621.5411372710813" type="line"/>
      <point x="244.4512955648904" y="461.5411372710813" type="line" smooth="yes"/>
      <point x="244.4512182521698" y="461.5397915886448"/>
      <point x="244.45114059935398" y="461.5384459257673"/>
      <point x="244.45106260645056" y="461.5371002825814" type="curve" smooth="yes"/>
      <point x="230.3089269827196" y="217.53710028258138" type="line" smooth="yes"/>
      <point x="230.30816914954963" y="217.5240250796279"/>
      <point x="230.3117977517008" y="217.58941006435953"/>
      <point x="230.31110414532327" y="217.5763312970789" type="curve" smooth="yes"/>
      <point x="221.82582277108474" y="57.57633129707891" type="line"/>
      <point x="205.84827542111077" y="58.42366870292109" type="line"/>
      <point x="214.3335567953493" y="218.4236687029211" type="line" smooth="yes"/>
      <point x="214.33425040172682" y="218.43674747020174"/>
      <point x="214.33497612478297" y="218.44982451446515"/>
      <point x="214.33573395795295" y="218.46289971741862" type="curve" smooth="yes"/>
      <point x="228.4778695816839" y="462.4628997174186" type="line" smooth="yes"/>
      <point x="228.47794757458732" y="462.46424536060454"/>
      <point x="228.4775593105235" y="462.45751704648217"/>
      <point x="228.47763662324408" y="462.4588627289187" type="curve" smooth="yes"/>
      <point x="237.67002477866922" y="622.4588627289187" type="line"/>
    </contour>
    <contour>
      <point x="415.57308081619874" y="621.5763312970789" type="line"/>
      <point x="407.08779944196016" y="461.5763312970789" type="line" smooth="yes"/>
      <point x="407.08710583558263" y="461.56325252979826"/>
      <point x="407.0863801125265" y="461.55017548553485"/>
      <point x="407.0856222793565" y="461.5371002825814" type="curve" smooth="yes"/>
      <point x="392.9434866556256" y="217.53710028258138" type="line" smooth="yes"/>
      <point x="392.94340866272216" y="217.53575463939544"/>
      <point x="392.943796926786" y="217.54248295351786"/>
      <point x="392.9437196140654" y="217.54113727108128" type="curve" smooth="yes"/>
      <point x="383.75133145864027" y="57.54113727108128" type="line"/>
      <point x="367.7776725169939" y="58.45886272891872" type="line"/>
      <point x="376.97006067241904" y="218.45886272891872" type="line" smooth="yes"/>
      <point x="376.9701379851396" y="218.4602084113553"/>
      <point x="376.97021563795545" y="218.46155407423268"/>
      <point x="376.97029363085886" y="218.46289971741862" type="curve" smooth="yes"/>
      <point x="391.1124292545898" y="462.4628997174186" type="line" smooth="yes"/>
      <point x="391.1131870877598" y="462.4759749203721"/>
      <point x="391.10955848560866" y="462.4105899356404"/>
      <point x="391.1102520919862" y="462.4236687029211" type="curve" smooth="yes"/>
      <point x="399.59553346622477" y="622.4236687029211" type="line"/>
    </contour>
    <contour>
      <point x="468.3954903232549" y="210.0" type="line"/>
      <point x="384.9568901432422" y="210.0" type="line"/>
      <point x="384.9568901432422" y="210.0"/>
      <point x="384.9568901432422" y="210.0"/>
      <point x="384.9568901432422" y="210.0" type="curve"/>
      <point x="222.32233047033628" y="210.0" type="line"/>
      <point x="222.32233047033628" y="210.0"/>
      <point x="222.32233047033628" y="210.0"/>
      <point x="222.32233047033628" y="210.0" type="curve"/>
      <point x="153.02586591405463" y="210.0" type="line"/>
      <point x="153.02586591405463" y="226.0" type="line"/>
      <point x="222.32233047033628" y="226.0" type="line"/>
      <point x="222.32233047033628" y="226.0"/>
      <point x="222.32233047033628" y="226.0"/>
      <point x="222.32233047033628" y="226.0" type="curve"/>
      <point x="384.9568901432422" y="226.0" type="line"/>
      <point x="384.9568901432422" y="226.0"/>
      <point x="384.9568901432422" y="226.0"/>
      <point x="384.9568901432422" y="226.0" type="curve"/>
      <point x="468.3954903232549" y="226.0" type="line"/>
    </contour>
    <contour>
      <point x="468.3954903232549" y="454.0" type="line"/>
      <point x="399.09902576697317" y="454.0" type="line"/>
      <point x="399.09902576697317" y="454.0"/>
      <point x="399.09902576697317" y="454.0"/>
      <point x="399.09902576697317" y="454.0" type="curve"/>
      <point x="236.46446609406723" y="454.0" type="line"/>
      <point x="236.46446609406723" y="454.0"/>
      <point x="236.46446609406723" y="454.0"/>
      <point x="236.46446609406723" y="454.0" type="curve"/>
      <point x="153.02586591405463" y="454.0" type="line"/>
      <point x="153.02586591405463" y="470.0" type="line"/>
      <point x="236.46446609406723" y="470.0" type="line"/>
      <point x="236.46446609406723" y="470.0"/>
      <point x="236.46446609406723" y="470.0"/>
      <point x="236.46446609406723" y="470.0" type="curve"/>
      <point x="399.09902576697317" y="470.0" type="line"/>
      <point x="399.09902576697317" y="470.0"/>
      <point x="399.09902576697317" y="470.0"/>
      <point x="399.09902576697317" y="470.0" type="curve"/>
      <point x="468.3954903232549" y="470.0" type="line"/>
    </contour>
    <contour>
      <point x="34.66661115505975" y="163.0355859405802" type="line"/>
      <point x="149.21790970728043" y="225.0355859405802" type="line" smooth="yes"/>
      <point x="154.78594545054207" y="228.04924200947974"/>
      <point x="154.71830357706327" y="207.93914518061788"/>
      <point x="149.17066692545416" y="210.9901896774382" type="curve" smooth="yes"/>
      <point x="34.61936837323347" y="273.9901896774382" type="line"/>
      <point x="42.329766350434426" y="288.0098103225618" type="line"/>
      <point x="156.8810649026551" y="225.0098103225618" type="line" smooth="yes"/>
      <point x="162.42870155426422" y="221.9587658257415"/>
      <point x="162.4018578640905" y="213.97807012831933"/>
      <point x="156.83382212082884" y="210.9644140594198" type="curve" smooth="yes"/>
      <point x="42.28252356860815" y="148.9644140594198" type="line"/>
    </contour>
    <contour>
      <point x="34.61936837323347" y="406.0098103225618" type="line"/>
      <point x="149.17066692545416" y="469.0098103225618" type="line" smooth="yes"/>
      <point x="154.71830357706327" y="472.0608548193821"/>
      <point x="154.7859454505421" y="451.95075799052023"/>
      <point x="149.21790970728046" y="454.96441405941977" type="curve" smooth="yes"/>
      <point x="34.666611155059755" y="516.9644140594198" type="line"/>
      <point x="42.28252356860814" y="531.0355859405802" type="line"/>
      <point x="156.8338221208288" y="469.03558594058023" type="line" smooth="yes"/>
      <point x="162.40185786409046" y="466.0219298716807"/>
      <point x="162.42870155426422" y="458.0412341742585"/>
      <point x="156.8810649026551" y="454.9901896774382" type="curve" smooth="yes"/>
      <point x="42.329766350434426" y="391.9901896774382" type="line"/>
    </contour>
    <contour>
      <point x="448.8840770963955" y="284.1385270012172" type="line"/>
      <point x="475.7541347814843" y="221.1385270012172" type="line" smooth="yes"/>
      <point x="476.61560503028767" y="219.11870901977943"/>
      <point x="476.6089713979595" y="216.83358484955752"/>
      <point x="475.73578885118917" y="214.81880250207473" type="curve" smooth="yes"/>
      <point x="448.8657311661004" y="152.81880250207473" type="line"/>
      <point x="434.1851341102318" y="159.18119749792527" type="line"/>
      <point x="461.0551917953206" y="221.18119749792527" type="line" smooth="yes"/>
      <point x="461.92837434209093" y="223.19597984540806"/>
      <point x="461.8983161138288" y="212.84165501734503"/>
      <point x="461.03684586502544" y="214.8614729987828" type="curve" smooth="yes"/>
      <point x="434.16678817993665" y="277.8614729987828" type="line"/>
    </contour>
    <contour>
      <point x="448.8657311661004" y="527.1811974979253" type="line"/>
      <point x="475.73578885118917" y="465.18119749792527" type="line" smooth="yes"/>
      <point x="476.6089713979595" y="463.1664151504425"/>
      <point x="476.61560503028767" y="460.8812909802205"/>
      <point x="475.7541347814843" y="458.8614729987828" type="curve" smooth="yes"/>
      <point x="448.8840770963955" y="395.8614729987828" type="line"/>
      <point x="434.16678817993665" y="402.1385270012172" type="line"/>
      <point x="461.03684586502544" y="465.1385270012172" type="line" smooth="yes"/>
      <point x="461.8983161138288" y="467.1583449826549"/>
      <point x="461.92837434209093" y="456.80402015459197"/>
      <point x="461.0551917953206" y="458.81880250207473" type="curve" smooth="yes"/>
      <point x="434.1851341102318" y="520.8188025020747" type="line"/>
    </contour>
    <contour>
      <point x="137.62000678926407" y="687.1002272719179" type="line"/>
      <point x="249.34287821673857" y="629.1002272719179" type="line" smooth="yes"/>
      <point x="255.9318841525216" y="625.679599611775"/>
      <point x="241.00595949515656" y="612.1265572977197"/>
      <point x="238.23499143827112" y="619.0140407887228" type="curve" smooth="yes"/>
      <point x="214.90046765911504" y="677.0140407887228" type="line"/>
      <point x="229.74419328155753" y="682.9859592112772" type="line"/>
      <point x="253.07871706071361" y="624.9859592112772" type="line" smooth="yes"/>
      <point x="255.84968511759905" y="618.0984757202741"/>
      <point x="248.5598362180292" y="611.4791450679392"/>
      <point x="241.97083028224617" y="614.8997727280821" type="curve" smooth="yes"/>
      <point x="130.24795885477167" y="672.8997727280821" type="line"/>
    </contour>
    <contour>
      <point x="299.5474596809835" y="687.1002272719179" type="line"/>
      <point x="411.270331108458" y="629.1002272719179" type="line" smooth="yes"/>
      <point x="417.8593370442408" y="625.6795996117751"/>
      <point x="402.93341238687583" y="612.12655729772"/>
      <point x="400.1624443299905" y="619.0140407887228" type="curve" smooth="yes"/>
      <point x="376.82792055083445" y="677.0140407887228" type="line"/>
      <point x="391.671646173277" y="682.9859592112772" type="line"/>
      <point x="415.006169952433" y="624.9859592112772" type="line" smooth="yes"/>
      <point x="417.7771380093184" y="618.0984757202743"/>
      <point x="410.48728910974836" y="611.4791450679393"/>
      <point x="403.8982831739655" y="614.8997727280821" type="curve" smooth="yes"/>
      <point x="292.175411746491" y="672.8997727280821" type="line"/>
    </contour>
    <contour>
      <point x="338.9452303341317" y="3.6461479295890484" type="line"/>
      <point x="368.64371514396663" y="61.64614792958905" type="line" smooth="yes"/>
      <point x="372.152316094045" y="68.49831080616632"/>
      <point x="386.20109804905564" y="54.213196682084735"/>
      <point x="379.29136234367553" y="50.81938331128349" type="curve" smooth="yes"/>
      <point x="261.20452988552216" y="-7.180616688716514" type="line"/>
      <point x="254.15080917380527" y="7.180616688716514" type="line"/>
      <point x="372.23764163195864" y="65.18061668871651" type="line" smooth="yes"/>
      <point x="379.1473773373388" y="68.57443005951778"/>
      <point x="386.39388978174594" y="61.20601494698827"/>
      <point x="382.88528883166754" y="54.35385207041095" type="curve" smooth="yes"/>
      <point x="353.1868040218326" y="-3.6461479295890484" type="line"/>
    </contour>
    <contour>
      <point x="177.01777744241232" y="3.6461479295890546" type="line"/>
      <point x="206.71626225224733" y="61.646147929589056" type="line" smooth="yes"/>
      <point x="210.22486320232565" y="68.49831080616623"/>
      <point x="224.27364515733623" y="54.213196682084686"/>
      <point x="217.36390945195618" y="50.81938331128348" type="curve" smooth="yes"/>
      <point x="99.27707699380274" y="-7.180616688716516" type="line"/>
      <point x="92.22335628208587" y="7.180616688716516" type="line"/>
      <point x="210.31018874023934" y="65.18061668871651" type="line" smooth="yes"/>
      <point x="217.21992444561943" y="68.57443005951774"/>
      <point x="224.46643689002653" y="61.20601494698818"/>
      <point x="220.95783593994818" y="54.353852070410944" type="curve" smooth="yes"/>
      <point x="191.25935113011317" y="-3.6461479295890546" type="line"/>
    </contour>
    <contour>
      <point x="221.3522006112493" y="526.7427172118751" type="line"/>
      <point x="243.97961760921876" y="464.74271721187506" type="line" smooth="yes"/>
      <point x="245.34634831225864" y="460.9978220876955"/>
      <point x="243.74736854654418" y="456.8181543661123"/>
      <point x="240.23011922031472" y="454.9416817489729" type="curve" smooth="yes"/>
      <point x="122.14328676216128" y="391.9416817489729" type="line"/>
      <point x="114.61198050966634" y="406.0583182510271" type="line"/>
      <point x="232.69881296781975" y="469.0583182510271" type="line" smooth="yes"/>
      <point x="236.2160622940492" y="470.93479086816654"/>
      <point x="230.31604528195558" y="455.5123876639454"/>
      <point x="228.9493145789157" y="459.25728278812494" type="curve" smooth="yes"/>
      <point x="206.32189758094623" y="521.2572827881249" type="line"/>
    </contour>
    <contour>
      <point x="129.3494397160607" y="530.9845716377145" type="line"/>
      <point x="240.36520436234863" y="468.98457163771445" type="line" smooth="yes"/>
      <point x="244.03627241910874" y="466.93435633501116"/>
      <point x="245.4936599747943" y="462.39214962583685"/>
      <point x="243.70073836393357" y="458.5887885383102" type="curve" smooth="yes"/>
      <point x="214.00225355409862" y="395.5887885383102" type="line"/>
      <point x="199.52970901436595" y="402.4112114616898" type="line"/>
      <point x="229.2281938242009" y="465.4112114616898" type="line" smooth="yes"/>
      <point x="231.02111543506163" y="469.2145725492164"/>
      <point x="236.23479588254594" y="452.96521305958225"/>
      <point x="232.56372782578583" y="455.01542836228555" type="curve" smooth="yes"/>
      <point x="121.5479631794979" y="517.0154283622855" type="line"/>
    </contour>
    <contour>
      <point x="383.25177423850715" y="526.817934393141" type="line"/>
      <point x="406.5862980176632" y="464.817934393141" type="line" smooth="yes"/>
      <point x="408.0039102055146" y="461.0513284628627"/>
      <point x="406.4026872556216" y="456.8179662864483"/>
      <point x="402.8471960522997" y="454.9323823312098" type="curve" smooth="yes"/>
      <point x="284.0532568129597" y="391.9323823312098" type="line"/>
      <point x="276.55691624230667" y="406.0676176687902" type="line"/>
      <point x="395.35085548164665" y="469.0676176687902" type="line" smooth="yes"/>
      <point x="398.9063466849685" y="470.95320162402874"/>
      <point x="393.0293657041346" y="455.4154596765807"/>
      <point x="391.61175351628316" y="459.182065606859" type="curve" smooth="yes"/>
      <point x="368.27722973712713" y="521.182065606859" type="line"/>
    </contour>
    <contour>
      <point x="291.2580314294536" y="530.9950718551337" type="line"/>
      <point x="402.9809028569281" y="468.9950718551337" type="line" smooth="yes"/>
      <point x="406.6894290060313" y="466.9370454339845"/>
      <point x="408.1473046414504" y="462.3424738799089"/>
      <point x="406.3038060335808" y="458.52276815413455" type="curve" smooth="yes"/>
      <point x="375.8982144425593" y="395.52276815413455" type="line"/>
      <point x="361.488653909344" y="402.47723184586545" type="line"/>
      <point x="391.8942455003655" y="465.47723184586545" type="line" smooth="yes"/>
      <point x="393.73774410823506" y="469.2969375716398"/>
      <point x="398.92567482612145" y="452.94690172371713"/>
      <point x="395.21714867701826" y="455.0049281448663" type="curve" smooth="yes"/>
      <point x="283.49427724954376" y="517.0049281448663" type="line"/>
    </contour>
    <contour>
      <point x="207.22401345672253" y="283.70419182484795" type="line"/>
      <point x="229.851430454692" y="220.70419182484798" type="line" smooth="yes"/>
      <point x="231.20049809248832" y="216.9480732546729"/>
      <point x="229.5748143624385" y="212.77220050122796"/>
      <point x="226.04120916502626" y="210.91692572012823" type="curve" smooth="yes"/>
      <point x="107.95437670687282" y="148.91692572012823" type="line"/>
      <point x="100.5166193174929" y="163.08307427987177" type="line"/>
      <point x="218.6034517756463" y="225.08307427987177" type="line" smooth="yes"/>
      <point x="222.13705697305855" y="226.9383490609715"/>
      <point x="216.14229812377687" y="211.53968960497693"/>
      <point x="214.79323048598056" y="215.29580817515202" type="curve" smooth="yes"/>
      <point x="192.16581348801108" y="278.29580817515205" type="line"/>
    </contour>
    <contour>
      <point x="115.25498583214602" y="287.9577280372011" type="line"/>
      <point x="226.27075047843397" y="224.95772803720106" type="line" smooth="yes"/>
      <point x="229.92600219293212" y="222.88342031390528"/>
      <point x="231.35293488740857" y="218.33436729747513"/>
      <point x="229.53730525846953" y="214.54397065889165" type="curve" smooth="yes"/>
      <point x="199.83882044863458" y="152.54397065889165" type="line"/>
      <point x="185.40887087236808" y="159.45602934110835" type="line"/>
      <point x="215.10735568220304" y="221.45602934110835" type="line" smooth="yes"/>
      <point x="216.92298531114207" y="225.24642597969182"/>
      <point x="222.02916217673675" y="208.96796423950315"/>
      <point x="218.3739104622386" y="211.04227196279894" type="curve" smooth="yes"/>
      <point x="107.35814581595065" y="274.0422719627989" type="line"/>
    </contour>
    <contour>
      <point x="369.1243102796632" y="283.77863950298297" type="line"/>
      <point x="392.4588340588192" y="220.77863950298297" type="line" smooth="yes"/>
      <point x="393.8581067135087" y="217.0007960775182"/>
      <point x="392.22987412323374" y="212.77182929350283"/>
      <point x="388.65838268055563" y="210.9078245230245" type="curve" smooth="yes"/>
      <point x="269.86444344121566" y="148.9078245230245" type="line"/>
      <point x="262.46145836658883" y="163.0921754769755" type="line"/>
      <point x="381.2553976059288" y="225.0921754769755" type="line" smooth="yes"/>
      <point x="384.8268890486069" y="226.95618024745386"/>
      <point x="378.8542188823547" y="211.44351707155226"/>
      <point x="377.45494622766523" y="215.22136049701703" type="curve" smooth="yes"/>
      <point x="354.1204224485092" y="278.22136049701703" type="line"/>
    </contour>
    <contour>
      <point x="277.16349240564324" y="287.96844577510484" type="line"/>
      <point x="388.88636383311774" y="224.9684457751048" type="line" smooth="yes"/>
      <point x="392.5793674458694" y="222.88597846442178"/>
      <point x="394.0064345143451" y="218.28406418165804"/>
      <point x="392.13964067568327" y="214.47748743242587" type="curve" smooth="yes"/>
      <point x="361.73404908466176" y="152.47748743242587" type="line"/>
      <point x="347.36854801977967" y="159.52251256757413" type="line"/>
      <point x="377.77413961080117" y="221.52251256757413" type="line" smooth="yes"/>
      <point x="379.640933449463" y="225.3290893168063"/>
      <point x="384.7204200661184" y="208.94908691421216"/>
      <point x="381.0274164533667" y="211.0315542248952" type="curve" smooth="yes"/>
      <point x="269.3045450258922" y="274.03155422489516" type="line"/>
    </contour>
  </outline>
</glyph>
<glyph name="dollar" format="2">
  <advance width="382"/>
  <unicode hex="0024"/>
  <outline>
    <contour>
      <point x="360.1228431478279" y="570.7637277301337" type="line"/>
      <point x="333.5428907879575" y="583.2936374349869"/>
      <point x="306.39414183628674" y="590.0"/>
      <point x="272.31727983645294" y="590.0" type="curve"/>
      <point x="272.31727983645294" y="590.0"/>
      <point x="272.31727983645294" y="590.0"/>
      <point x="272.31727983645294" y="590.0" type="curve"/>
      <point x="213.5035532888017" y="590.0"/>
      <point x="197.14449664266255" y="539.9058486634549"/>
      <point x="167.11594023714653" y="476.57264185481773" type="curve"/>
      <point x="167.11594023714653" y="476.57264185481773"/>
      <point x="167.11594023714653" y="476.57264185481773"/>
      <point x="167.11594023714653" y="476.57264185481773" type="curve"/>
      <point x="125.87250188501868" y="389.58613556459954"/>
      <point x="149.93877278952877" y="378.07592065810866"/>
      <point x="200.84311360751386" y="346.8172745718049" type="curve"/>
      <point x="200.84311360751386" y="346.8172745718049"/>
      <point x="200.84311360751386" y="346.8172745718049"/>
      <point x="200.84311360751386" y="346.8172745718049" type="curve"/>
      <point x="256.3717438082205" y="312.7190076812168"/>
      <point x="338.35048851801486" y="300.0055738811349"/>
      <point x="382.10925027895655" y="205.35720182195374" type="curve"/>
      <point x="382.10925027895655" y="205.35720182195374"/>
      <point x="382.10925027895655" y="205.35720182195374"/>
      <point x="382.10925027895655" y="205.35720182195374" type="curve"/>
      <point x="418.3871705263125" y="126.88957716969834"/>
      <point x="331.50550552747114" y="72.0"/>
      <point x="248.9827560572969" y="72.0" type="curve"/>
      <point x="248.9827560572969" y="72.0"/>
      <point x="248.9827560572969" y="72.0"/>
      <point x="248.9827560572969" y="72.0" type="curve"/>
      <point x="216.75370645329784" y="72.0"/>
      <point x="182.36655035832658" y="79.22551441682548"/>
      <point x="149.40502235423665" y="94.76372773013368" type="curve"/>
      <point x="156.22744527761617" y="109.23627226986632" type="line"/>
      <point x="186.91154268821217" y="94.77165003411895"/>
      <point x="218.98052747804746" y="88.0"/>
      <point x="248.9827560572969" y="88.0" type="curve"/>
      <point x="248.9827560572969" y="88.0"/>
      <point x="248.9827560572969" y="88.0"/>
      <point x="248.9827560572969" y="88.0" type="curve"/>
      <point x="319.11766016410934" y="88.0"/>
      <point x="398.4183613215155" y="131.9542866365794"/>
      <point x="367.5862759380482" y="198.64279817804626" type="curve"/>
      <point x="367.5862759380482" y="198.64279817804626"/>
      <point x="367.5862759380482" y="198.64279817804626"/>
      <point x="367.5862759380482" y="198.64279817804626" type="curve"/>
      <point x="326.6666833073611" y="287.1501661190733"/>
      <point x="244.39639982092206" y="301.2968325366663"/>
      <point x="192.47059489147088" y="333.1827254281951" type="curve"/>
      <point x="192.47059489147088" y="333.1827254281951"/>
      <point x="192.47059489147088" y="333.1827254281951"/>
      <point x="192.47059489147088" y="333.1827254281951" type="curve"/>
      <point x="135.92124052822808" y="367.90778474622175"/>
      <point x="106.84155247235559" y="386.79452310632723"/>
      <point x="152.65866301843724" y="483.42735814518227" type="curve"/>
      <point x="152.65866301843724" y="483.42735814518227"/>
      <point x="152.65866301843724" y="483.42735814518227"/>
      <point x="152.65866301843724" y="483.42735814518227" type="curve"/>
      <point x="186.81046786713733" y="555.4569052922982"/>
      <point x="205.4277869032786" y="606.0"/>
      <point x="272.31727983645294" y="606.0" type="curve"/>
      <point x="272.31727983645294" y="606.0"/>
      <point x="272.31727983645294" y="606.0"/>
      <point x="272.31727983645294" y="606.0" type="curve"/>
      <point x="308.9411998409974" y="606.0"/>
      <point x="338.3786084676626" y="598.7027238080666"/>
      <point x="366.94526607120736" y="585.2362722698663" type="curve"/>
    </contour>
    <contour>
      <point x="264.3253667313582" y="598.3596177423533" type="line"/>
      <point x="269.2751141996641" y="708.3596177423533" type="line"/>
      <point x="285.25894040985355" y="707.6403822576467" type="line"/>
      <point x="280.3091929415477" y="597.6403822576467" type="line"/>
    </contour>
    <contour>
      <point x="235.33507875375605" y="-37.61692439533698" type="line"/>
      <point x="240.99193300324848" y="80.38307560466302" type="line"/>
      <point x="256.9735791113454" y="79.61692439533698" type="line"/>
      <point x="251.31672486185292" y="-38.38307560466302" type="line"/>
    </contour>
    <contour>
      <point x="343.87668087327773" y="637.4608077458907" type="line"/>
      <point x="370.74673855836653" y="581.4608077458907" type="line" smooth="yes"/>
      <point x="371.5521667609097" y="579.7822114484422"/>
      <point x="371.7469005769344" y="577.8752553217755"/>
      <point x="371.2973874213639" y="576.0685074029366" type="curve" smooth="yes"/>
      <point x="344.4273297362751" y="468.0685074029366" type="line"/>
      <point x="328.90066411258255" y="471.9314925970634" type="line"/>
      <point x="355.77072179767134" y="579.9314925970634" type="line" smooth="yes"/>
      <point x="356.22023495324186" y="581.7382405159024"/>
      <point x="357.1267988632119" y="572.8605959566607"/>
      <point x="356.3213706606687" y="574.5391922541093" type="curve" smooth="yes"/>
      <point x="329.4513129755799" y="630.5391922541093" type="line"/>
    </contour>
    <contour>
      <point x="34.7010210767407" y="52.16229821132501" type="line"/>
      <point x="149.25231962896137" y="109.16229821132501" type="line" smooth="yes"/>
      <point x="154.22189227300038" y="111.63512605605773"/>
      <point x="151.32279794104588" y="92.37808859416768"/>
      <point x="147.30155244754903" y="96.20445952431774" type="curve" smooth="yes"/>
      <point x="32.75025389532834" y="205.20445952431774" type="line"/>
      <point x="43.779616632083105" y="216.79554047568226" type="line"/>
      <point x="158.3309151843038" y="107.79554047568226" type="line" smooth="yes"/>
      <point x="162.35216067780064" y="103.9691695455322"/>
      <point x="161.34972064693045" y="97.31052963340771"/>
      <point x="156.38014800289145" y="94.83770178867499" type="curve" smooth="yes"/>
      <point x="41.828849450670745" y="37.83770178867499" type="line"/>
    </contour>
    <contour>
      <point x="167.97455702182953" y="777.0156209814489" type="line"/>
      <point x="281.11164201167713" y="715.0156209814489" type="line" smooth="yes"/>
      <point x="287.55226235588697" y="711.4861110831089"/>
      <point x="272.1726615089255" y="698.4090424003141"/>
      <point x="269.7245549721023" y="705.3333333333334" type="curve" smooth="yes"/>
      <point x="247.80424475531933" y="767.3333333333334" type="line"/>
      <point x="262.88918942063236" y="772.6666666666666" type="line"/>
      <point x="284.80949963741534" y="710.6666666666666" type="line" smooth="yes"/>
      <point x="287.25760617423856" y="703.7423757336473"/>
      <point x="279.8630329420503" y="697.454869120211"/>
      <point x="273.4224125978405" y="700.9843790185511" type="curve" smooth="yes"/>
      <point x="160.28532760799288" y="762.9843790185511" type="line"/>
    </contour>
    <contour>
      <point x="207.76323640138415" y="-96.67961169938832" type="line"/>
      <point x="236.047507648846" y="-34.679611699388325" type="line" smooth="yes"/>
      <point x="239.20374805880152" y="-27.76103480889119"/>
      <point x="253.76024301596186" y="-41.59903921441624"/>
      <point x="247.01014813477838" y="-45.1011498366236" type="curve" smooth="yes"/>
      <point x="127.50910211425187" y="-107.1011498366236" type="line"/>
      <point x="120.14060946030409" y="-92.8988501633764" type="line"/>
      <point x="239.6416554808306" y="-30.8988501633764" type="line" smooth="yes"/>
      <point x="246.39175036201405" y="-27.396739541169055"/>
      <point x="253.76053637671848" y="-34.40181141011456"/>
      <point x="250.60429596676298" y="-41.320388300611675" type="curve" smooth="yes"/>
      <point x="222.32002471930113" y="-103.32038830061168" type="line"/>
    </contour>
    <contour>
      <point x="163.40274855705206" y="660.1862113027349" type="line"/>
      <point x="275.83272676571306" y="605.1862113027349" type="line" smooth="yes"/>
      <point x="282.37615828992443" y="601.985207979905"/>
      <point x="267.50162380929913" y="588.3112242562361"/>
      <point x="264.86129243706097" y="595.1003014121967" type="curve" smooth="yes"/>
      <point x="241.52676865790497" y="655.1003014121967" type="line"/>
      <point x="256.4387434566889" y="660.8996985878033" type="line"/>
      <point x="279.7732672358449" y="600.8996985878033" type="line" smooth="yes"/>
      <point x="282.4135986080831" y="594.1106214318427"/>
      <point x="275.3452644314042" y="587.6127853744351"/>
      <point x="268.8018329071928" y="590.8137886972651" type="curve" smooth="yes"/>
      <point x="156.37185469853176" y="645.8137886972651" type="line"/>
    </contour>
    <contour>
      <point x="212.13849534663453" y="24.59692740754588" type="line"/>
      <point x="241.83698015646954" y="83.59692740754588" type="line" smooth="yes"/>
      <point x="245.31036389421587" y="90.49726733529765"/>
      <point x="259.49380032029137" y="76.36722775149089"/>
      <point x="252.60661045148765" y="72.86784188834092" type="curve" smooth="yes"/>
      <point x="134.5197779933342" y="12.867841888340916" type="line"/>
      <point x="127.27206920495271" y="27.132158111659084" type="line"/>
      <point x="245.35890166310617" y="87.13215811165908" type="line" smooth="yes"/>
      <point x="252.24609153191003" y="90.63154397480913"/>
      <point x="259.60191569587073" y="83.30341252020605"/>
      <point x="256.1285319581243" y="76.40307259245412" type="curve" smooth="yes"/>
      <point x="226.43004714828928" y="17.40307259245412" type="line"/>
    </contour>
  </outline>
</glyph>
<glyph name="percent" format="2">
  <advance width="723"/>
  <unicode hex="0025"/>
  <outline>
    <contour>
      <point x="239.52408024532053" y="322.0" type="curve"/>
      <point x="239.52408024532053" y="322.0"/>
      <point x="239.52408024532053" y="322.0"/>
      <point x="239.52408024532053" y="322.0" type="curve"/>
      <point x="291.44453325140813" y="322.0"/>
      <point x="325.5692821431314" y="388.77272853983106"/>
      <point x="325.5692821431314" y="478.0" type="curve"/>
      <point x="325.5692821431314" y="478.0"/>
      <point x="325.5692821431314" y="478.0"/>
      <point x="325.5692821431314" y="478.0" type="curve"/>
      <point x="325.5692821431314" y="566.2978207157921"/>
      <point x="291.44453325140813" y="632.0"/>
      <point x="239.52408024532053" y="632.0" type="curve"/>
      <point x="239.52408024532053" y="632.0"/>
      <point x="239.52408024532053" y="632.0"/>
      <point x="239.52408024532053" y="632.0" type="curve"/>
      <point x="187.65553471212579" y="632.0"/>
      <point x="154.89309190988283" y="566.2095449695315"/>
      <point x="154.8930919098828" y="478.0" type="curve"/>
      <point x="154.8930919098828" y="478.0"/>
      <point x="154.8930919098828" y="478.0"/>
      <point x="154.8930919098828" y="478.0" type="curve"/>
      <point x="154.89309190988277" y="388.86193350447337"/>
      <point x="187.65553471212579" y="322.0"/>
    </contour>
    <contour>
      <point x="624.897275991989" y="48.0" type="curve"/>
      <point x="624.897275991989" y="48.0"/>
      <point x="624.897275991989" y="48.0"/>
      <point x="624.897275991989" y="48.0" type="curve"/>
      <point x="677.448661085239" y="48.0"/>
      <point x="710.2353711086132" y="114.81734217556118"/>
      <point x="710.2353711086132" y="204.0" type="curve"/>
      <point x="710.2353711086132" y="204.0"/>
      <point x="710.2353711086132" y="204.0"/>
      <point x="710.2353711086132" y="204.0" type="curve"/>
      <point x="710.2353711086132" y="292.29782071579217"/>
      <point x="677.4749499222041" y="358.0"/>
      <point x="624.897275991989" y="358.0" type="curve"/>
      <point x="624.897275991989" y="358.0"/>
      <point x="624.897275991989" y="358.0"/>
      <point x="624.897275991989" y="358.0" type="curve"/>
      <point x="572.3196020617738" y="358.0"/>
      <point x="539.5591808753647" y="292.29782071579217"/>
      <point x="539.5591808753647" y="204.0" type="curve"/>
      <point x="539.5591808753647" y="204.0"/>
      <point x="539.5591808753647" y="204.0"/>
      <point x="539.5591808753647" y="204.0" type="curve"/>
      <point x="539.5591808753647" y="114.81734217556118"/>
      <point x="572.345890898739" y="48.0"/>
    </contour>
    <contour>
      <point x="239.52408024532053" y="306.0" type="curve"/>
      <point x="179.7623467407601" y="306.0"/>
      <point x="138.89309190988277" y="375.2971900357557"/>
      <point x="138.8930919098828" y="478.0" type="curve"/>
      <point x="138.8930919098828" y="478.0"/>
      <point x="138.8930919098828" y="478.0"/>
      <point x="138.8930919098828" y="478.0" type="curve"/>
      <point x="138.89309190988283" y="579.6329890271165"/>
      <point x="179.7623467407601" y="648.0"/>
      <point x="239.52408024532053" y="648.0" type="curve"/>
      <point x="239.52408024532053" y="648.0"/>
      <point x="239.52408024532053" y="648.0"/>
      <point x="239.52408024532053" y="648.0" type="curve"/>
      <point x="299.25594781609556" y="648.0"/>
      <point x="341.5692821431314" y="579.5821979281525"/>
      <point x="341.5692821431314" y="478.0" type="curve"/>
      <point x="341.5692821431314" y="478.0"/>
      <point x="341.5692821431314" y="478.0"/>
      <point x="341.5692821431314" y="478.0" type="curve"/>
      <point x="341.5692821431314" y="375.3485157778668"/>
      <point x="299.25594781609556" y="306.0"/>
      <point x="239.52408024532053" y="306.0" type="curve"/>
      <point x="239.52408024532053" y="306.0"/>
      <point x="239.52408024532053" y="306.0"/>
    </contour>
    <contour>
      <point x="624.897275991989" y="32.0" type="curve"/>
      <point x="564.4093088317104" y="32.0"/>
      <point x="523.5591808753647" y="101.34851577786687"/>
      <point x="523.5591808753647" y="204.0" type="curve"/>
      <point x="523.5591808753647" y="204.0"/>
      <point x="523.5591808753647" y="204.0"/>
      <point x="523.5591808753647" y="204.0" type="curve"/>
      <point x="523.5591808753647" y="305.5821979281526"/>
      <point x="564.4093088317104" y="374.0"/>
      <point x="624.897275991989" y="374.0" type="curve"/>
      <point x="624.897275991989" y="374.0"/>
      <point x="624.897275991989" y="374.0"/>
      <point x="624.897275991989" y="374.0" type="curve"/>
      <point x="685.3852431522675" y="374.0"/>
      <point x="726.2353711086132" y="305.5821979281526"/>
      <point x="726.2353711086132" y="204.0" type="curve"/>
      <point x="726.2353711086132" y="204.0"/>
      <point x="726.2353711086132" y="204.0"/>
      <point x="726.2353711086132" y="204.0" type="curve"/>
      <point x="726.2353711086132" y="101.34851577786687"/>
      <point x="685.3852431522675" y="32.0"/>
      <point x="624.897275991989" y="32.0" type="curve"/>
      <point x="624.897275991989" y="32.0"/>
      <point x="624.897275991989" y="32.0"/>
    </contour>
    <contour>
      <point x="563.6516079525567" y="624.8266388377117" type="line"/>
      <point x="314.7500209748919" y="48.82663883771168" type="line"/>
      <point x="300.0626415035662" y="55.17336116228832" type="line"/>
      <point x="548.9642284812309" y="631.1733611622883" type="line"/>
    </contour>
    <contour>
      <point x="253.44933217340488" y="5.431316834049923" type="line"/>
      <point x="301.5325932940901" y="57.43131683404992" type="line" smooth="yes"/>
      <point x="307.25820091530477" y="63.62331773756352"/>
      <point x="318.1126171775948" y="47.47242899258593"/>
      <point x="310.2166288942509" y="44.5098580060069" type="curve" smooth="yes"/>
      <point x="171.6236997816876" y="-7.490141993993098" type="line"/>
      <point x="166.00310447164395" y="7.490141993993098" type="line"/>
      <point x="304.59603358420725" y="59.4901419939931" type="line" smooth="yes"/>
      <point x="312.49202186755116" y="62.45271298057213"/>
      <point x="319.00567680558277" y="52.76068406946367"/>
      <point x="313.2800691843681" y="46.56868316595008" type="curve" smooth="yes"/>
      <point x="265.1968080636829" y="-5.431316834049923" type="line"/>
    </contour>
    <contour>
      <point x="466.8632887778479" y="686.9886282643677" type="line"/>
      <point x="560.2013838944721" y="634.9886282643677" type="line" smooth="yes"/>
      <point x="565.7031507954903" y="631.9235145131659"/>
      <point x="548.661784838974" y="621.2768306798054"/>
      <point x="548.3197263414111" y="627.5654996427252" type="curve" smooth="yes"/>
      <point x="545.491299216665" y="679.5654996427252" type="line"/>
      <point x="561.4676829676304" y="680.4345003572748" type="line"/>
      <point x="564.2961100923765" y="628.4345003572748" type="line" smooth="yes"/>
      <point x="564.6381685899394" y="622.145831394355"/>
      <point x="557.9162194403336" y="617.9462579844305"/>
      <point x="552.4144525393154" y="621.0113717356323" type="curve" smooth="yes"/>
      <point x="459.07635742269116" y="673.0113717356323" type="line"/>
    </contour>
  </outline>
</glyph>
<glyph name="ampersand" format="2">
  <advance width="467"/>
  <unicode hex="0026"/>
  <outline>
    <contour>
      <point x="118.5289882817104" y="351.9997264255791" type="line"/>
      <point x="360.35950744750966" y="353.9997264255791" type="line" smooth="yes"/>
      <point x="360.3815602346515" y="353.99990880774675"/>
      <point x="360.4036136816828" y="354.0"/>
      <point x="360.4256672229853" y="354.0" type="curve" smooth="yes"/>
      <point x="418.40842328028225" y="354.0" type="line"/>
      <point x="418.40842328028225" y="354.0"/>
      <point x="418.40842328028225" y="354.0"/>
      <point x="418.40842328028225" y="354.0" type="curve"/>
      <point x="469.3201115257136" y="354.0" type="line"/>
      <point x="469.3201115257136" y="338.0" type="line"/>
      <point x="418.40842328028225" y="338.0" type="line"/>
      <point x="418.40842328028225" y="338.0"/>
      <point x="418.40842328028225" y="338.0"/>
      <point x="418.40842328028225" y="338.0" type="curve"/>
      <point x="360.4256672229853" y="338.0" type="line" smooth="yes"/>
      <point x="360.4036136816828" y="338.0"/>
      <point x="360.51387978560274" y="338.0004559565885"/>
      <point x="360.4918269984609" y="338.0002735744209" type="curve" smooth="yes"/>
      <point x="118.66130783266162" y="336.0002735744209" type="line"/>
    </contour>
    <contour>
      <point x="370.64557724456813" y="609.6744958557722" type="line"/>
      <point x="351.22155245875797" y="618.1995811520367"/>
      <point x="331.0966369299786" y="622.0"/>
      <point x="312.34240610230006" y="622.0" type="curve"/>
      <point x="312.34240610230006" y="622.0"/>
      <point x="312.34240610230006" y="622.0"/>
      <point x="312.34240610230006" y="622.0" type="curve"/>
      <point x="241.37974562015447" y="622.0"/>
      <point x="186.69922445804252" y="579.1017437036355"/>
      <point x="186.69922445804252" y="492.0" type="curve"/>
      <point x="186.69922445804252" y="492.0"/>
      <point x="186.69922445804252" y="492.0"/>
      <point x="186.69922445804252" y="492.0" type="curve"/>
      <point x="186.69922445804252" y="405.64404635374717"/>
      <point x="244.74975841172744" y="354.0"/>
      <point x="368.91094859722386" y="354.0" type="curve" smooth="yes"/>
      <point x="379.57761526389055" y="354.0"/>
      <point x="379.57761526389055" y="338.0"/>
      <point x="368.91094859722386" y="338.0" type="curve" smooth="yes"/>
      <point x="244.4388892880516" y="338.0"/>
      <point x="173.26419561549812" y="289.00086236727685"/>
      <point x="173.26419561549812" y="188.0" type="curve"/>
      <point x="173.26419561549812" y="188.0"/>
      <point x="173.26419561549812" y="188.0"/>
      <point x="173.26419561549812" y="188.0" type="curve"/>
      <point x="173.26419561549812" y="106.78215433554182"/>
      <point x="220.22581243316512" y="54.00000000000001"/>
      <point x="289.007882323144" y="54.0" type="curve"/>
      <point x="289.007882323144" y="54.0"/>
      <point x="289.007882323144" y="54.0"/>
      <point x="289.007882323144" y="54.0" type="curve"/>
      <point x="362.1972133585427" y="53.99999999999999"/>
      <point x="410.40842328028225" y="108.99055860040174"/>
      <point x="410.40842328028225" y="203.0" type="curve"/>
      <point x="410.40842328028225" y="203.0"/>
      <point x="410.40842328028225" y="203.0"/>
      <point x="410.40842328028225" y="203.0" type="curve"/>
      <point x="410.40842328028225" y="346.0" type="line"/>
      <point x="410.40842328028225" y="346.0"/>
      <point x="410.40842328028225" y="346.0"/>
      <point x="410.40842328028225" y="346.0" type="curve"/>
      <point x="410.40842328028225" y="432.0" type="line"/>
      <point x="426.40842328028225" y="432.0" type="line"/>
      <point x="426.40842328028225" y="346.0" type="line"/>
      <point x="426.40842328028225" y="346.0"/>
      <point x="426.40842328028225" y="346.0"/>
      <point x="426.40842328028225" y="346.0" type="curve"/>
      <point x="426.40842328028225" y="203.0" type="line"/>
      <point x="426.40842328028225" y="203.0"/>
      <point x="426.40842328028225" y="203.0"/>
      <point x="426.40842328028225" y="203.0" type="curve"/>
      <point x="426.40842328028225" y="99.0329122240935"/>
      <point x="369.94955680531666" y="37.99999999999999"/>
      <point x="289.007882323144" y="38.0" type="curve"/>
      <point x="289.007882323144" y="38.0"/>
      <point x="289.007882323144" y="38.0"/>
      <point x="289.007882323144" y="38.0" type="curve"/>
      <point x="212.09892498692506" y="38.00000000000001"/>
      <point x="157.26419561549812" y="97.18592829295649"/>
      <point x="157.26419561549812" y="188.0" type="curve"/>
      <point x="157.26419561549812" y="188.0"/>
      <point x="157.26419561549812" y="188.0"/>
      <point x="157.26419561549812" y="188.0" type="curve"/>
      <point x="157.26419561549812" y="296.9851913851741"/>
      <point x="234.59911315380705" y="354.0"/>
      <point x="368.91094859722386" y="354.0" type="curve" smooth="yes"/>
      <point x="379.57761526389055" y="354.0"/>
      <point x="379.57761526389055" y="338.0"/>
      <point x="368.91094859722386" y="338.0" type="curve" smooth="yes"/>
      <point x="234.328431878534" y="338.0"/>
      <point x="170.69922445804252" y="398.39585881875007"/>
      <point x="170.69922445804252" y="492.0" type="curve"/>
      <point x="170.69922445804252" y="492.0"/>
      <point x="170.69922445804252" y="492.0"/>
      <point x="170.69922445804252" y="492.0" type="curve"/>
      <point x="170.69922445804252" y="588.8576609086994"/>
      <point x="233.4315024406554" y="638.0"/>
      <point x="312.34240610230006" y="638.0" type="curve"/>
      <point x="312.34240610230006" y="638.0"/>
      <point x="312.34240610230006" y="638.0"/>
      <point x="312.34240610230006" y="638.0" type="curve"/>
      <point x="333.1867957487722" y="638.0"/>
      <point x="355.486982752645" y="633.8007101026877"/>
      <point x="377.07581488649123" y="624.3255041442278" type="curve"/>
    </contour>
    <contour>
      <point x="354.2269106503072" y="677.4112114616897" type="line"/>
      <point x="381.096968335396" y="620.4112114616897" type="line" smooth="yes"/>
      <point x="381.8879845640239" y="618.7332126438156"/>
      <point x="382.07125752926316" y="616.8324674449723"/>
      <point x="381.61542421444994" y="615.0342453519465" type="curve" smooth="yes"/>
      <point x="354.74536652936115" y="509.03424535194654" type="line"/>
      <point x="339.2359102315206" y="512.9657546480535" type="line"/>
      <point x="366.1059679166094" y="618.9657546480535" type="line" smooth="yes"/>
      <point x="366.56180123142263" y="620.7639767410792"/>
      <point x="367.41544002429123" y="611.9107897204361"/>
      <point x="366.62442379566335" y="613.5887885383103" type="curve" smooth="yes"/>
      <point x="339.75436611057455" y="670.5887885383103" type="line"/>
    </contour>
    <contour>
      <point x="301.1433320932818" y="501.11872675986217" type="line"/>
      <point x="422.0585916761815" y="439.11872675986217" type="line" smooth="yes"/>
      <point x="428.3921389243234" y="435.87116370835525"/>
      <point x="412.95277680301365" y="422.7860753186806"/>
      <point x="410.787568240381" y="429.56636722967244" type="curve" smooth="yes"/>
      <point x="390.98857836715763" y="491.56636722967244" type="line"/>
      <point x="406.2302884469601" y="496.43363277032756" type="line"/>
      <point x="426.0292783201835" y="434.43363277032756" type="line" smooth="yes"/>
      <point x="428.19448688281614" y="427.65334085933574"/>
      <point x="421.0918021325249" y="421.6337101886309"/>
      <point x="414.758254884383" y="424.88127324013783" type="curve" smooth="yes"/>
      <point x="293.8429953014833" y="486.88127324013783" type="line"/>
    </contour>
    <contour>
      <point x="449.75133135905975" y="409.26976246825313" type="line"/>
      <point x="476.62138904414854" y="349.26976246825313" type="line" smooth="yes"/>
      <point x="477.5676039513507" y="347.15689411875076"/>
      <point x="477.55213502971066" y="344.73773047942143"/>
      <point x="476.57897786142246" y="342.6371352212268" type="curve" smooth="yes"/>
      <point x="449.70892017633366" y="284.6371352212268" type="line"/>
      <point x="435.191187504916" y="291.3628647787732" type="line"/>
      <point x="462.0612451900048" y="349.3628647787732" type="line" smooth="yes"/>
      <point x="463.034402358293" y="351.46346003696783"/>
      <point x="462.96504891448086" y="340.6173691822445"/>
      <point x="462.0188340072787" y="342.73023753174687" type="curve" smooth="yes"/>
      <point x="435.1487763221899" y="402.73023753174687" type="line"/>
    </contour>
    <contour>
      <point x="301.04915829171927" y="413.1662334908268" type="line"/>
      <point x="421.96441787461896" y="353.1662334908268" type="line" smooth="yes"/>
      <point x="425.558593225928" y="351.3827487443818"/>
      <point x="427.2756766012139" y="347.2127377454282"/>
      <point x="425.97945714499434" y="343.4155375376333" type="curve" smooth="yes"/>
      <point x="406.18046727177096" y="285.4155375376333" type="line"/>
      <point x="391.0383995423468" y="290.5844624623667" type="line"/>
      <point x="410.83738941557016" y="348.5844624623667" type="line" smooth="yes"/>
      <point x="412.1336088717897" y="352.3816626701616"/>
      <point x="418.4466040372546" y="337.05028176272816"/>
      <point x="414.85242868594554" y="338.8337665091732" type="curve" smooth="yes"/>
      <point x="293.93716910304585" y="398.8337665091732" type="line"/>
    </contour>
    <contour>
      <point x="406.2065006610539" y="408.50690429380074" type="line"/>
      <point x="426.00549053427727" y="348.50690429380074" type="line" smooth="yes"/>
      <point x="427.26580081812847" y="344.687587373328"/>
      <point x="425.4946476632389" y="340.5263368988418"/>
      <point x="421.86836510349264" y="338.78690062594455" type="curve" smooth="yes"/>
      <point x="300.95310552059294" y="280.78690062594455" type="line"/>
      <point x="294.03322187417217" y="295.21309937405545" type="line"/>
      <point x="414.94848145707186" y="353.21309937405545" type="line" smooth="yes"/>
      <point x="418.5747640168181" y="354.9525356469527"/>
      <point x="412.0716663101384" y="339.6737787857265"/>
      <point x="410.8113560262872" y="343.49309570619926" type="curve" smooth="yes"/>
      <point x="391.01236615306385" y="403.49309570619926" type="line"/>
    </contour>
  </outline>
</glyph>
<glyph name="quotesingle" format="2">
  <advance width="211"/>
  <unicode hex="0027"/>
  <outline>
    <contour>
      <point x="167.85712472806148" y="444.0" type="line"/>
      <point x="167.85712472806148" y="618.0" type="line"/>
      <point x="183.85712472806148" y="618.0" type="line"/>
      <point x="183.85712472806148" y="444.0" type="line"/>
    </contour>
    <contour>
      <point x="134.81879004745434" y="402.81316852873385" type="line"/>
      <point x="169.46702232559517" y="448.81316852873385" type="line" smooth="yes"/>
      <point x="174.41071881363874" y="455.3765636429335"/>
      <point x="186.57872410820525" y="439.9299143592923"/>
      <point x="179.04020133053115" y="436.6605161392091" type="curve" smooth="yes"/>
      <point x="72.97418415254901" y="390.6605161392091" type="line"/>
      <point x="66.60803094760968" y="405.3394838607909" type="line"/>
      <point x="172.6740481255918" y="451.3394838607909" type="line" smooth="yes"/>
      <point x="180.2125709032659" y="454.6088820808741"/>
      <point x="187.19092361857136" y="445.7502265854658"/>
      <point x="182.2472271305278" y="439.18683147126615" type="curve" smooth="yes"/>
      <point x="147.59899485238697" y="393.18683147126615" type="line"/>
    </contour>
    <contour>
      <point x="49.19093535261039" y="687.2219363287561" type="line"/>
      <point x="179.29858309093513" y="625.2219363287561" type="line" smooth="yes"/>
      <point x="185.15250888762628" y="622.4323739494192"/>
      <point x="169.0651451492077" y="610.2592559206616"/>
      <point x="167.97168182475082" y="616.6510039960668" type="curve" smooth="yes"/>
      <point x="157.3650801069526" y="678.6510039960668" type="line"/>
      <point x="173.13596591357393" y="681.3489960039332" type="line"/>
      <point x="183.74256763137214" y="619.3489960039332" type="line" smooth="yes"/>
      <point x="184.83603095582902" y="612.957247928528"/>
      <point x="178.269592161879" y="607.988501291907"/>
      <point x="172.41566636518783" y="610.7780636712439" type="curve" smooth="yes"/>
      <point x="42.30801862686308" y="672.7780636712439" type="line"/>
    </contour>
  </outline>
</glyph>
<glyph name="parenleft" format="2">
  <advance width="341"/>
  <unicode hex="0028"/>
  <outline>
    <contour>
      <point x="335.21745170113087" y="736.6435008621053" type="line"/>
      <point x="238.76798463603427" y="695.4290687390917"/>
      <point x="163.29720420448922" y="565.6980806736464"/>
      <point x="163.29720420448922" y="340.0" type="curve"/>
      <point x="163.29720420448922" y="340.0"/>
      <point x="163.29720420448922" y="340.0"/>
      <point x="163.29720420448922" y="340.0" type="curve"/>
      <point x="163.29720420448922" y="114.3019193263536"/>
      <point x="238.76798463603427" y="-15.429068739091612"/>
      <point x="335.21745170113087" y="-56.643500862105306" type="curve"/>
      <point x="328.93034730112134" y="-71.35649913789469" type="line"/>
      <point x="228.78711695592673" y="-28.56366165279295"/>
      <point x="147.29720420448922" y="105.658270914919"/>
      <point x="147.29720420448922" y="340.0" type="curve"/>
      <point x="147.29720420448922" y="340.0"/>
      <point x="147.29720420448922" y="340.0"/>
      <point x="147.29720420448922" y="340.0" type="curve"/>
      <point x="147.29720420448922" y="574.3417290850809"/>
      <point x="228.78711695592673" y="708.5636616527929"/>
      <point x="328.93034730112134" y="751.3564991378947" type="curve"/>
    </contour>
    <contour>
      <point x="312.86241271426434" y="835.3122049642776" type="line"/>
      <point x="339.73247039935313" y="746.3122049642776" type="line" smooth="yes"/>
      <point x="340.2615510058513" y="744.5597645888158"/>
      <point x="340.17362896517017" y="742.6788807143117"/>
      <point x="339.48337684236037" y="740.9834381276467" type="curve" smooth="yes"/>
      <point x="312.6133191572716" y="674.9834381276467" type="line"/>
      <point x="297.79436447480305" y="681.0165618723533" type="line"/>
      <point x="324.66442215989184" y="747.0165618723533" type="line" smooth="yes"/>
      <point x="325.35467428270164" y="748.7120044590184"/>
      <point x="324.94440920939724" y="739.9353546602606"/>
      <point x="324.4153286028991" y="741.6877950357224" type="curve" smooth="yes"/>
      <point x="297.5452709178103" y="830.6877950357224" type="line"/>
    </contour>
    <contour>
      <point x="312.6133191572716" y="5.016561872353374" type="line"/>
      <point x="339.48337684236037" y="-60.98343812764663" type="line" smooth="yes"/>
      <point x="340.17362896517017" y="-62.6788807143117"/>
      <point x="340.2615510058513" y="-64.55976458881581"/>
      <point x="339.73247039935313" y="-66.31220496427757" type="curve" smooth="yes"/>
      <point x="312.86241271426434" y="-155.31220496427756" type="line"/>
      <point x="297.5452709178103" y="-150.68779503572244" type="line"/>
      <point x="324.4153286028991" y="-61.68779503572243" type="line" smooth="yes"/>
      <point x="324.94440920939724" y="-59.935354660260664"/>
      <point x="325.35467428270164" y="-68.71200445901847"/>
      <point x="324.66442215989184" y="-67.01656187235338" type="curve" smooth="yes"/>
      <point x="297.79436447480305" y="-1.0165618723533738" type="line"/>
    </contour>
  </outline>
</glyph>
<glyph name="parenright" format="2">
  <advance width="341"/>
  <unicode hex="0029"/>
  <outline>
    <contour>
      <point x="147.20390453617864" y="-55.643500862105306" type="line"/>
      <point x="243.65337160127524" y="-14.429068739091612"/>
      <point x="319.12415203282023" y="115.3019193263536"/>
      <point x="319.1241520328203" y="341.0" type="curve"/>
      <point x="319.1241520328203" y="341.0"/>
      <point x="319.1241520328203" y="341.0"/>
      <point x="319.1241520328203" y="341.0" type="curve"/>
      <point x="319.12415203282035" y="566.6980806736464"/>
      <point x="243.65337160127524" y="696.4290687390917"/>
      <point x="147.20390453617864" y="737.6435008621053" type="curve"/>
      <point x="153.4910089361881" y="752.3564991378947" type="line"/>
      <point x="253.63423928138283" y="709.5636616527929"/>
      <point x="335.12415203282035" y="575.3417290850809"/>
      <point x="335.1241520328203" y="341.0" type="curve"/>
      <point x="335.1241520328203" y="341.0"/>
      <point x="335.1241520328203" y="341.0"/>
      <point x="335.1241520328203" y="341.0" type="curve"/>
      <point x="335.12415203282023" y="106.658270914919"/>
      <point x="253.63423928138283" y="-27.56366165279295"/>
      <point x="153.4910089361881" y="-70.35649913789469" type="curve"/>
    </contour>
    <contour>
      <point x="30.887913938902354" y="-145.6826320013132" type="line"/>
      <point x="145.43921249112304" y="-56.682632001313195" type="line" smooth="yes"/>
      <point x="149.92759640101985" y="-53.195406862623805"/>
      <point x="151.27854684044647" y="-72.76930911110254"/>
      <point x="146.3536407130841" y="-69.93176987310135" type="curve" smooth="yes"/>
      <point x="31.802342160863404" y="-3.9317698731013433" type="line"/>
      <point x="39.789974207061974" y="9.931769873101343" type="line"/>
      <point x="154.34127275928265" y="-56.068230126898655" type="line" smooth="yes"/>
      <point x="159.266178886645" y="-58.90576936489985"/>
      <point x="159.74408489114052" y="-65.83014285999744"/>
      <point x="155.2557009812437" y="-69.3173679986868" type="curve" smooth="yes"/>
      <point x="40.70440242902303" y="-158.3173679986868" type="line"/>
    </contour>
    <contour>
      <point x="31.802342160863404" y="685.9317698731013" type="line"/>
      <point x="146.35364071308408" y="751.9317698731013" type="line" smooth="yes"/>
      <point x="151.27854684044647" y="754.7693091111025"/>
      <point x="149.92759640101988" y="735.1954068626238"/>
      <point x="145.43921249112304" y="738.6826320013132" type="curve" smooth="yes"/>
      <point x="30.887913938902354" y="827.6826320013132" type="line"/>
      <point x="40.70440242902302" y="840.3173679986868" type="line"/>
      <point x="155.2557009812437" y="751.3173679986868" type="line" smooth="yes"/>
      <point x="159.74408489114055" y="747.8301428599974"/>
      <point x="159.26617888664506" y="740.9057693648999"/>
      <point x="154.34127275928267" y="738.0682301268987" type="curve" smooth="yes"/>
      <point x="39.789974207061974" y="672.0682301268987" type="line"/>
    </contour>
  </outline>
</glyph>
<glyph name="asterisk" format="2">
  <advance width="434"/>
  <unicode hex="002A"/>
  <outline>
    <contour>
      <point x="350.9878574386111" y="609.9988757495198" type="line"/>
      <point x="286.6411403506353" y="450.9988757495198" type="line" smooth="yes"/>
      <point x="286.63351849067305" y="450.9800422209601"/>
      <point x="286.62582491199197" y="450.96123779622394"/>
      <point x="286.61805978206814" y="450.9424628846514" type="curve" smooth="yes"/>
      <point x="220.8571291317192" y="291.9424628846514" type="line"/>
      <point x="206.07180305641526" y="298.0575371153486" type="line"/>
      <point x="271.8327337067642" y="457.0575371153486" type="line" smooth="yes"/>
      <point x="271.840498836688" y="457.0763120269212"/>
      <point x="271.80203127823484" y="456.9822907219205"/>
      <point x="271.80965313819706" y="457.0011242504802" type="curve" smooth="yes"/>
      <point x="336.1563702261729" y="616.0011242504802" type="line"/>
    </contour>
    <contour>
      <point x="409.3330444827409" y="446.0" type="line"/>
      <point x="279.2253967444162" y="446.0" type="line"/>
      <point x="279.2253967444162" y="446.0"/>
      <point x="279.2253967444162" y="446.0"/>
      <point x="279.2253967444162" y="446.0" type="curve"/>
      <point x="149.1177490060914" y="446.0" type="line"/>
      <point x="149.1177490060914" y="462.0" type="line"/>
      <point x="279.2253967444162" y="462.0" type="line"/>
      <point x="279.2253967444162" y="462.0"/>
      <point x="279.2253967444162" y="462.0"/>
      <point x="279.2253967444162" y="462.0" type="curve"/>
      <point x="409.3330444827409" y="462.0" type="line"/>
    </contour>
    <contour>
      <point x="30.57263443077143" y="394.93176987310136" type="line"/>
      <point x="145.12393298299213" y="460.93176987310136" type="line" smooth="yes"/>
      <point x="150.46551161885972" y="464.0093795940121"/>
      <point x="150.46551161885972" y="443.9906204059879"/>
      <point x="145.12393298299213" y="447.06823012689864" type="curve" smooth="yes"/>
      <point x="30.57263443077143" y="513.0682301268987" type="line"/>
      <point x="38.56026647697" y="526.9317698731013" type="line"/>
      <point x="153.11156502919067" y="460.93176987310136" type="line" smooth="yes"/>
      <point x="158.45314366505826" y="457.8541601521906"/>
      <point x="158.45314366505826" y="450.1458398478094"/>
      <point x="153.11156502919067" y="447.06823012689864" type="curve" smooth="yes"/>
      <point x="38.56026647697" y="381.06823012689864" type="line"/>
    </contour>
    <contour>
      <point x="389.87246413888636" y="523.0165618723533" type="line"/>
      <point x="416.74252182397515" y="457.01656187235335" type="line" smooth="yes"/>
      <point x="417.5298853689961" y="455.0825878340237"/>
      <point x="417.5298853689961" y="452.9174121659763"/>
      <point x="416.74252182397515" y="450.98343812764665" type="curve" smooth="yes"/>
      <point x="389.87246413888636" y="384.98343812764665" type="line"/>
      <point x="375.0535094564178" y="391.01656187235335" type="line"/>
      <point x="401.9235671415066" y="457.01656187235335" type="line" smooth="yes"/>
      <point x="402.71093068652755" y="458.950535910683"/>
      <point x="402.71093068652755" y="449.049464089317"/>
      <point x="401.9235671415066" y="450.98343812764665" type="curve" smooth="yes"/>
      <point x="375.0535094564178" y="516.9834381276467" type="line"/>
    </contour>
    <contour>
      <point x="154.28300167468538" y="212.12325857529487" type="line"/>
      <point x="206.60890348248986" y="299.12325857529487" type="line" smooth="yes"/>
      <point x="210.11136317444098" y="304.9466458972941"/>
      <point x="221.42503446085624" y="288.15833243474646"/>
      <point x="214.71275206073497" y="287.0979887278352" type="curve" smooth="yes"/>
      <point x="81.77667719766403" y="266.0979887278352" type="line"/>
      <point x="79.28010526432858" y="281.9020112721648" type="line"/>
      <point x="212.2161801273995" y="302.9020112721648" type="line" smooth="yes"/>
      <point x="218.92846252752076" y="303.9623549790761"/>
      <point x="223.82248839759572" y="296.70012874670437"/>
      <point x="220.3200287056446" y="290.87674142470513" type="curve" smooth="yes"/>
      <point x="167.99412689784012" y="203.87674142470513" type="line"/>
    </contour>
    <contour>
      <point x="260.06580400959626" y="705.723762972494" type="line"/>
      <point x="349.16125843910123" y="618.723762972494" type="line" smooth="yes"/>
      <point x="355.3589350325365" y="612.6718508173627"/>
      <point x="339.39995770036643" y="601.9714031218725"/>
      <point x="336.15473263282774" y="610.0029254029386" type="curve" smooth="yes"/>
      <point x="327.66945125858916" y="631.0029254029386" type="line"/>
      <point x="342.5042136577177" y="636.9970745970614" type="line"/>
      <point x="350.98949503195627" y="615.9970745970614" type="line" smooth="yes"/>
      <point x="354.23472009949495" y="607.9655523159954"/>
      <point x="344.18064581911807" y="601.2243248723747"/>
      <point x="337.9829692256828" y="607.276237027506" type="curve" smooth="yes"/>
      <point x="248.8875147961778" y="694.276237027506" type="line"/>
    </contour>
    <contour>
      <point x="337.59366435711314" y="291.9424628846514" type="line"/>
      <point x="271.8327337067642" y="450.9424628846514" type="line" smooth="yes"/>
      <point x="271.8249685768404" y="450.96123779622394"/>
      <point x="271.8172749981593" y="450.9800422209602"/>
      <point x="271.80965313819706" y="450.9988757495198" type="curve" smooth="yes"/>
      <point x="207.46293605022123" y="609.9988757495198" type="line"/>
      <point x="222.29442326265945" y="616.0011242504802" type="line"/>
      <point x="286.6411403506353" y="457.0011242504802" type="line" smooth="yes"/>
      <point x="286.6487622105975" y="456.98229072192055"/>
      <point x="286.6102946521443" y="457.0763120269212"/>
      <point x="286.61805978206814" y="457.0575371153486" type="curve" smooth="yes"/>
      <point x="352.3789904324171" y="298.0575371153486" type="line"/>
    </contour>
    <contour>
      <point x="329.08366482096227" y="276.99707459706144" type="line"/>
      <point x="337.56894619520085" y="297.99707459706144" type="line" smooth="yes"/>
      <point x="340.81417126273925" y="306.0285968781268"/>
      <point x="356.7731485949091" y="295.3281491826368"/>
      <point x="350.57547200147434" y="289.276237027506" type="curve" smooth="yes"/>
      <point x="261.4800175719693" y="202.27623702750603" type="line"/>
      <point x="250.30172835855086" y="213.72376297249397" type="line"/>
      <point x="339.3971827880559" y="300.723762972494" type="line" smooth="yes"/>
      <point x="345.59485938149066" y="306.7756751276248"/>
      <point x="355.6489336618678" y="300.0344476840039"/>
      <point x="352.4037085943294" y="292.00292540293856" type="curve" smooth="yes"/>
      <point x="343.9184272200908" y="271.00292540293856" type="line"/>
    </contour>
    <contour>
      <point x="83.19089076003714" y="641.9020112721648" type="line"/>
      <point x="216.12696562310808" y="620.9020112721648" type="line" smooth="yes"/>
      <point x="222.83924802322895" y="619.8416675652536"/>
      <point x="211.5255767368139" y="603.0533541027063"/>
      <point x="208.02311704486297" y="608.8767414247052" type="curve" smooth="yes"/>
      <point x="155.69721523705846" y="695.8767414247052" type="line"/>
      <point x="169.4083404602132" y="704.1232585752948" type="line"/>
      <point x="221.7342422680177" y="617.1232585752948" type="line" smooth="yes"/>
      <point x="225.23670195996863" y="611.2998712532959"/>
      <point x="220.34267608989347" y="604.037645020924"/>
      <point x="213.6303936897726" y="605.0979887278352" type="curve" smooth="yes"/>
      <point x="80.69431882670169" y="626.0979887278352" type="line"/>
    </contour>
    <contour>
      <point x="138.76799018662257" y="521.3811319514497" type="line"/>
      <point x="282.3106667674917" y="461.3811319514497" type="line" smooth="yes"/>
      <point x="285.1300286858613" y="460.2026551448891"/>
      <point x="287.031793909122" y="457.5210470768264"/>
      <point x="287.21154392017013" y="454.47058823529414" type="curve" smooth="yes"/>
      <point x="290.7470778261029" y="394.47058823529414" type="line"/>
      <point x="274.774783474595" y="393.52941176470586" type="line"/>
      <point x="271.2392495686622" y="453.52941176470586" type="line" smooth="yes"/>
      <point x="271.05949955761406" y="456.5798706062381"/>
      <point x="278.9594886397103" y="445.44039124198974"/>
      <point x="276.14012672134066" y="446.6188680485503" type="curve" smooth="yes"/>
      <point x="132.5974501404715" y="506.6188680485503" type="line"/>
    </contour>
    <contour>
      <point x="131.2089156148565" y="401.39181324144795" type="line"/>
      <point x="276.1658057580987" y="461.39181324144795" type="line" smooth="yes"/>
      <point x="279.0613564980942" y="462.5903284981429"/>
      <point x="271.11966496248016" y="451.15083078990875"/>
      <point x="271.2303920617936" y="454.28266610133505" type="curve" smooth="yes"/>
      <point x="273.3517124053533" y="514.282666101335" type="line"/>
      <point x="289.3417217705984" y="513.717333898665" type="line"/>
      <point x="287.2204014270387" y="453.71733389866495" type="line" smooth="yes"/>
      <point x="287.10967432772526" y="450.58549858723865"/>
      <point x="285.1805384707291" y="447.806702015247"/>
      <point x="282.28498773073363" y="446.60818675855205" type="curve" smooth="yes"/>
      <point x="137.3280975874914" y="386.60818675855205" type="line"/>
    </contour>
    <contour>
      <point x="215.43618224410082" y="580.0116507051342" type="line"/>
      <point x="286.14686036275555" y="458.01165070513423" type="line" smooth="yes"/>
      <point x="287.60583747378627" y="455.4944183396482"/>
      <point x="287.58315648447524" y="452.3835455095147"/>
      <point x="286.08763076548263" y="449.8878540589957" type="curve" smooth="yes"/>
      <point x="215.37695264682785" y="331.8878540589957" type="line"/>
      <point x="201.652484604695" y="340.1121459410043" type="line"/>
      <point x="272.3631627233497" y="458.1121459410043" type="line" smooth="yes"/>
      <point x="273.8586884423423" y="460.60783739152333"/>
      <point x="273.7629102371075" y="447.4711169293797"/>
      <point x="272.3039331260768" y="449.98834929486577" type="curve" smooth="yes"/>
      <point x="201.59325500742202" y="571.9883492948658" type="line"/>
    </contour>
  </outline>
</glyph>
<glyph name="comma" format="2">
  <advance width="194"/>
  <unicode hex="002C"/>
  <outline>
    <contour>
      <point x="12.795132191060421" y="-123.76214480118024" type="line"/>
      <point x="94.8370578671687" y="-57.883654408960126"/>
      <point x="143.51174087596556" y="22.70343780274412"/>
      <point x="167.84621035616718" y="101.3643218531562" type="curve"/>
      <point x="183.1314950672464" y="96.6356781468438" type="line"/>
      <point x="157.9659426231065" y="15.288328270012004"/>
      <point x="107.65681134911004" y="-68.10944967697311"/>
      <point x="22.812948823152933" y="-136.23785519881974" type="curve"/>
    </contour>
    <contour>
      <point x="45.9342117984262" y="168.2502347853849" type="line"/>
      <point x="178.87028666149715" y="106.25023478538489" type="line" smooth="yes"/>
      <point x="184.9386462011264" y="103.42001513398813"/>
      <point x="169.26846755004766" y="90.62492153959303"/>
      <point x="167.7088793041579" y="97.13666595108863" type="curve" smooth="yes"/>
      <point x="152.8596368992404" y="159.13666595108862" type="line"/>
      <point x="168.41958371433816" y="162.86333404891138" type="line"/>
      <point x="183.26882611925566" y="100.86333404891137" type="line" smooth="yes"/>
      <point x="184.82841436514542" y="94.35158963741577"/>
      <point x="178.17577830154568" y="88.91954556321835"/>
      <point x="172.10741876191642" y="91.74976521461511" type="curve" smooth="yes"/>
      <point x="39.17134389884546" y="153.7497652146151" type="line"/>
    </contour>
  </outline>
</glyph>
<glyph name="hyphen" format="2">
  <advance width="240"/>
  <unicode hex="002D"/>
  <outline>
    <contour>
      <point x="244.7652665066635" y="327.3798352576467" type="line"/>
      <point x="141.52767645342757" y="294.3798352576467" type="line"/>
      <point x="136.65608973064596" y="309.6201647423533" type="line"/>
      <point x="239.89367978388188" y="342.6201647423533" type="line"/>
    </contour>
    <contour>
      <point x="20.117801281812717" y="232.66625743972773" type="line"/>
      <point x="134.6690998340334" y="308.6662574397277" type="line" smooth="yes"/>
      <point x="139.97173154511557" y="312.18433200663037"/>
      <point x="141.7963470275222" y="292.1419765397256"/>
      <point x="135.94559679885882" y="294.6446697857023" type="curve" smooth="yes"/>
      <point x="21.394298246638137" y="343.6446697857023" type="line"/>
      <point x="27.686870832994025" y="358.3553302142977" type="line"/>
      <point x="142.23816938521472" y="309.3553302142977" type="line" smooth="yes"/>
      <point x="148.0889196138781" y="306.85263696832095"/>
      <point x="148.8172980611223" y="298.85181712717497"/>
      <point x="143.51466635004013" y="295.3337425602723" type="curve" smooth="yes"/>
      <point x="28.963367797819444" y="219.33374256027227" type="line"/>
    </contour>
    <contour>
      <point x="223.0018877928404" y="413.6666666666667" type="line"/>
      <point x="249.8719454779292" y="337.6666666666667" type="line" smooth="yes"/>
      <point x="250.63111115773768" y="335.51942186572"/>
      <point x="250.43909367397566" y="333.1503925700217"/>
      <point x="249.34402733931427" y="331.15343926879433" type="curve" smooth="yes"/>
      <point x="222.47396965422547" y="282.15343926879433" type="line"/>
      <point x="208.4448612661423" y="289.84656073120567" type="line"/>
      <point x="235.3149189512311" y="338.84656073120567" type="line" smooth="yes"/>
      <point x="236.4099852858925" y="340.84351403243306"/>
      <point x="235.54616649242467" y="330.18608853238663"/>
      <point x="234.78700081261618" y="332.3333333333333" type="curve" smooth="yes"/>
      <point x="207.9169431275274" y="408.3333333333333" type="line"/>
    </contour>
  </outline>
</glyph>
<glyph name="period" format="2">
  <advance width="191"/>
  <unicode hex="002E"/>
  <outline>
    <contour>
      <point x="42.835120788004446" y="167.7731902523619" type="line"/>
      <point x="170.114341401583" y="87.7731902523619" type="line" smooth="yes"/>
      <point x="172.84380181448822" y="86.05761694841034"/>
      <point x="174.27681409379505" y="82.87135696525307"/>
      <point x="173.74930026904573" y="79.6909678268698" type="curve" smooth="yes"/>
      <point x="160.31427142650134" y="-1.309032173130204" type="line"/>
      <point x="144.52992034453283" y="1.309032173130204" type="line"/>
      <point x="157.96494918707722" y="82.3090321731302" type="line" smooth="yes"/>
      <point x="158.49246301182654" y="85.48942131151348"/>
      <point x="164.32936846744516" y="72.51123644368654"/>
      <point x="161.59990805453995" y="74.2268097476381" type="curve" smooth="yes"/>
      <point x="34.32068744096139" y="154.2268097476381" type="line"/>
    </contour>
    <contour>
      <point x="34.28274421332529" y="6.7491926497535655" type="line"/>
      <point x="161.56196482690385" y="87.74919264975357" type="line" smooth="yes"/>
      <point x="164.27293104493128" y="89.47444098645492"/>
      <point x="158.49980148983136" y="76.5060469042528"/>
      <point x="157.96760571258466" y="79.67505105591583" type="curve" smooth="yes"/>
      <point x="144.53257687004026" y="159.67505105591584" type="line"/>
      <point x="160.3116149009939" y="162.32494894408416" type="line"/>
      <point x="173.7466437435383" y="82.32494894408417" type="line" smooth="yes"/>
      <point x="174.278839520785" y="79.15594479242114"/>
      <point x="172.86325084724655" y="75.97605568694779"/>
      <point x="170.1522846292191" y="74.25080735024643" type="curve" smooth="yes"/>
      <point x="42.87306401564055" y="-6.7491926497535655" type="line"/>
    </contour>
  </outline>
</glyph>
<glyph name="slash" format="2">
  <advance width="346"/>
  <unicode hex="002F"/>
  <outline>
    <contour>
      <point x="342.673360966047" y="685.9997729868674" type="line"/>
      <point x="161.65402498229085" y="-15.000227013132683" type="line"/>
      <point x="146.16220883363556" y="-10.999772986867317" type="line"/>
      <point x="327.18154481739174" y="690.0002270131326" type="line"/>
    </contour>
    <contour>
      <point x="110.25763483260124" y="-70.91921455431266" type="line"/>
      <point x="147.0271874543017" y="-8.91921455431266" type="line" smooth="yes"/>
      <point x="151.0204895359251" y="-2.1857975990426715"/>
      <point x="164.34454217078286" y="-17.045539907378878"/>
      <point x="157.2171006745355" y="-20.283586097010257" type="curve" smooth="yes"/>
      <point x="20.74549190553182" y="-82.28358609701026" type="line"/>
      <point x="14.127524372387258" y="-67.71641390298974" type="line"/>
      <point x="150.59913314139092" y="-5.716413902989742" type="line" smooth="yes"/>
      <point x="157.7265746376383" y="-2.47836771335836"/>
      <point x="164.7823484432481" y="-10.347368490417345"/>
      <point x="160.7890463616247" y="-17.08078544568734" type="curve" smooth="yes"/>
      <point x="124.01949373992426" y="-79.08078544568734" type="line"/>
    </contour>
    <contour>
      <point x="233.6258785640441" y="756.8947823767118" type="line"/>
      <point x="338.9847889608397" y="694.8947823767118" type="line" smooth="yes"/>
      <point x="344.60112123404707" y="691.5897690690813"/>
      <point x="327.55265906121014" y="680.7834414625689"/>
      <point x="326.96054507079924" y="687.2731026393212" type="curve" smooth="yes"/>
      <point x="321.3036908213069" y="749.2731026393212" type="line"/>
      <point x="337.23750646314716" y="750.7268973606788" type="line"/>
      <point x="342.8943607126395" y="688.7268973606788" type="line" smooth="yes"/>
      <point x="343.4864747030504" y="682.2372361839265"/>
      <point x="336.48644909580645" y="677.8002043156578"/>
      <point x="330.8701168225991" y="681.1052176232882" type="curve" smooth="yes"/>
      <point x="225.51120642580352" y="743.1052176232882" type="line"/>
    </contour>
  </outline>
</glyph>
<glyph name="zero" format="2">
  <advance width="456"/>
  <unicode hex="0030"/>
  <outline>
    <contour>
      <point x="298.71067811865476" y="642.0" type="curve"/>
      <point x="298.71067811865476" y="642.0"/>
      <point x="298.71067811865476" y="642.0"/>
      <point x="298.71067811865476" y="642.0" type="curve"/>
      <point x="394.5549964386346" y="642.0"/>
      <point x="455.9102089490164" y="519.3782302161684"/>
      <point x="455.91020894901635" y="339.0" type="curve"/>
      <point x="455.91020894901635" y="339.0"/>
      <point x="455.91020894901635" y="339.0"/>
      <point x="455.91020894901635" y="339.0" type="curve"/>
      <point x="455.9102089490163" y="158.71191382691813"/>
      <point x="394.50709822857965" y="37.999999999999986"/>
      <point x="298.71067811865476" y="38.0" type="curve"/>
      <point x="298.71067811865476" y="38.0"/>
      <point x="298.71067811865476" y="38.0"/>
      <point x="298.71067811865476" y="38.0" type="curve"/>
      <point x="202.86635979867486" y="38.000000000000014"/>
      <point x="141.51114728829322" y="160.62176978383158"/>
      <point x="141.51114728829322" y="341.0" type="curve"/>
      <point x="141.51114728829322" y="341.0"/>
      <point x="141.51114728829322" y="341.0"/>
      <point x="141.51114728829322" y="341.0" type="curve"/>
      <point x="141.51114728829322" y="521.2880861730819"/>
      <point x="202.91425800872983" y="642.0"/>
    </contour>
    <contour>
      <point x="298.71067811865476" y="626.0" type="curve"/>
      <point x="210.7718094764162" y="626.0"/>
      <point x="157.51114728829322" y="506.50023799994443"/>
      <point x="157.51114728829322" y="341.0" type="curve"/>
      <point x="157.51114728829322" y="341.0"/>
      <point x="157.51114728829322" y="341.0"/>
      <point x="157.51114728829322" y="341.0" type="curve"/>
      <point x="157.51114728829322" y="175.58251211905556"/>
      <point x="210.81577891073732" y="54.000000000000014"/>
      <point x="298.71067811865476" y="54.0" type="curve"/>
      <point x="298.71067811865476" y="54.0"/>
      <point x="298.71067811865476" y="54.0"/>
      <point x="298.71067811865476" y="54.0" type="curve"/>
      <point x="386.64954676089326" y="53.999999999999986"/>
      <point x="439.9102089490163" y="173.4997620000556"/>
      <point x="439.91020894901635" y="339.0" type="curve"/>
      <point x="439.91020894901635" y="339.0"/>
      <point x="439.91020894901635" y="339.0"/>
      <point x="439.91020894901635" y="339.0" type="curve"/>
      <point x="439.9102089490164" y="504.41748788094446"/>
      <point x="386.60557732657213" y="626.0"/>
      <point x="298.71067811865476" y="626.0" type="curve"/>
      <point x="298.71067811865476" y="626.0"/>
      <point x="298.71067811865476" y="626.0"/>
    </contour>
  </outline>
</glyph>
<glyph name="one" format="2">
  <advance width="278"/>
  <unicode hex="0031"/>
  <outline>
    <contour>
      <point x="235.99608692977344" y="694.2569829337356" type="line"/>
      <point x="248.72400899113129" y="614.2569829337356" type="line" smooth="yes"/>
      <point x="249.22611716539416" y="611.1010354234202"/>
      <point x="247.80189721727038" y="607.9490232847866"/>
      <point x="245.1016062146572" y="606.240062838277" type="curve" smooth="yes"/>
      <point x="117.11527881989205" y="525.240062838277" type="line"/>
      <point x="108.5588193723034" y="538.759937161723" type="line"/>
      <point x="236.54514676706853" y="619.759937161723" type="line" smooth="yes"/>
      <point x="239.2454377696817" y="621.4688976082325"/>
      <point x="233.42485216485733" y="608.587069555949"/>
      <point x="232.92274399059445" y="611.7430170662644" type="curve" smooth="yes"/>
      <point x="220.1948219292366" y="691.7430170662644" type="line"/>
    </contour>
    <contour>
      <point x="227.16652224137044" y="9.797174393178826e-16" type="line"/>
      <point x="227.16652224137044" y="62.0" type="line" smooth="yes"/>
      <point x="227.16652224137044" y="67.72880309791766"/>
      <point x="243.56187619865648" y="56.86802018061323"/>
      <point x="238.28679058868192" y="54.63359480881169" type="curve" smooth="yes"/>
      <point x="91.91568688306658" y="-7.366405191188315" type="line"/>
      <point x="85.67515018844365" y="7.366405191188315" type="line"/>
      <point x="232.04625389405896" y="69.36640519118832" type="line" smooth="yes"/>
      <point x="237.3213395040335" y="71.60083056298986"/>
      <point x="243.16652224137044" y="67.72880309791763"/>
      <point x="243.16652224137044" y="62.0" type="curve" smooth="yes"/>
      <point x="243.16652224137044" y="-9.797174393178826e-16" type="line"/>
    </contour>
    <contour>
      <point x="131.4745811750216" y="581.2954347161492" type="line"/>
      <point x="162.96883145923425" y="595.4671243171014"/>
      <point x="205.76417751214413" y="611.5999224762227"/>
      <point x="238.68998462745742" y="620.710294362549" type="curve" smooth="yes"/>
      <point x="243.96795379400504" y="622.1706765406809"/>
      <point x="249.1198980021575" y="618.0157158454061"/>
      <point x="248.8106071291716" y="612.5481740042201" type="curve" smooth="yes"/>
      <point x="245.98622625030353" y="562.6197022016903"/>
      <point x="244.58073580374355" y="505.7754014599442"/>
      <point x="244.58073580374355" y="349.0" type="curve" smooth="yes"/>
      <point x="244.58073580374355" y="348.98685990400213"/>
      <point x="244.5807034295955" y="348.9737198279456"/>
      <point x="244.58063868159422" y="348.96057989147204" type="curve" smooth="yes"/>
      <point x="243.16642511922112" y="61.960579891472044" type="line"/>
      <point x="227.16661936351977" y="62.039420108527956" type="line"/>
      <point x="228.58083292589288" y="349.03942010852796" type="line" smooth="yes"/>
      <point x="228.58089767389416" y="349.05256004500154"/>
      <point x="228.58073580374355" y="348.98685990400213"/>
      <point x="228.58073580374355" y="349.0" type="curve" smooth="yes"/>
      <point x="228.58073580374355" y="506.2614648788215"/>
      <point x="230.0030083179008" y="563.3685569260916"/>
      <point x="232.83614585255415" y="613.4518259957799" type="curve" smooth="yes"/>
      <point x="233.14543672554007" y="618.919367836966"/>
      <point x="248.23473752081594" y="606.7500878155829"/>
      <point x="242.95676835426832" y="605.289705637451" type="curve" smooth="yes"/>
      <point x="210.83048170262012" y="596.400556232603"/>
      <point x="168.76962903057716" y="580.5321310247258"/>
      <point x="138.04013745073976" y="566.7045652838508" type="curve"/>
    </contour>
    <contour>
      <point x="14.77261871434662" y="473.87177209446634" type="line"/>
      <point x="129.3239172665673" y="579.8717720944663" type="line" smooth="yes"/>
      <point x="133.45030105445642" y="583.6901197434618"/>
      <point x="136.29458455868695" y="564.3437191177348"/>
      <point x="131.24382293527796" y="566.8128543827704" type="curve" smooth="yes"/>
      <point x="16.692524383057293" y="622.8128543827704" type="line"/>
      <point x="23.719597138262724" y="637.1871456172296" type="line"/>
      <point x="138.2708956904834" y="581.1871456172296" type="line" smooth="yes"/>
      <point x="143.3216573138924" y="578.718010352194"/>
      <point x="144.3171851470832" y="571.9465755545291"/>
      <point x="140.19080135919407" y="568.1282279055337" type="curve" smooth="yes"/>
      <point x="25.639502806973397" y="462.12822790553366" type="line"/>
    </contour>
  </outline>
</glyph>
<glyph name="two" format="2">
  <advance width="367"/>
  <unicode hex="0032"/>
  <outline>
    <contour>
      <point x="145.9431083155056" y="616.3046538362496" type="line"/>
      <point x="173.9031777315049" y="628.7914462698284"/>
      <point x="201.88410927095407" y="636.0"/>
      <point x="229.10838738653229" y="636.0" type="curve"/>
      <point x="229.10838738653229" y="636.0"/>
      <point x="229.10838738653229" y="636.0"/>
      <point x="229.10838738653229" y="636.0" type="curve"/>
      <point x="308.25741144128193" y="636.0"/>
      <point x="357.31654018824537" y="582.7021165510658"/>
      <point x="357.31654018824537" y="494.0" type="curve"/>
      <point x="357.31654018824537" y="494.0"/>
      <point x="357.31654018824537" y="494.0"/>
      <point x="357.31654018824537" y="494.0" type="curve"/>
      <point x="357.31654018824537" y="415.3097243653763"/>
      <point x="322.16336738417465" y="359.7405114429715"/>
      <point x="279.51638201342604" y="298.43167468268604" type="curve"/>
      <point x="279.51638201342604" y="298.43167468268604"/>
      <point x="279.51638201342604" y="298.43167468268604"/>
      <point x="279.51638201342604" y="298.43167468268604" type="curve"/>
      <point x="236.14112149870155" y="236.07587759143146"/>
      <point x="184.9661492668868" y="167.93688441614043"/>
      <point x="158.37426282374577" y="63.03424535194652" type="curve" smooth="yes"/>
      <point x="157.1682029705914" y="58.27644594814007"/>
      <point x="146.48383976778945" y="73.42539394759486"/>
      <point x="151.3704518819678" y="72.96467973919967" type="curve" smooth="yes"/>
      <point x="193.33664740815624" y="69.00806888091053"/>
      <point x="290.371471430207" y="71.0234503458384"/>
      <point x="350.52301835107704" y="77.94751934784438" type="curve"/>
      <point x="352.352702712533" y="62.052480652155616" type="line"/>
      <point x="290.8880021322872" y="54.9772539989638"/>
      <point x="192.75096670971521" y="52.99233360183359"/>
      <point x="149.8686174676832" y="57.03532026080033" type="curve" smooth="yes"/>
      <point x="144.98200535350486" y="57.496034469195514"/>
      <point x="141.65874667275088" y="62.207955244247046"/>
      <point x="142.86480652590524" y="66.96575464805349" type="curve" smooth="yes"/>
      <point x="170.02362771252558" y="174.1049011106724"/>
      <point x="222.08161953181968" y="243.8831126577443"/>
      <point x="266.38163362677045" y="307.56832531731396" type="curve"/>
      <point x="266.38163362677045" y="307.56832531731396"/>
      <point x="266.38163362677045" y="307.56832531731396"/>
      <point x="266.38163362677045" y="307.56832531731396" type="curve"/>
      <point x="307.18946994427347" y="366.2332216418798"/>
      <point x="341.31654018824537" y="418.7032384596295"/>
      <point x="341.31654018824537" y="494.0" type="curve"/>
      <point x="341.31654018824537" y="494.0"/>
      <point x="341.31654018824537" y="494.0"/>
      <point x="341.31654018824537" y="494.0" type="curve"/>
      <point x="341.31654018824537" y="573.3290585559821"/>
      <point x="299.89381853544273" y="620.0"/>
      <point x="229.10838738653229" y="620.0" type="curve"/>
      <point x="229.10838738653229" y="620.0"/>
      <point x="229.10838738653229" y="620.0"/>
      <point x="229.10838738653229" y="620.0" type="curve"/>
      <point x="204.00475876979255" y="620.0"/>
      <point x="178.24963897524006" y="613.209473316584"/>
      <point x="152.46753390939924" y="601.6953461637504" type="curve"/>
    </contour>
    <contour>
      <point x="29.139341191854356" y="505.7955404756823" type="line"/>
      <point x="143.69063974407504" y="614.7955404756823" type="line" smooth="yes"/>
      <point x="147.7465438356823" y="618.6548904051259"/>
      <point x="150.78973820967104" y="599.364930600133"/>
      <point x="145.74268579891628" y="601.7881932440301" type="curve" smooth="yes"/>
      <point x="31.19138724669559" y="656.7881932440301" type="line"/>
      <point x="38.116657873767885" y="671.2118067559699" type="line"/>
      <point x="152.66795642598856" y="616.2118067559699" type="line" smooth="yes"/>
      <point x="157.71500883674332" y="613.7885441120727"/>
      <point x="158.77590657243707" y="607.0638094537613"/>
      <point x="154.7200024808298" y="603.2044595243177" type="curve" smooth="yes"/>
      <point x="40.16870392860912" y="494.2044595243177" type="line"/>
    </contour>
    <contour>
      <point x="346.6405395687997" y="167.05145909041198" type="line"/>
      <point x="359.3684616301575" y="71.05145909041198" type="line" smooth="yes"/>
      <point x="359.5440279065425" y="69.72725530823081"/>
      <point x="359.3852174042991" y="68.38016731871248"/>
      <point x="358.9065191063814" y="67.13309590387" type="curve" smooth="yes"/>
      <point x="332.0364614212926" y="-2.8669040961299967" type="line"/>
      <point x="317.0991442721399" y="2.8669040961299967" type="line"/>
      <point x="343.9692019572287" y="72.86690409613" type="line" smooth="yes"/>
      <point x="344.4479002551464" y="74.11397551097248"/>
      <point x="343.6828257098375" y="67.62433712740685"/>
      <point x="343.50725943345253" y="68.94854090958802" type="curve" smooth="yes"/>
      <point x="330.7793373720947" y="164.94854090958802" type="line"/>
    </contour>
    <contour>
      <point x="15.55319818419235" y="7.1719380663759855" type="line"/>
      <point x="147.07505948489018" y="72.17193806637599" type="line" smooth="yes"/>
      <point x="149.77313791327373" y="73.50536732376744"/>
      <point x="142.58462422062055" y="62.08488854705621"/>
      <point x="142.6200901725174" y="65.09427435755514" type="curve" smooth="yes"/>
      <point x="143.32719695370398" y="125.09427435755514" type="line"/>
      <point x="159.3260859583202" y="124.90572564244486" type="line"/>
      <point x="158.6189791771336" y="64.90572564244486" type="line" smooth="yes"/>
      <point x="158.58351322523677" y="61.89633983194593"/>
      <point x="156.8620882931444" y="59.16149119101547"/>
      <point x="154.16400986476083" y="57.828061933624014" type="curve" smooth="yes"/>
      <point x="22.64214856406301" y="-7.1719380663759855" type="line"/>
    </contour>
  </outline>
</glyph>
<glyph name="three" format="2">
  <advance width="369"/>
  <unicode hex="0033"/>
  <outline>
    <contour>
      <point x="160.4675705210252" y="615.9306010983526" type="line"/>
      <point x="205.9800371832352" y="621.9647586868603"/>
      <point x="260.7782796135873" y="625.0"/>
      <point x="339.00283168926063" y="625.0" type="curve" smooth="yes"/>
      <point x="344.92236468865633" y="625.0"/>
      <point x="348.7917074525899" y="618.7940964915633"/>
      <point x="346.18622728395883" y="613.4788030827472" type="curve" smooth="yes"/>
      <point x="223.1496473574995" y="362.47880308274716" type="line" smooth="yes"/>
      <point x="220.67881576219068" y="357.4381986479262"/>
      <point x="211.08398667275043" y="374.4661791518478"/>
      <point x="216.67549950609026" y="373.96849845570915" type="curve" smooth="yes"/>
      <point x="322.20970476540776" y="364.5752737050244"/>
      <point x="373.8728893743494" y="297.93224750684846"/>
      <point x="373.8728893743494" y="204.0" type="curve"/>
      <point x="373.8728893743494" y="204.0"/>
      <point x="373.8728893743494" y="204.0"/>
      <point x="373.8728893743494" y="204.0" type="curve"/>
      <point x="373.8728893743494" y="102.15140464512035"/>
      <point x="311.21236788258574" y="40.0"/>
      <point x="226.57285348059958" y="40.0" type="curve"/>
      <point x="226.57285348059958" y="40.0"/>
      <point x="226.57285348059958" y="40.0"/>
      <point x="226.57285348059958" y="40.0" type="curve"/>
      <point x="201.31236778463563" y="40.0"/>
      <point x="176.01396233203596" y="47.277249384413686"/>
      <point x="151.49643209771807" y="59.8856216656009" type="curve"/>
      <point x="158.81370506379847" y="74.1143783343991" type="line"/>
      <point x="180.96086378128535" y="62.72499207029019"/>
      <point x="203.75456874137066" y="56.0"/>
      <point x="226.57285348059958" y="56.0" type="curve"/>
      <point x="226.57285348059958" y="56.0"/>
      <point x="226.57285348059958" y="56.0"/>
      <point x="226.57285348059958" y="56.0" type="curve"/>
      <point x="303.15146806689427" y="56.0"/>
      <point x="357.8728893743494" y="111.85126326700896"/>
      <point x="357.8728893743494" y="204.0" type="curve"/>
      <point x="357.8728893743494" y="204.0"/>
      <point x="357.8728893743494" y="204.0"/>
      <point x="357.8728893743494" y="204.0" type="curve"/>
      <point x="357.8728893743494" y="290.09838971095377"/>
      <point x="311.98975952597476" y="349.4216625731954"/>
      <point x="215.2570040195124" y="358.03150154429085" type="curve" smooth="yes"/>
      <point x="209.66549118617257" y="358.5291822404295"/>
      <point x="206.31202457279434" y="364.48059248243186"/>
      <point x="208.78285616810317" y="369.52119691725284" type="curve" smooth="yes"/>
      <point x="331.81943609456243" y="620.5211969172528" type="line" smooth="yes"/>
      <point x="334.4249162631935" y="625.836490326069"/>
      <point x="344.92236468865633" y="609.0"/>
      <point x="339.00283168926063" y="609.0" type="curve" smooth="yes"/>
      <point x="261.6801164322582" y="609.0"/>
      <point x="207.5582503059233" y="606.0339897705186"/>
      <point x="162.57048870184917" y="600.0693989016474" type="curve"/>
    </contour>
    <contour>
      <point x="42.23697870454677" y="530.4513550637666" type="line"/>
      <point x="156.78827725676746" y="614.4513550637666" type="line" smooth="yes"/>
      <point x="161.34253505442575" y="617.7909737310216"/>
      <point x="162.04326648014754" y="598.2214779932909"/>
      <point x="157.26181293791566" y="601.2268097476381" type="curve" smooth="yes"/>
      <point x="42.71051438569497" y="673.2268097476381" type="line"/>
      <point x="51.22494773273804" y="686.7731902523619" type="line"/>
      <point x="165.77624628495872" y="614.7731902523619" type="line" smooth="yes"/>
      <point x="170.5576998271906" y="611.7678584980148"/>
      <point x="170.80403976376522" y="604.8882636034883"/>
      <point x="166.24978196610692" y="601.5486449362334" type="curve" smooth="yes"/>
      <point x="51.69848341388624" y="517.5486449362334" type="line"/>
    </contour>
    <contour>
      <point x="37.24450446619768" y="21.260532685807373" type="line"/>
      <point x="151.79580301841838" y="74.26053268580738" type="line" smooth="yes"/>
      <point x="156.9070088916197" y="76.62535887899259"/>
      <point x="153.67615012599717" y="57.32892825968137"/>
      <point x="149.61400783261857" y="61.22967541767143" type="curve" smooth="yes"/>
      <point x="35.06270928039787" y="171.22967541767142" type="line"/>
      <point x="46.144830776677296" y="182.77032458232858" type="line"/>
      <point x="160.69612932889797" y="72.77032458232857" type="line" smooth="yes"/>
      <point x="164.75827162227654" y="68.86957742433853"/>
      <point x="163.62554001629945" y="62.104293507377825"/>
      <point x="158.51433414309815" y="59.73946731419262" type="curve" smooth="yes"/>
      <point x="43.96303559087748" y="6.739467314192627" type="line"/>
    </contour>
    <contour>
      <point x="182.48104100768896" y="560.3834914372649" type="line"/>
      <point x="335.92321252516973" y="624.3834914372649" type="line" smooth="yes"/>
      <point x="338.3749075827467" y="625.4060817860143"/>
      <point x="330.63521618894526" y="615.9804361150058"/>
      <point x="331.16126321870377" y="618.5842360687627" type="curve" smooth="yes"/>
      <point x="343.88918528006167" y="681.5842360687627" type="line"/>
      <point x="359.5723222211754" y="678.4157639312373" type="line"/>
      <point x="346.8444001598175" y="615.4157639312373" type="line" smooth="yes"/>
      <point x="346.318353130059" y="612.8119639774803"/>
      <point x="344.5341459109285" y="610.6390989114846"/>
      <point x="342.08245085335153" y="609.6165085627351" type="curve" smooth="yes"/>
      <point x="188.6402793358707" y="545.6165085627351" type="line"/>
    </contour>
    <contour>
      <point x="63.34836454473161" y="319.5265613377648" type="line"/>
      <point x="213.25500215627963" y="373.5265613377648" type="line" smooth="yes"/>
      <point x="216.14693895884682" y="374.56830698576806"/>
      <point x="207.69314796535275" y="363.76297384418103"/>
      <point x="208.0084502378457" y="366.82060641565477" type="curve" smooth="yes"/>
      <point x="212.95819770615157" y="414.82060641565477" type="line"/>
      <point x="228.87380075606285" y="413.17939358434523" type="line"/>
      <point x="223.92405328775698" y="365.17939358434523" type="line" smooth="yes"/>
      <point x="223.60875101526403" y="362.1217610128715"/>
      <point x="221.56943817189023" y="359.51518431023845"/>
      <point x="218.67750136932304" y="358.4734386622352" type="curve" smooth="yes"/>
      <point x="68.77086375777499" y="304.4734386622352" type="line"/>
    </contour>
  </outline>
</glyph>
<glyph name="four" format="2">
  <advance width="409"/>
  <unicode hex="0034"/>
  <outline>
    <contour>
      <point x="335.4511610181284" y="0.2735586793466092" type="line"/>
      <point x="337.572481361688" y="62.27355867934661" type="line" smooth="yes"/>
      <point x="337.7745641773931" y="68.17984935899453"/>
      <point x="354.21991960993694" y="57.094290818597756"/>
      <point x="348.820803929416" y="54.69123923254057" type="curve" smooth="yes"/>
      <point x="209.52076803566615" y="-7.30876076745943" type="line"/>
      <point x="203.01476587026661" y="7.30876076745943" type="line"/>
      <point x="342.31480176401647" y="69.30876076745943" type="line" smooth="yes"/>
      <point x="347.7139174445374" y="71.7118123535166"/>
      <point x="353.76520714744953" y="67.63273200030127"/>
      <point x="353.56312433174446" y="61.72644132065339" type="curve" smooth="yes"/>
      <point x="351.44180398818486" y="-0.2735586793466092" type="line"/>
    </contour>
    <contour>
      <point x="418.39980130893065" y="204.0" type="line"/>
      <point x="137.67840917787123" y="204.0" type="line" smooth="yes"/>
      <point x="132.11517795443146" y="204.0"/>
      <point x="128.25044891856484" y="209.53766229074995"/>
      <point x="130.16939042481692" y="214.75946323879825" type="curve" smooth="yes"/>
      <point x="279.36892125517846" y="620.7594632387983" type="line" smooth="yes"/>
      <point x="280.52585952573077" y="623.9077099874982"/>
      <point x="283.5238434454356" y="626.0"/>
      <point x="286.87794000823277" y="626.0" type="curve" smooth="yes"/>
      <point x="345.56780284671623" y="626.0" type="line" smooth="yes"/>
      <point x="349.9860808453626" y="626.0"/>
      <point x="353.56780284671623" y="622.4182779986463"/>
      <point x="353.56780284671623" y="618.0" type="curve" smooth="yes"/>
      <point x="353.56780284671623" y="62.0" type="line"/>
      <point x="337.56780284671623" y="62.0" type="line"/>
      <point x="337.56780284671623" y="618.0" type="line" smooth="yes"/>
      <point x="337.56780284671623" y="622.4182779986463"/>
      <point x="349.9860808453626" y="610.0"/>
      <point x="345.56780284671623" y="610.0" type="curve" smooth="yes"/>
      <point x="286.87794000823277" y="610.0" type="line" smooth="yes"/>
      <point x="283.5238434454356" y="610.0"/>
      <point x="295.5438970318394" y="618.3887835099016"/>
      <point x="294.3869587612871" y="615.2405367612017" type="curve" smooth="yes"/>
      <point x="145.18742793092554" y="209.24053676120175" type="line" smooth="yes"/>
      <point x="143.26848642467345" y="204.01873581315346"/>
      <point x="132.11517795443146" y="220.0"/>
      <point x="137.67840917787123" y="220.0" type="curve" smooth="yes"/>
      <point x="418.39980130893065" y="220.0" type="line"/>
    </contour>
    <contour>
      <point x="197.23602046072793" y="686.6791544781869" type="line"/>
      <point x="291.2812223585387" y="624.6791544781869" type="line" smooth="yes"/>
      <point x="294.8164086664361" y="622.3485565671122"/>
      <point x="295.9232862108019" y="617.6669220356747"/>
      <point x="293.80610679298303" y="613.9999368751627" type="curve" smooth="yes"/>
      <point x="230.87360326738033" y="504.99993687516275" type="line" smooth="yes"/>
      <point x="226.3237544487709" y="497.1195333722786"/>
      <point x="211.82980482563934" y="508.88444398503816"/>
      <point x="218.6061828420911" y="514.9575473612881" type="curve" smooth="yes"/>
      <point x="340.22854920617726" y="623.9575473612881" type="line" smooth="yes"/>
      <point x="341.9929171319119" y="625.5388034217841"/>
      <point x="337.6534976139098" y="615.3585728122492"/>
      <point x="337.572481361688" y="617.7264413206534" type="curve" smooth="yes"/>
      <point x="335.4511610181284" y="679.7264413206534" type="line"/>
      <point x="351.44180398818486" y="680.2735586793466" type="line"/>
      <point x="353.56312433174446" y="618.2735586793466" type="line" smooth="yes"/>
      <point x="353.64414058396625" y="615.9056901709424"/>
      <point x="352.67142441298984" y="613.6237086992079"/>
      <point x="350.9070564872552" y="612.0424526387119" type="curve" smooth="yes"/>
      <point x="229.28469012316899" y="503.04245263871184" type="line" smooth="yes"/>
      <point x="222.50831210671723" y="496.9693492624619"/>
      <point x="212.46742087927035" y="505.11965962195325"/>
      <point x="217.01726969787975" y="513.0000631248373" type="curve" smooth="yes"/>
      <point x="279.9497732234825" y="622.0000631248373" type="line" smooth="yes"/>
      <point x="282.0669526413014" y="625.6670482853493"/>
      <point x="286.00984396582425" y="608.9902476107384"/>
      <point x="282.47465765792685" y="611.3208455218131" type="curve" smooth="yes"/>
      <point x="188.42945576011604" y="673.3208455218131" type="line"/>
    </contour>
    <contour>
      <point x="-6.73357718593102" y="162.41998190338182" type="line"/>
      <point x="134.68777905137847" y="219.41998190338182" type="line" smooth="yes"/>
      <point x="137.71473583120158" y="220.6399994526436"/>
      <point x="129.67840917787123" y="208.73642677921518"/>
      <point x="129.67840917787123" y="212.0" type="curve" smooth="yes"/>
      <point x="129.67840917787126" y="269.0" type="line"/>
      <point x="145.67840917787126" y="269.0" type="line"/>
      <point x="145.67840917787123" y="212.0" type="line" smooth="yes"/>
      <point x="145.67840917787123" y="208.73642677921518"/>
      <point x="143.6959960841871" y="205.80003564587994"/>
      <point x="140.669039304364" y="204.58001809661818" type="curve" smooth="yes"/>
      <point x="-0.7523169329454809" y="147.58001809661818" type="line"/>
    </contour>
    <contour>
      <point x="399.1036316597117" y="293.5760861825852" type="line"/>
      <point x="425.97368934480056" y="214.5760861825852" type="line" smooth="yes"/>
      <point x="426.5452825882744" y="212.8955588549683"/>
      <point x="426.5417249644309" y="211.0726542592656"/>
      <point x="425.9635765861526" y="209.39437079466663" type="curve" smooth="yes"/>
      <point x="399.09351890106376" y="131.39437079466663" type="line"/>
      <point x="383.96596834661983" y="136.60562920533337" type="line"/>
      <point x="410.8360260317087" y="214.60562920533337" type="line" smooth="yes"/>
      <point x="411.41417440998697" y="216.28391266993233"/>
      <point x="411.3975065165346" y="207.74338648979793"/>
      <point x="410.82591327306073" y="209.4239138174148" type="curve" smooth="yes"/>
      <point x="383.9558555879719" y="288.4239138174148" type="line"/>
    </contour>
    <contour>
      <point x="228.7872527589991" y="276.2285226453963" type="line"/>
      <point x="348.9954055607122" y="219.22852264539634" type="line" smooth="yes"/>
      <point x="352.6258740828204" y="217.5070361992855"/>
      <point x="354.41623760963023" y="213.35978657171518"/>
      <point x="353.1792211591652" y="209.53701171888366" type="curve" smooth="yes"/>
      <point x="334.0873380671284" y="150.53701171888366" type="line"/>
      <point x="318.8645014422305" y="155.46298828111634" type="line"/>
      <point x="337.9563845342673" y="214.46298828111634" type="line" smooth="yes"/>
      <point x="339.1934009847323" y="218.28576313394785"/>
      <point x="345.7706686548285" y="203.04999090849282"/>
      <point x="342.1402001327203" y="204.77147735460366" type="curve" smooth="yes"/>
      <point x="221.9320473310072" y="261.7714773546037" type="line"/>
    </contour>
    <contour>
      <point x="219.8594857278553" y="162.25144216016005" type="line"/>
      <point x="342.18895887312806" y="219.25144216016005" type="line" smooth="yes"/>
      <point x="345.9387910164458" y="220.99869428733373"/>
      <point x="339.4393054639387" y="205.4003294833559"/>
      <point x="338.03961448934666" y="209.2932713368412" type="curve" smooth="yes"/>
      <point x="316.82641105375023" y="268.2932713368412" type="line"/>
      <point x="331.8827877684894" y="273.7067286631588" type="line"/>
      <point x="353.0959912040858" y="214.7067286631588" type="line" smooth="yes"/>
      <point x="354.49568217867784" y="210.8137868096735"/>
      <point x="352.69647896362216" y="206.49580996701363"/>
      <point x="348.9466468203044" y="204.74855783983995" type="curve" smooth="yes"/>
      <point x="226.6171736750317" y="147.74855783983995" type="line"/>
    </contour>
  </outline>
</glyph>
<glyph name="five" format="2">
  <advance width="373"/>
  <unicode hex="0035"/>
  <outline>
    <contour>
      <point x="153.8042226955554" y="75.08236887039773" type="line"/>
      <point x="177.3152008580143" y="62.73253817422366"/>
      <point x="200.78387008304793" y="56.0"/>
      <point x="223.62310601229376" y="56.0" type="curve"/>
      <point x="223.62310601229376" y="56.0"/>
      <point x="223.62310601229376" y="56.0"/>
      <point x="223.62310601229376" y="56.0" type="curve"/>
      <point x="300.3550694659117" y="55.99999999999999"/>
      <point x="352.80182156248395" y="115.00350989564193"/>
      <point x="352.80182156248395" y="214.0" type="curve"/>
      <point x="352.80182156248395" y="214.0"/>
      <point x="352.80182156248395" y="214.0"/>
      <point x="352.80182156248395" y="214.0" type="curve"/>
      <point x="352.80182156248395" y="317.5767507175"/>
      <point x="294.5939631413588" y="378.0808690976106"/>
      <point x="165.74612672407693" y="353.1457254063606" type="curve" smooth="yes"/>
      <point x="160.5953423293807" y="352.14892520718263"/>
      <point x="155.895413628677" y="356.29646422911577"/>
      <point x="156.24379402209928" y="361.53123467481885" type="curve" smooth="yes"/>
      <point x="173.21435677057644" y="616.5312346748188" type="line" smooth="yes"/>
      <point x="173.4953100447747" y="620.7528439391896"/>
      <point x="177.0148067752579" y="624.0257520372741"/>
      <point x="181.2456753163516" y="623.9998500819864" type="curve" smooth="yes"/>
      <point x="344.587341770444" y="622.9998500819864" type="line"/>
      <point x="344.48938941994265" y="607.0001499180136" type="line"/>
      <point x="181.14772296585022" y="608.0001499180136" type="line" smooth="yes"/>
      <point x="176.91685442475654" y="608.0260518733012"/>
      <point x="189.45999478582362" y="619.6903745895519"/>
      <point x="189.17904151162537" y="615.4687653251812" type="curve" smooth="yes"/>
      <point x="172.2084787631482" y="360.46876532518115" type="line" smooth="yes"/>
      <point x="171.86009836972593" y="355.2339948794781"/>
      <point x="157.55536166647434" y="367.8574743944614"/>
      <point x="162.70614606117056" y="368.8542745936394" type="curve" smooth="yes"/>
      <point x="302.576393314707" y="395.92251889152976"/>
      <point x="368.80182156248395" y="326.43732246815983"/>
      <point x="368.80182156248395" y="214.0" type="curve"/>
      <point x="368.80182156248395" y="214.0"/>
      <point x="368.80182156248395" y="214.0"/>
      <point x="368.80182156248395" y="214.0" type="curve"/>
      <point x="368.80182156248395" y="105.01963027576312"/>
      <point x="308.0935527728481" y="39.99999999999999"/>
      <point x="223.62310601229376" y="40.0" type="curve"/>
      <point x="223.62310601229376" y="40.0"/>
      <point x="223.62310601229376" y="40.0"/>
      <point x="223.62310601229376" y="40.0" type="curve"/>
      <point x="198.37974206784173" y="40.0"/>
      <point x="172.34959466740136" y="47.267819381010156"/>
      <point x="146.36377884223018" y="60.91763112960227" type="curve"/>
    </contour>
    <contour>
      <point x="325.0615067799448" y="683.0562412324606" type="line"/>
      <point x="351.9315644650336" y="618.0562412324606" type="line" smooth="yes"/>
      <point x="352.6301293079063" y="616.3663782884029"/>
      <point x="352.7287069792248" y="614.4882015802884"/>
      <point x="352.2108807378898" y="612.7344953354509" type="curve" smooth="yes"/>
      <point x="325.340823052801" y="521.7344953354509" type="line"/>
      <point x="309.9957927674081" y="526.2655046645491" type="line"/>
      <point x="336.8658504524969" y="617.2655046645491" type="line" smooth="yes"/>
      <point x="337.3836766938319" y="619.0192109093866"/>
      <point x="337.8437315682258" y="610.2538958234817"/>
      <point x="337.1451667253531" y="611.9437587675394" type="curve" smooth="yes"/>
      <point x="310.2751090402643" y="676.9437587675394" type="line"/>
    </contour>
    <contour>
      <point x="32.12149075498234" y="21.236272269866326" type="line"/>
      <point x="146.67278930720303" y="75.23627226986633" type="line" smooth="yes"/>
      <point x="151.7588844752484" y="77.63388052525634"/>
      <point x="148.6427800595798" y="58.32840384053511"/>
      <point x="144.5693194005154" y="62.20445952431774" type="curve" smooth="yes"/>
      <point x="30.018020848294725" y="171.20445952431774" type="line"/>
      <point x="41.04738358504949" y="182.79554047568226" type="line"/>
      <point x="155.59868213727017" y="73.79554047568226" type="line" smooth="yes"/>
      <point x="159.67214279633455" y="69.91948479189962"/>
      <point x="158.58130739862793" y="63.161335985523685"/>
      <point x="153.49521223058255" y="60.763727730133674" type="curve" smooth="yes"/>
      <point x="38.943913678361874" y="6.763727730133673" type="line"/>
    </contour>
    <contour>
      <point x="38.57052943343566" y="296.9089051449576" type="line"/>
      <point x="160.19289579752183" y="367.9089051449576" type="line" smooth="yes"/>
      <point x="163.40913417186775" y="369.786462138833"/>
      <point x="157.69137524026118" y="355.0698814322613"/>
      <point x="156.5863884269263" y="358.6263422696981" type="curve" smooth="yes"/>
      <point x="136.08029177251643" y="424.6263422696981" type="line"/>
      <point x="151.3597877039113" y="429.3736577303019" type="line"/>
      <point x="171.86588435832118" y="363.3736577303019" type="line" smooth="yes"/>
      <point x="172.97087117165606" y="359.81719689286507"/>
      <point x="171.47561536207158" y="355.9686518489178"/>
      <point x="168.25937698772566" y="354.0910948550424" type="curve" smooth="yes"/>
      <point x="46.637010623639505" y="283.0910948550424" type="line"/>
    </contour>
    <contour>
      <point x="145.59515492755864" y="555.2338083338178" type="line"/>
      <point x="173.87942617502054" y="619.2338083338178" type="line" smooth="yes"/>
      <point x="175.54203203698881" y="622.9958559480203"/>
      <point x="180.8377304298426" y="607.0117631335107"/>
      <point x="177.25777142976227" y="609.036893761772" type="curve" smooth="yes"/>
      <point x="64.12068643991465" y="673.036893761772" type="line"/>
      <point x="71.99854186259195" y="686.963106238228" type="line"/>
      <point x="185.13562685243954" y="622.963106238228" type="line" smooth="yes"/>
      <point x="188.71558585251987" y="620.9379756099667"/>
      <point x="190.17657796914955" y="616.5282392803847"/>
      <point x="188.51397210718127" y="612.7661916661822" type="curve" smooth="yes"/>
      <point x="160.22970085971937" y="548.7661916661822" type="line"/>
    </contour>
  </outline>
</glyph>
<glyph name="six" format="2">
  <advance width="404"/>
  <unicode hex="0036"/>
  <outline>
    <contour>
      <point x="207.60236326926275" y="64.39816675837884" type="line"/>
      <point x="175.99538857127567" y="96.62303607902479"/>
      <point x="157.23044737829952" y="149.5502613587081"/>
      <point x="157.23044737829952" y="214.0" type="curve"/>
      <point x="157.23044737829952" y="214.0"/>
      <point x="157.23044737829952" y="214.0"/>
      <point x="157.23044737829952" y="214.0" type="curve"/>
      <point x="157.23044737829954" y="318.17517795407997"/>
      <point x="210.8467366104124" y="388.00000000000006"/>
      <point x="288.97413408594537" y="388.0" type="curve"/>
      <point x="288.97413408594537" y="388.0"/>
      <point x="288.97413408594537" y="388.0"/>
      <point x="288.97413408594537" y="388.0" type="curve"/>
      <point x="351.72736313886287" y="387.99999999999994"/>
      <point x="408.69700551341987" y="329.0460956452324"/>
      <point x="408.69700551341987" y="216.0" type="curve"/>
      <point x="408.69700551341987" y="216.0"/>
      <point x="408.69700551341987" y="216.0"/>
      <point x="408.69700551341987" y="216.0" type="curve"/>
      <point x="408.69700551341987" y="113.82727494893565"/>
      <point x="355.86596999181853" y="36.0"/>
      <point x="277.66042558696057" y="36.0" type="curve"/>
      <point x="277.66042558696057" y="36.0"/>
      <point x="277.66042558696057" y="36.0"/>
      <point x="277.66042558696057" y="36.0" type="curve"/>
      <point x="200.09276534882468" y="36.0"/>
      <point x="139.55277784863583" y="119.9923291166924"/>
      <point x="139.55277784863583" y="307.0" type="curve" smooth="yes"/>
      <point x="139.55277784863583" y="307.02386798578374"/>
      <point x="139.55331191791683" y="306.9045300884496"/>
      <point x="139.5530982908462" y="306.92839711819454" type="curve" smooth="yes"/>
      <point x="137.36446327193863" y="551.4489859372743"/>
      <point x="208.18566598988392" y="636.0"/>
      <point x="305.9446968344225" y="636.0" type="curve"/>
      <point x="305.9446968344225" y="636.0"/>
      <point x="305.9446968344225" y="636.0"/>
      <point x="305.9446968344225" y="636.0" type="curve"/>
      <point x="329.6912837239913" y="636.0"/>
      <point x="354.99317769310017" y="629.7676882757976"/>
      <point x="381.7080879438652" y="616.1246980223323" type="curve"/>
      <point x="374.43108908703545" y="601.8753019776677" type="line"/>
      <point x="350.2362712824611" y="614.2313106781922"/>
      <point x="327.4512015495996" y="620.0"/>
      <point x="305.9446968344225" y="620.0" type="curve"/>
      <point x="305.9446968344225" y="620.0"/>
      <point x="305.9446968344225" y="620.0"/>
      <point x="305.9446968344225" y="620.0" type="curve"/>
      <point x="214.2996818287435" y="620.0"/>
      <point x="153.50070333913416" y="536.2994587425915"/>
      <point x="155.55245740642545" y="307.07160288180546" type="curve" smooth="yes"/>
      <point x="155.55267103349607" y="307.0477358520605"/>
      <point x="155.55277784863583" y="307.02386798578374"/>
      <point x="155.55277784863583" y="307.0" type="curve" smooth="yes"/>
      <point x="155.55277784863583" y="136.185200125"/>
      <point x="206.80929794195094" y="52.0"/>
      <point x="277.66042558696057" y="52.0" type="curve"/>
      <point x="277.66042558696057" y="52.0"/>
      <point x="277.66042558696057" y="52.0"/>
      <point x="277.66042558696057" y="52.0" type="curve"/>
      <point x="347.84823991693685" y="52.0"/>
      <point x="392.69700551341987" y="124.30215031370119"/>
      <point x="392.69700551341987" y="216.0" type="curve"/>
      <point x="392.69700551341987" y="216.0"/>
      <point x="392.69700551341987" y="216.0"/>
      <point x="392.69700551341987" y="216.0" type="curve"/>
      <point x="392.69700551341987" y="316.849544134916"/>
      <point x="344.956912676031" y="371.99999999999994"/>
      <point x="288.97413408594537" y="372.0" type="curve"/>
      <point x="288.97413408594537" y="372.0"/>
      <point x="288.97413408594537" y="372.0"/>
      <point x="288.97413408594537" y="372.0" type="curve"/>
      <point x="218.6457684821502" y="372.00000000000006"/>
      <point x="173.23044737829954" y="307.77593825891097"/>
      <point x="173.23044737829952" y="214.0" type="curve"/>
      <point x="173.23044737829952" y="214.0"/>
      <point x="173.23044737829952" y="214.0"/>
      <point x="173.23044737829952" y="214.0" type="curve"/>
      <point x="173.23044737829952" y="154.48058333536008"/>
      <point x="189.83597187643437" y="105.36154157394112"/>
      <point x="219.02505372870672" y="75.60183324162116" type="curve"/>
    </contour>
    <contour>
      <point x="138.7600824474985" y="388.1385778774865" type="line"/>
      <point x="120.84480608341492" y="341.3643745401035"/>
      <point x="127.24727668617626" y="259.1927490508455"/>
      <point x="180.30405668750072" y="141.28277813785908" type="curve"/>
      <point x="165.71318725520237" y="134.71722186214092" type="line"/>
      <point x="109.90285396200038" y="258.7465122766978"/>
      <point x="104.97351370969523" y="344.65972013987937"/>
      <point x="123.818561315192" y="393.8614221225135" type="curve"/>
    </contour>
    <contour>
      <point x="358.3875765360816" y="667.5116945955591" type="line"/>
      <point x="385.2576342211704" y="612.5116945955591" type="line" smooth="yes"/>
      <point x="386.0834325664282" y="610.8213778302779"/>
      <point x="386.28712466051064" y="608.8941067582493"/>
      <point x="385.8329213272966" y="607.0685074029366" type="curve" smooth="yes"/>
      <point x="358.9628636422078" y="499.0685074029366" type="line"/>
      <point x="343.43619801851526" y="502.9314925970634" type="line"/>
      <point x="370.30625570360405" y="610.9314925970634" type="line" smooth="yes"/>
      <point x="370.7604590368181" y="612.7570919523762"/>
      <point x="371.70734115498806" y="603.7979886391597"/>
      <point x="370.88154280973026" y="605.4883054044409" type="curve" smooth="yes"/>
      <point x="344.01148512464147" y="660.4883054044409" type="line"/>
    </contour>
  </outline>
</glyph>
<glyph name="seven" format="2">
  <advance width="355"/>
  <unicode hex="0037"/>
  <outline>
    <contour>
      <point x="202.6021023476128" y="71.87004529070784" type="line"/>
      <point x="214.63691946133272" y="121.92828524042133"/>
      <point x="235.1428437356114" y="200.93515587043723"/>
      <point x="276.20280800595003" y="351.1098757195777" type="curve" smooth="yes"/>
      <point x="276.20345241846746" y="351.11223262541034"/>
      <point x="276.20409791074496" y="351.11458923589043"/>
      <point x="276.20474448257795" y="351.1169455502713" type="curve" smooth="yes"/>
      <point x="349.74384972597886" y="619.1169455502712" type="line" smooth="yes"/>
      <point x="351.1410740712754" y="624.2088775679385"/>
      <point x="362.73882803929274" y="609.0"/>
      <point x="357.4586758119763" y="609.0" type="curve" smooth="yes"/>
      <point x="215.81523234711761" y="609.0"/>
      <point x="173.03925613388114" y="607.043672553013"/>
      <point x="139.918649950556" y="603.0573227267598" type="curve"/>
      <point x="138.00671090011028" y="618.9426772732402" type="line"/>
      <point x="171.3627056150475" y="622.9573581338624"/>
      <point x="214.80857075447872" y="625.0"/>
      <point x="357.4586758119763" y="625.0" type="curve" smooth="yes"/>
      <point x="362.73882803929274" y="625.0"/>
      <point x="366.5707262432703" y="619.9749864673961"/>
      <point x="365.1735018979738" y="614.8830544497288" type="curve" smooth="yes"/>
      <point x="291.63439665457287" y="346.8830544497287" type="line" smooth="yes"/>
      <point x="291.6337500827399" y="346.88069813534787"/>
      <point x="291.6369775437182" y="346.89248118625494"/>
      <point x="291.6363331312008" y="346.8901242804223" type="curve" smooth="yes"/>
      <point x="250.6623233827402" y="197.029778700042"/>
      <point x="230.1684518496986" y="118.08340323608559"/>
      <point x="218.15882830273608" y="68.12995470929216" type="curve"/>
    </contour>
    <contour>
      <point x="193.25617723256522" y="1.0416157576084035" type="line"/>
      <point x="202.4485653879903" y="71.0416157576084" type="line" smooth="yes"/>
      <point x="203.25885379653474" y="77.21195883267053"/>
      <point x="219.28286953356584" y="65.1547032826251"/>
      <point x="213.57840364585002" y="62.66697944247019" type="curve" smooth="yes"/>
      <point x="53.065164316503726" y="-7.333020557529807" type="line"/>
      <point x="46.6692876751526" y="7.333020557529807" type="line"/>
      <point x="207.18252700449887" y="77.3330205575298" type="line" smooth="yes"/>
      <point x="212.8869928922147" y="79.82074439768472"/>
      <point x="219.12265367090302" y="75.12872731745374"/>
      <point x="218.31236526235858" y="68.9583842423916" type="curve" smooth="yes"/>
      <point x="209.1199771069335" y="-1.0416157576084035" type="line"/>
    </contour>
    <contour>
      <point x="19.572795486024233" y="530.3708776298627" type="line"/>
      <point x="134.12409403824492" y="617.3708776298627" type="line" smooth="yes"/>
      <point x="138.62745553379463" y="620.7911134112512"/>
      <point x="139.67891412051569" y="601.2293660976488"/>
      <point x="134.8348781181402" y="604.1471722542638" type="curve" smooth="yes"/>
      <point x="20.283579565919517" y="673.1471722542638" type="line"/>
      <point x="28.539184180305377" y="686.8528277457362" type="line"/>
      <point x="143.09048273252606" y="617.8528277457362" type="line" smooth="yes"/>
      <point x="147.93451873490153" y="614.9350215891213"/>
      <point x="148.30462830797106" y="608.0493581515259"/>
      <point x="143.80126681242135" y="604.6291223701373" type="curve" smooth="yes"/>
      <point x="29.24996826020066" y="517.6291223701373" type="line"/>
    </contour>
    <contour>
      <point x="215.55518317233677" y="561.2828681941384" type="line"/>
      <point x="354.14811228490004" y="624.2828681941384" type="line" smooth="yes"/>
      <point x="357.09299244854463" y="625.6215183799565"/>
      <point x="349.5720687313208" y="613.4977532563264"/>
      <point x="349.4632071065908" y="616.7307785647456" type="curve" smooth="yes"/>
      <point x="347.3418867630312" y="679.7307785647456" type="line"/>
      <point x="363.33282417380224" y="680.2692214352544" type="line"/>
      <point x="365.45414451736184" y="617.2692214352544" type="line" smooth="yes"/>
      <point x="365.56300614209187" y="614.0361961268352"/>
      <point x="363.7141195026972" y="611.0557819916797"/>
      <point x="360.7692393390526" y="609.7171318058616" type="curve" smooth="yes"/>
      <point x="222.17631022648928" y="546.7171318058616" type="line"/>
    </contour>
  </outline>
</glyph>
<glyph name="eight" format="2">
  <advance width="402"/>
  <unicode hex="0038"/>
  <outline>
    <contour>
      <point x="272.4177848998413" y="364.0" type="curve"/>
      <point x="272.4177848998413" y="364.0"/>
      <point x="272.4177848998413" y="364.0"/>
      <point x="272.4177848998413" y="364.0" type="curve"/>
      <point x="331.61433050863434" y="364.0"/>
      <point x="373.3122292025696" y="412.4021713960795"/>
      <point x="373.3122292025696" y="498.0" type="curve"/>
      <point x="373.3122292025696" y="498.0"/>
      <point x="373.3122292025696" y="498.0"/>
      <point x="373.3122292025696" y="498.0" type="curve"/>
      <point x="373.3122292025696" y="572.988883145282"/>
      <point x="331.40826181135964" y="628.0"/>
      <point x="272.4177848998413" y="628.0" type="curve"/>
      <point x="272.4177848998413" y="628.0"/>
      <point x="272.4177848998413" y="628.0"/>
      <point x="272.4177848998413" y="628.0" type="curve"/>
      <point x="212.73465207459" y="628.0"/>
      <point x="170.10912703473988" y="573.0263963434537"/>
      <point x="170.10912703473986" y="498.0" type="curve"/>
      <point x="170.10912703473986" y="498.0"/>
      <point x="170.10912703473986" y="498.0"/>
      <point x="170.10912703473986" y="498.0" type="curve"/>
      <point x="170.10912703473983" y="412.3593510716153"/>
      <point x="213.1916262117042" y="364.0"/>
    </contour>
    <contour>
      <point x="272.4177848998413" y="36.0" type="curve"/>
      <point x="272.4177848998413" y="36.0"/>
      <point x="272.4177848998413" y="36.0"/>
      <point x="272.4177848998413" y="36.0" type="curve"/>
      <point x="197.0398943212655" y="36.00000000000001"/>
      <point x="141.381204973382" y="102.06496307745111"/>
      <point x="141.381204973382" y="196.0" type="curve"/>
      <point x="141.381204973382" y="196.0"/>
      <point x="141.381204973382" y="196.0"/>
      <point x="141.381204973382" y="196.0" type="curve"/>
      <point x="141.381204973382" y="303.27836234727243"/>
      <point x="198.79162321803696" y="364.0"/>
      <point x="272.4177848998413" y="364.0" type="curve"/>
      <point x="272.4177848998413" y="364.0"/>
      <point x="272.4177848998413" y="364.0"/>
      <point x="272.4177848998413" y="364.0" type="curve"/>
      <point x="344.59261875819084" y="364.0"/>
      <point x="402.04015126392744" y="303.3320015284461"/>
      <point x="402.04015126392744" y="196.0" type="curve"/>
      <point x="402.04015126392744" y="196.0"/>
      <point x="402.04015126392744" y="196.0"/>
      <point x="402.04015126392744" y="196.0" type="curve"/>
      <point x="402.04015126392744" y="102.01799555898984"/>
      <point x="346.33998661135263" y="35.99999999999999"/>
    </contour>
    <contour>
      <point x="272.4177848998413" y="348.0" type="curve"/>
      <point x="205.8294619085985" y="348.0"/>
      <point x="154.10912703473983" y="401.7137082948257"/>
      <point x="154.10912703473986" y="498.0" type="curve"/>
      <point x="154.10912703473986" y="498.0"/>
      <point x="154.10912703473986" y="498.0"/>
      <point x="154.10912703473986" y="498.0" type="curve"/>
      <point x="154.10912703473988" y="582.9451711982209"/>
      <point x="204.84431499361284" y="644.0"/>
      <point x="272.4177848998413" y="644.0" type="curve"/>
      <point x="272.4177848998413" y="644.0"/>
      <point x="272.4177848998413" y="644.0"/>
      <point x="272.4177848998413" y="644.0" type="curve"/>
      <point x="339.2738498005653" y="644.0"/>
      <point x="389.3122292025696" y="582.98764378382"/>
      <point x="389.3122292025696" y="498.0" type="curve"/>
      <point x="389.3122292025696" y="498.0"/>
      <point x="389.3122292025696" y="498.0"/>
      <point x="389.3122292025696" y="498.0" type="curve"/>
      <point x="389.3122292025696" y="401.66556514897314"/>
      <point x="339.0394020525797" y="348.0"/>
      <point x="272.4177848998413" y="348.0" type="curve"/>
      <point x="272.4177848998413" y="348.0"/>
      <point x="272.4177848998413" y="348.0"/>
    </contour>
    <contour>
      <point x="272.4177848998413" y="52.0" type="curve"/>
      <point x="338.495650983806" y="51.99999999999999"/>
      <point x="386.04015126392744" y="111.99099918599178"/>
      <point x="386.04015126392744" y="196.0" type="curve"/>
      <point x="386.04015126392744" y="196.0"/>
      <point x="386.04015126392744" y="196.0"/>
      <point x="386.04015126392744" y="196.0" type="curve"/>
      <point x="386.04015126392744" y="292.6176333576657"/>
      <point x="337.3877988385854" y="348.0"/>
      <point x="272.4177848998413" y="348.0" type="curve"/>
      <point x="272.4177848998413" y="348.0"/>
      <point x="272.4177848998413" y="348.0"/>
      <point x="272.4177848998413" y="348.0" type="curve"/>
      <point x="206.0750116582136" y="348.0"/>
      <point x="157.381204973382" y="292.6659663408361"/>
      <point x="157.381204973382" y="196.0" type="curve"/>
      <point x="157.381204973382" y="196.0"/>
      <point x="157.381204973382" y="196.0"/>
      <point x="157.381204973382" y="196.0" type="curve"/>
      <point x="157.381204973382" y="111.9489736728282"/>
      <point x="204.97128918248333" y="52.00000000000001"/>
      <point x="272.4177848998413" y="52.0" type="curve"/>
      <point x="272.4177848998413" y="52.0"/>
      <point x="272.4177848998413" y="52.0"/>
    </contour>
    <contour>
      <point x="92.19428520788077" y="365.9995079269882" type="line"/>
      <point x="272.5065144104504" y="363.9995079269882" type="line" smooth="yes"/>
      <point x="272.67564318166035" y="363.99763197246244"/>
      <point x="271.8304246392757" y="363.9802015002608"/>
      <point x="271.9993322750686" y="363.98904859171734" type="curve" smooth="yes"/>
      <point x="310.1830984591421" y="365.98904859171734" type="line"/>
      <point x="311.02000370868757" y="350.01095140828266" type="line"/>
      <point x="272.83623752461403" y="348.01095140828266" type="line" smooth="yes"/>
      <point x="272.66732988882114" y="348.00210431682615"/>
      <point x="272.4981841604422" y="347.99861611848604"/>
      <point x="272.3290553892322" y="348.0004920730118" type="curve" smooth="yes"/>
      <point x="92.01682618666254" y="350.0004920730118" type="line"/>
    </contour>
  </outline>
</glyph>
<glyph name="nine" format="2">
  <advance width="404"/>
  <unicode hex="0039"/>
  <outline>
    <contour>
      <point x="337.81899296804676" y="613.6018332416212" type="line"/>
      <point x="369.4259676660338" y="581.3769639209755"/>
      <point x="388.19090885900994" y="528.4497386412919"/>
      <point x="388.19090885900994" y="464.0" type="curve"/>
      <point x="388.19090885900994" y="464.0"/>
      <point x="388.19090885900994" y="464.0"/>
      <point x="388.19090885900994" y="464.0" type="curve"/>
      <point x="388.19090885900994" y="359.82482204592003"/>
      <point x="334.57461962689723" y="290.0"/>
      <point x="256.44722215136414" y="290.0" type="curve"/>
      <point x="256.44722215136414" y="290.0"/>
      <point x="256.44722215136414" y="290.0"/>
      <point x="256.44722215136414" y="290.0" type="curve"/>
      <point x="193.69399309844658" y="290.0"/>
      <point x="136.72435072388961" y="348.9539043547676"/>
      <point x="136.72435072388964" y="462.0" type="curve"/>
      <point x="136.72435072388964" y="462.0"/>
      <point x="136.72435072388964" y="462.0"/>
      <point x="136.72435072388964" y="462.0" type="curve"/>
      <point x="136.72435072388967" y="564.1727250510645"/>
      <point x="189.55538624549106" y="642.0"/>
      <point x="267.7609306503489" y="642.0" type="curve"/>
      <point x="267.7609306503489" y="642.0"/>
      <point x="267.7609306503489" y="642.0"/>
      <point x="267.7609306503489" y="642.0" type="curve"/>
      <point x="345.32859088848494" y="642.0"/>
      <point x="405.86857838867365" y="558.0076708833077"/>
      <point x="405.86857838867365" y="371.0" type="curve" smooth="yes"/>
      <point x="405.86857838867365" y="370.97613201421626"/>
      <point x="405.86804431939265" y="371.0954699115504"/>
      <point x="405.8682579464633" y="371.07160288180546" type="curve" smooth="yes"/>
      <point x="408.056892965371" y="126.55101406272581"/>
      <point x="337.2356902474255" y="42.0"/>
      <point x="239.47665940288698" y="42.0" type="curve"/>
      <point x="239.47665940288698" y="42.0"/>
      <point x="239.47665940288698" y="42.0"/>
      <point x="239.47665940288698" y="42.0" type="curve"/>
      <point x="215.7300725133182" y="42.0"/>
      <point x="190.42817854420923" y="48.23231172420239"/>
      <point x="163.7132682934443" y="61.875301977667775" type="curve"/>
      <point x="170.990267150274" y="76.12469802233223" type="line"/>
      <point x="195.18508495484835" y="63.7686893218079"/>
      <point x="217.97015468770988" y="58.0"/>
      <point x="239.47665940288698" y="58.0" type="curve"/>
      <point x="239.47665940288698" y="58.0"/>
      <point x="239.47665940288698" y="58.0"/>
      <point x="239.47665940288698" y="58.0" type="curve"/>
      <point x="331.121674408566" y="58.0"/>
      <point x="391.9206528981754" y="141.70054125740845"/>
      <point x="389.868898830884" y="370.92839711819454" type="curve" smooth="yes"/>
      <point x="389.86868520381336" y="370.9522641479395"/>
      <point x="389.86857838867365" y="370.97613201421626"/>
      <point x="389.86857838867365" y="371.0" type="curve" smooth="yes"/>
      <point x="389.86857838867365" y="541.814799875"/>
      <point x="338.61205829535857" y="626.0"/>
      <point x="267.7609306503489" y="626.0" type="curve"/>
      <point x="267.7609306503489" y="626.0"/>
      <point x="267.7609306503489" y="626.0"/>
      <point x="267.7609306503489" y="626.0" type="curve"/>
      <point x="197.57311632037272" y="626.0"/>
      <point x="152.72435072388967" y="553.6978496862988"/>
      <point x="152.72435072388964" y="462.0" type="curve"/>
      <point x="152.72435072388964" y="462.0"/>
      <point x="152.72435072388964" y="462.0"/>
      <point x="152.72435072388964" y="462.0" type="curve"/>
      <point x="152.72435072388961" y="361.150455865084"/>
      <point x="200.46444356127842" y="306.0"/>
      <point x="256.44722215136414" y="306.0" type="curve"/>
      <point x="256.44722215136414" y="306.0"/>
      <point x="256.44722215136414" y="306.0"/>
      <point x="256.44722215136414" y="306.0" type="curve"/>
      <point x="326.7755877551595" y="306.0"/>
      <point x="372.19090885900994" y="370.22406174108903"/>
      <point x="372.19090885900994" y="464.0" type="curve"/>
      <point x="372.19090885900994" y="464.0"/>
      <point x="372.19090885900994" y="464.0"/>
      <point x="372.19090885900994" y="464.0" type="curve"/>
      <point x="372.19090885900994" y="523.5194166646398"/>
      <point x="355.585384360875" y="572.6384584260587"/>
      <point x="326.3963025086028" y="602.3981667583788" type="curve"/>
    </contour>
    <contour>
      <point x="267.69122097750875" y="293.2293699527479" type="line"/>
      <point x="326.7431593992517" y="340.81181829951583"/>
      <point x="376.82452242731046" y="431.29983253996573"/>
      <point x="364.46481438555037" y="539.0886441010113" type="curve"/>
      <point x="380.36065414636556" y="540.9113558989887" type="line"/>
      <point x="393.4595032686154" y="426.6765070713065"/>
      <point x="340.31352551055005" y="331.1986263765893"/>
      <point x="277.73013525980076" y="280.7706300472521" type="curve"/>
    </contour>
    <contour>
      <point x="49.33783385610231" y="21.211806755969853" type="line"/>
      <point x="163.889132408323" y="76.21180675596985" type="line" smooth="yes"/>
      <point x="168.95030257107305" y="78.64184781590907"/>
      <point x="165.94882784156388" y="59.32775606895798"/>
      <point x="161.86381299729885" y="63.17914499912801" type="curve" smooth="yes"/>
      <point x="47.31251444507818" y="171.179144999128" type="line"/>
      <point x="58.28842389419874" y="182.820855000872" type="line"/>
      <point x="172.83972244641944" y="74.82085500087199" type="line" smooth="yes"/>
      <point x="176.92473729068448" y="70.96946607070198"/>
      <point x="175.8755731981453" y="64.21823430396935"/>
      <point x="170.8144030353953" y="61.78819324403015" type="curve" smooth="yes"/>
      <point x="56.263104483174615" y="6.788193244030148" type="line"/>
    </contour>
  </outline>
</glyph>
<glyph name="greater" format="2">
  <advance width="317"/>
  <unicode hex="003E"/>
  <outline>
    <contour>
      <point x="138.16726251835252" y="184.13870493645337" type="line"/>
      <point x="293.730754379393" y="314.1387049364534" type="line" smooth="yes"/>
      <point x="297.5574987978773" y="317.3366067606638"/>
      <point x="297.5574987978773" y="298.6633932393362"/>
      <point x="293.730754379393" y="301.8612950635466" type="curve" smooth="yes"/>
      <point x="138.16726251835252" y="431.8612950635466" type="line"/>
      <point x="148.42714589062592" y="444.1387049364534" type="line"/>
      <point x="303.9906377516664" y="314.1387049364534" type="line" smooth="yes"/>
      <point x="307.8173821701507" y="310.940803112243"/>
      <point x="307.8173821701507" y="305.059196887757"/>
      <point x="303.9906377516664" y="301.8612950635466" type="curve" smooth="yes"/>
      <point x="148.42714589062592" y="171.86129506354663" type="line"/>
    </contour>
    <contour>
      <point x="25.991992310481077" y="403.5110559381438" type="line"/>
      <point x="140.54329086270175" y="445.5110559381438" type="line" smooth="yes"/>
      <point x="146.00943713784235" y="447.5152073223487"/>
      <point x="141.69572480214453" y="428.2362588319891"/>
      <point x="137.60491669366573" y="432.37880236122913" type="curve" smooth="yes"/>
      <point x="23.053618141445046" y="548.3788023612292" type="line"/>
      <point x="34.438193163092016" y="559.6211976387708" type="line"/>
      <point x="148.9894917153127" y="443.62119763877087" type="line" smooth="yes"/>
      <point x="153.0802998237915" y="439.47865410953085"/>
      <point x="151.5172638214173" y="432.49309544606115"/>
      <point x="146.05111754627669" y="430.4889440618562" type="curve" smooth="yes"/>
      <point x="31.49981899405599" y="388.4889440618562" type="line"/>
    </contour>
    <contour>
      <point x="23.102712964809797" y="69.670482897621" type="line"/>
      <point x="137.65401151703048" y="183.670482897621" type="line" smooth="yes"/>
      <point x="141.82104161124744" y="187.81745841640287"/>
      <point x="146.13638629463156" y="168.48682015209948"/>
      <point x="140.601334028922" y="170.46791635757495" type="curve" smooth="yes"/>
      <point x="26.05003547670132" y="211.46791635757495" type="line"/>
      <point x="31.441775827835745" y="226.53208364242505" type="line"/>
      <point x="145.99307438005644" y="185.53208364242505" type="line" smooth="yes"/>
      <point x="151.528126645766" y="183.55098743694958"/>
      <point x="153.1074269861649" y="176.47649262116084"/>
      <point x="148.94039689194796" y="172.329517102379" type="curve" smooth="yes"/>
      <point x="34.38909833972727" y="58.329517102379" type="line"/>
    </contour>
    <contour>
      <point x="310.2182149904702" y="301.03532026080035" type="line"/>
      <point x="299.61161327267195" y="300.03532026080035" type="line" smooth="yes"/>
      <point x="299.3789969053347" y="300.0133889793658"/>
      <point x="299.1455314153935" y="300.00165891081616"/>
      <point x="298.9118882685272" y="300.0001637917797" type="curve" smooth="yes"/>
      <point x="142.6412896263002" y="299.0001637917797" type="line"/>
      <point x="142.53890522030514" y="314.9998362082203" type="line"/>
      <point x="298.80950386253215" y="315.9998362082203" type="line" smooth="yes"/>
      <point x="299.04314700939847" y="316.00133132725676"/>
      <point x="297.87716249105017" y="315.9427484577651"/>
      <point x="298.1097788583874" y="315.96467973919965" type="curve" smooth="yes"/>
      <point x="308.71638057618566" y="316.96467973919965" type="line"/>
    </contour>
  </outline>
</glyph>
<glyph name="question" format="2">
  <advance width="369"/>
  <unicode hex="003F"/>
  <outline>
    <contour>
      <point x="111.32902413359457" y="167.7731902523619" type="line"/>
      <point x="238.60824474717313" y="87.7731902523619" type="line" smooth="yes"/>
      <point x="241.33770516007834" y="86.05761694841034"/>
      <point x="242.77071743938518" y="82.87135696525307"/>
      <point x="242.24320361463586" y="79.6909678268698" type="curve" smooth="yes"/>
      <point x="228.80817477209146" y="-1.309032173130204" type="line"/>
      <point x="213.02382369012295" y="1.309032173130204" type="line"/>
      <point x="226.45885253266735" y="82.3090321731302" type="line" smooth="yes"/>
      <point x="226.98636635741667" y="85.48942131151348"/>
      <point x="232.8232718130353" y="72.51123644368654"/>
      <point x="230.09381140013008" y="74.2268097476381" type="curve" smooth="yes"/>
      <point x="102.81459078655152" y="154.2268097476381" type="line"/>
    </contour>
    <contour>
      <point x="102.77664755891541" y="6.7491926497535655" type="line"/>
      <point x="230.05586817249397" y="87.74919264975357" type="line" smooth="yes"/>
      <point x="232.7668343905214" y="89.47444098645492"/>
      <point x="226.99370483542148" y="76.5060469042528"/>
      <point x="226.46150905817478" y="79.67505105591583" type="curve" smooth="yes"/>
      <point x="213.0264802156304" y="159.67505105591584" type="line"/>
      <point x="228.80551824658403" y="162.32494894408416" type="line"/>
      <point x="242.24054708912843" y="82.32494894408417" type="line" smooth="yes"/>
      <point x="242.77274286637513" y="79.15594479242114"/>
      <point x="241.35715419283667" y="75.97605568694779"/>
      <point x="238.64618797480924" y="74.25080735024643" type="curve" smooth="yes"/>
      <point x="111.36696736123068" y="-6.7491926497535655" type="line"/>
    </contour>
    <contour>
      <point x="195.66851396182398" y="262.1096537882207" type="line"/>
      <point x="233.8522801458975" y="308.1096537882207" type="line" smooth="yes"/>
      <point x="239.16059642701825" y="314.50458475847694"/>
      <point x="250.71072467216035" y="298.69621916138203"/>
      <point x="243.0049569202054" y="295.58261880043574" type="curve" smooth="yes"/>
      <point x="129.16076514917123" y="249.58261880043574" type="line"/>
      <point x="123.1666159550484" y="264.41738119956426" type="line"/>
      <point x="237.01080772608256" y="310.41738119956426" type="line" smooth="yes"/>
      <point x="244.71657547803753" y="313.53098156051055"/>
      <point x="251.47180078151118" y="304.2852771820355"/>
      <point x="246.16348450039044" y="297.8903462117793" type="curve" smooth="yes"/>
      <point x="207.9797183163169" y="251.89034621177927" type="line"/>
    </contour>
    <contour>
      <point x="142.48384912078015" y="613.2040081034423" type="line"/>
      <point x="172.6362162544757" y="627.7646522871923"/>
      <point x="203.51987096620965" y="636.0"/>
      <point x="232.9368145112785" y="636.0" type="curve"/>
      <point x="232.9368145112785" y="636.0"/>
      <point x="232.9368145112785" y="636.0"/>
      <point x="232.9368145112785" y="636.0" type="curve"/>
      <point x="315.15475050435975" y="636.0"/>
      <point x="369.63024868723016" y="588.4486379257784"/>
      <point x="369.63024868723016" y="506.0" type="curve"/>
      <point x="369.63024868723016" y="506.0"/>
      <point x="369.63024868723016" y="506.0"/>
      <point x="369.63024868723016" y="506.0" type="curve"/>
      <point x="369.63024868723016" y="398.2145218882436"/>
      <point x="270.79884836257395" y="376.7000104916062"/>
      <point x="247.66132322562365" y="300.67087090262237" type="curve"/>
      <point x="232.3544414206643" y="305.32912909737763" type="line"/>
      <point x="257.27115915655605" y="387.2046365091925"/>
      <point x="353.63024868723016" y="405.9110061107049"/>
      <point x="353.63024868723016" y="506.0" type="curve"/>
      <point x="353.63024868723016" y="506.0"/>
      <point x="353.63024868723016" y="506.0"/>
      <point x="353.63024868723016" y="506.0" type="curve"/>
      <point x="353.63024868723016" y="579.5532667504168"/>
      <point x="306.2842697259029" y="620.0"/>
      <point x="232.9368145112785" y="620.0" type="curve"/>
      <point x="232.9368145112785" y="620.0"/>
      <point x="232.9368145112785" y="620.0"/>
      <point x="232.9368145112785" y="620.0" type="curve"/>
      <point x="205.78418023009493" y="620.0"/>
      <point x="177.2729618680992" y="612.2358601756699"/>
      <point x="149.44151172988612" y="598.7959918965577" type="curve"/>
    </contour>
    <contour>
      <point x="25.81858669490324" y="499.7201959839327" type="line"/>
      <point x="140.36988524712393" y="611.7201959839327" type="line" smooth="yes"/>
      <point x="144.27254360676375" y="615.535933926706"/>
      <point x="147.15186642711427" y="596.3887339557604"/>
      <point x="142.2995809320119" y="598.8879185815945" type="curve" smooth="yes"/>
      <point x="27.748282379791217" y="657.8879185815945" type="line"/>
      <point x="35.07448136643367" y="672.1120814184055" type="line"/>
      <point x="149.62577991865436" y="613.1120814184055" type="line" smooth="yes"/>
      <point x="154.47806541375672" y="610.6128967925714"/>
      <point x="155.45813396318215" y="604.0955419588405"/>
      <point x="151.55547560354233" y="600.2798040160673" type="curve" smooth="yes"/>
      <point x="37.004177051321655" y="488.2798040160673" type="line"/>
    </contour>
  </outline>
</glyph>
<glyph name="at" format="2">
  <advance width="634"/>
  <unicode hex="0040"/>
  <outline>
    <contour>
      <point x="392.6604255869606" y="172.0" type="curve"/>
      <point x="392.6604255869606" y="172.0"/>
      <point x="392.6604255869606" y="172.0"/>
      <point x="392.6604255869606" y="172.0" type="curve"/>
      <point x="448.8035230305686" y="172.0"/>
      <point x="482.94826817189073" y="232.19478817872752"/>
      <point x="482.94826817189073" y="320.0" type="curve"/>
      <point x="482.94826817189073" y="320.0"/>
      <point x="482.94826817189073" y="320.0"/>
      <point x="482.94826817189073" y="320.0" type="curve"/>
      <point x="482.94826817189073" y="407.8479320821882"/>
      <point x="448.8308385819084" y="466.0"/>
      <point x="392.6604255869606" y="466.0" type="curve"/>
      <point x="392.6604255869606" y="466.0"/>
      <point x="392.6604255869606" y="466.0"/>
      <point x="392.6604255869606" y="466.0" type="curve"/>
      <point x="337.8657532425422" y="466.0"/>
      <point x="305.2010101267766" y="408.69494016446146"/>
      <point x="305.2010101267766" y="320.0" type="curve"/>
      <point x="305.2010101267766" y="320.0"/>
      <point x="305.2010101267766" y="320.0"/>
      <point x="305.2010101267766" y="320.0" type="curve"/>
      <point x="305.2010101267766" y="230.37142888643902"/>
      <point x="337.8657532425422" y="172.0"/>
    </contour>
    <contour>
      <point x="498.94826817189073" y="457.0" type="line"/>
      <point x="498.94826817189073" y="267.0" type="line"/>
      <point x="498.94826817189073" y="267.0"/>
      <point x="498.94826817189073" y="267.0"/>
      <point x="498.94826817189073" y="267.0" type="curve"/>
      <point x="498.94826817189073" y="209.0600303375656"/>
      <point x="519.9370505260752" y="176.0"/>
      <point x="548.9310242291876" y="176.0" type="curve"/>
      <point x="548.9310242291876" y="176.0"/>
      <point x="548.9310242291876" y="176.0"/>
      <point x="548.9310242291876" y="176.0" type="curve"/>
      <point x="595.1665162415708" y="176.00000000000003"/>
      <point x="641.3401871576773" y="248.36955424147226"/>
      <point x="641.3401871576773" y="367.0" type="curve"/>
      <point x="641.3401871576773" y="367.0"/>
      <point x="641.3401871576773" y="367.0"/>
      <point x="641.3401871576773" y="367.0" type="curve"/>
      <point x="641.3401871576773" y="551.9653222640318"/>
      <point x="545.0711753752531" y="679.0"/>
      <point x="403.2670273047588" y="679.0" type="curve"/>
      <point x="403.2670273047588" y="679.0"/>
      <point x="403.2670273047588" y="679.0"/>
      <point x="403.2670273047588" y="679.0" type="curve"/>
      <point x="256.27919941812604" y="679.0"/>
      <point x="151.05173182810927" y="529.7758826062217"/>
      <point x="151.05173182810927" y="318.0" type="curve"/>
      <point x="151.05173182810927" y="318.0"/>
      <point x="151.05173182810927" y="318.0"/>
      <point x="151.05173182810927" y="318.0" type="curve"/>
      <point x="151.05173182810924" y="62.43530598060503"/>
      <point x="303.1152746978413" y="-78.75637533695388"/>
      <point x="485.20628018511815" y="-7.549418606359096" type="curve"/>
      <point x="491.0334019091709" y="-22.450581393640903" type="line"/>
      <point x="299.7793148046021" y="-97.24077472889603"/>
      <point x="135.05173182810924" y="49.574922550180275"/>
      <point x="135.05173182810927" y="318.0" type="curve"/>
      <point x="135.05173182810927" y="318.0"/>
      <point x="135.05173182810927" y="318.0"/>
      <point x="135.05173182810927" y="318.0" type="curve"/>
      <point x="135.05173182810927" y="540.2073638254866"/>
      <point x="249.03899459786848" y="695.0"/>
      <point x="403.2670273047588" y="695.0" type="curve"/>
      <point x="403.2670273047588" y="695.0"/>
      <point x="403.2670273047588" y="695.0"/>
      <point x="403.2670273047588" y="695.0" type="curve"/>
      <point x="552.8018672465877" y="695.0"/>
      <point x="657.3401871576773" y="562.0490182120127"/>
      <point x="657.3401871576773" y="367.0" type="curve"/>
      <point x="657.3401871576773" y="367.0"/>
      <point x="657.3401871576773" y="367.0"/>
      <point x="657.3401871576773" y="367.0" type="curve"/>
      <point x="657.3401871576773" y="231.94716387920778"/>
      <point x="601.5670426289054" y="160.00000000000003"/>
      <point x="548.9310242291876" y="160.0" type="curve"/>
      <point x="548.9310242291876" y="160.0"/>
      <point x="548.9310242291876" y="160.0"/>
      <point x="548.9310242291876" y="160.0" type="curve"/>
      <point x="513.028333057287" y="160.0"/>
      <point x="482.94826817189073" y="195.25402759207313"/>
      <point x="482.94826817189073" y="267.0" type="curve"/>
      <point x="482.94826817189073" y="267.0"/>
      <point x="482.94826817189073" y="267.0"/>
      <point x="482.94826817189073" y="267.0" type="curve"/>
      <point x="482.94826817189073" y="457.0" type="line"/>
    </contour>
    <contour>
      <point x="392.6604255869606" y="156.0" type="curve"/>
      <point x="330.1233679531788" y="156.0"/>
      <point x="289.2010101267766" y="217.70707848874957"/>
      <point x="289.2010101267766" y="320.0" type="curve"/>
      <point x="289.2010101267766" y="320.0"/>
      <point x="289.2010101267766" y="320.0"/>
      <point x="289.2010101267766" y="320.0" type="curve"/>
      <point x="289.2010101267766" y="421.2273702455083"/>
      <point x="330.1233679531788" y="482.0"/>
      <point x="392.6604255869606" y="482.0" type="curve"/>
      <point x="392.6604255869606" y="482.0"/>
      <point x="392.6604255869606" y="482.0"/>
      <point x="392.6604255869606" y="482.0" type="curve"/>
      <point x="456.63952193060857" y="482.0"/>
      <point x="498.94826817189073" y="420.0603522495391"/>
      <point x="498.94826817189073" y="320.0" type="curve"/>
      <point x="498.94826817189073" y="320.0"/>
      <point x="498.94826817189073" y="320.0"/>
      <point x="498.94826817189073" y="320.0" type="curve"/>
      <point x="498.94826817189073" y="219.88823690178307"/>
      <point x="456.67239428780823" y="156.0"/>
      <point x="392.6604255869606" y="156.0" type="curve"/>
      <point x="392.6604255869606" y="156.0"/>
      <point x="392.6604255869606" y="156.0"/>
    </contour>
    <contour>
      <point x="375.8558214698641" y="526.0921754769755" type="line"/>
      <point x="494.64976070920414" y="464.0921754769755" type="line" smooth="yes"/>
      <point x="501.16010126324994" y="460.6943496540806"/>
      <point x="486.04774981891023" y="447.30904161991776"/>
      <point x="483.4609959212007" y="454.182065606859" type="curve" smooth="yes"/>
      <point x="460.1264721420446" y="516.1820656068589" type="line"/>
      <point x="475.1010166434246" y="521.8179343931411" type="line"/>
      <point x="498.43554042258074" y="459.817934393141" type="line" smooth="yes"/>
      <point x="501.02229432029026" y="452.94491040619977"/>
      <point x="493.7571161886231" y="446.5099987001296"/>
      <point x="487.2467756345773" y="449.9078245230245" type="curve" smooth="yes"/>
      <point x="368.4528363952373" y="511.9078245230245" type="line"/>
    </contour>
    <contour>
      <point x="482.94826817189073" y="320.0" type="line"/>
      <point x="482.94826817189073" y="394.91672448872674"/>
      <point x="422.3655515910956" y="450.4871988598416"/>
      <point x="368.0331168113386" y="483.1432069703123" type="curve"/>
      <point x="376.2755410537628" y="496.8567930296877" type="line"/>
      <point x="435.04982776712626" y="461.5310508394292"/>
      <point x="498.94826817189073" y="401.0414085541225"/>
      <point x="498.94826817189073" y="320.0" type="curve"/>
    </contour>
    <contour>
      <point x="385.0321551892319" y="181.40011754226472" type="line"/>
      <point x="429.3264726242057" y="214.61916081258238"/>
      <point x="482.94826817189073" y="261.10395315744637"/>
      <point x="482.94826817189073" y="319.0" type="curve"/>
      <point x="498.94826817189073" y="319.0" type="line"/>
      <point x="498.94826817189073" y="254.9508833335293"/>
      <point x="443.63366586266267" y="205.34937562702177"/>
      <point x="394.63184173519693" y="168.59988245773528" type="curve"/>
    </contour>
    <contour>
      <point x="468.8608796879188" y="70.46398310027358" type="line"/>
      <point x="495.7309373730076" y="-12.536016899726413" type="line" smooth="yes"/>
      <point x="496.4675227687662" y="-14.811285102142365"/>
      <point x="496.14755981561296" y="-17.296766164098972"/>
      <point x="494.8587364449544" y="-19.311297811260236" type="curve" smooth="yes"/>
      <point x="467.9886787598656" y="-61.31129781126024" type="line"/>
      <point x="454.51088796424585" y="-52.68870218873976" type="line"/>
      <point x="481.38094564933465" y="-10.688702188739764" type="line" smooth="yes"/>
      <point x="482.6697690199932" y="-8.674170541578501"/>
      <point x="481.24533011704006" y="-19.73925130268954"/>
      <point x="480.50874472128146" y="-17.463983100273587" type="curve" smooth="yes"/>
      <point x="453.63868703619266" y="65.53601689972642" type="line"/>
    </contour>
  </outline>
</glyph>
<glyph name="B" format="2">
  <advance width="419"/>
  <unicode hex="0042"/>
  <outline>
    <contour>
      <point x="278.4429111656884" y="357.0" type="line"/>
      <point x="343.1220307640389" y="357.0"/>
      <point x="387.82263684265513" y="405.95981785530444"/>
      <point x="387.82263684265524" y="488.0" type="curve"/>
      <point x="387.82263684265524" y="488.0"/>
      <point x="387.82263684265524" y="488.0"/>
      <point x="387.82263684265524" y="488.0" type="curve"/>
      <point x="387.8226368426553" y="561.3328825911017"/>
      <point x="349.2075775807681" y="610.0"/>
      <point x="283.3926586339942" y="610.0" type="curve"/>
      <point x="283.3926586339942" y="610.0"/>
      <point x="283.3926586339942" y="610.0"/>
      <point x="283.3926586339942" y="610.0" type="curve"/>
      <point x="180.86217536194482" y="610.0" type="line" smooth="yes"/>
      <point x="176.44389736329848" y="610.0"/>
      <point x="188.86217536194482" y="622.4182779986463"/>
      <point x="188.86217536194482" y="618.0" type="curve" smooth="yes"/>
      <point x="188.86217536194482" y="62.0" type="line" smooth="yes"/>
      <point x="188.86217536194482" y="57.581722001353654"/>
      <point x="176.44389736329848" y="70.0"/>
      <point x="180.86217536194482" y="70.0" type="curve" smooth="yes"/>
      <point x="295.4134739141655" y="70.0" type="line"/>
      <point x="295.4134739141655" y="70.0"/>
      <point x="295.4134739141655" y="70.0"/>
      <point x="295.4134739141655" y="70.0" type="curve"/>
      <point x="359.36180214364055" y="70.0"/>
      <point x="401.9647724663862" y="120.98388537191613"/>
      <point x="401.9647724663862" y="202.0" type="curve"/>
      <point x="401.9647724663862" y="202.0"/>
      <point x="401.9647724663862" y="202.0"/>
      <point x="401.9647724663862" y="202.0" type="curve"/>
      <point x="401.9647724663862" y="289.2325270807652"/>
      <point x="355.69287056991436" y="341.0"/>
      <point x="281.2713382904345" y="341.0" type="curve"/>
      <point x="281.2713382904345" y="357.0" type="line"/>
      <point x="363.8218832063972" y="357.0"/>
      <point x="417.9647724663862" y="298.76087584263774"/>
      <point x="417.9647724663862" y="202.0" type="curve"/>
      <point x="417.9647724663862" y="202.0"/>
      <point x="417.9647724663862" y="202.0"/>
      <point x="417.9647724663862" y="202.0" type="curve"/>
      <point x="417.9647724663862" y="111.0496390634904"/>
      <point x="367.2031858801972" y="54.0"/>
      <point x="295.4134739141655" y="54.0" type="curve"/>
      <point x="295.4134739141655" y="54.0"/>
      <point x="295.4134739141655" y="54.0"/>
      <point x="295.4134739141655" y="54.0" type="curve"/>
      <point x="180.86217536194482" y="54.0" type="line" smooth="yes"/>
      <point x="176.44389736329848" y="54.0"/>
      <point x="172.86217536194482" y="57.581722001353654"/>
      <point x="172.86217536194482" y="62.0" type="curve" smooth="yes"/>
      <point x="172.86217536194482" y="618.0" type="line" smooth="yes"/>
      <point x="172.86217536194482" y="622.4182779986463"/>
      <point x="176.44389736329848" y="626.0"/>
      <point x="180.86217536194482" y="626.0" type="curve" smooth="yes"/>
      <point x="283.3926586339942" y="626.0" type="line"/>
      <point x="283.3926586339942" y="626.0"/>
      <point x="283.3926586339942" y="626.0"/>
      <point x="283.3926586339942" y="626.0" type="curve"/>
      <point x="357.57499953842944" y="626.0"/>
      <point x="403.8226368426553" y="570.6561056814107"/>
      <point x="403.82263684265524" y="488.0" type="curve"/>
      <point x="403.82263684265524" y="488.0"/>
      <point x="403.82263684265524" y="488.0"/>
      <point x="403.82263684265524" y="488.0" type="curve"/>
      <point x="403.82263684265513" y="396.0380576981701"/>
      <point x="350.94418199595106" y="341.0"/>
      <point x="278.4429111656884" y="341.0" type="curve"/>
    </contour>
    <contour>
      <point x="170.86835429575433" y="125.22676285005399" type="line"/>
      <point x="188.54602382541802" y="64.22676285005399" type="line" smooth="yes"/>
      <point x="189.66174884065802" y="60.37675163588154"/>
      <point x="187.75596318109913" y="56.29534241488892"/>
      <point x="184.08782065904987" y="54.67912488719661" type="curve" smooth="yes"/>
      <point x="43.37357120292691" y="-7.320875112803392" type="line"/>
      <point x="36.92228060871682" y="7.320875112803392" type="line"/>
      <point x="177.63653006483977" y="69.32087511280339" type="line" smooth="yes"/>
      <point x="181.30467258688904" y="70.9370926404957"/>
      <point x="174.29405191371163" y="55.923225935773566"/>
      <point x="173.17832689847162" y="59.77323714994601" type="curve" smooth="yes"/>
      <point x="155.50065736880794" y="120.77323714994601" type="line"/>
    </contour>
    <contour>
      <point x="43.37357120292692" y="687.3208751128034" type="line"/>
      <point x="184.08782065904987" y="625.3208751128034" type="line" smooth="yes"/>
      <point x="187.75596318109913" y="623.704657585111"/>
      <point x="189.66174884065802" y="619.6232483641185"/>
      <point x="188.54602382541802" y="615.773237149946" type="curve" smooth="yes"/>
      <point x="170.86835429575433" y="554.773237149946" type="line"/>
      <point x="155.50065736880794" y="559.226762850054" type="line"/>
      <point x="173.17832689847162" y="620.226762850054" type="line" smooth="yes"/>
      <point x="174.29405191371163" y="624.0767740642265"/>
      <point x="181.30467258688904" y="609.0629073595043"/>
      <point x="177.63653006483977" y="610.6791248871966" type="curve" smooth="yes"/>
      <point x="36.92228060871681" y="672.6791248871966" type="line"/>
    </contour>
    <contour>
      <point x="167.8837629991605" y="408.708130204701" type="line"/>
      <point x="188.38985965357037" y="351.708130204701" type="line" smooth="yes"/>
      <point x="189.00472580487883" y="349.99901065770786"/>
      <point x="189.01968177570907" y="348.1315305881415"/>
      <point x="188.43226817418446" y="346.41278241848937" type="curve" smooth="yes"/>
      <point x="167.92617151977458" y="286.41278241848937" type="line"/>
      <point x="152.7859858952953" y="291.58721758151063" type="line"/>
      <point x="173.29208254970519" y="351.58721758151063" type="line" smooth="yes"/>
      <point x="173.8794961512298" y="353.3059657511628"/>
      <point x="173.94935722162774" y="344.5827502483059"/>
      <point x="173.33449107031927" y="346.291869795299" type="curve" smooth="yes"/>
      <point x="152.8283944159094" y="403.291869795299" type="line"/>
    </contour>
    <contour>
      <point x="180.86217536194482" y="357.0" type="line"/>
      <point x="281.2713382904345" y="357.0" type="line" smooth="yes"/>
      <point x="281.5306546016626" y="357.0"/>
      <point x="280.2366756793562" y="356.9370471984552"/>
      <point x="280.49476734944847" y="356.96221938743315" type="curve" smooth="yes"/>
      <point x="321.50696065826827" y="360.96221938743315" type="line"/>
      <point x="323.0601025402404" y="345.03778061256685" type="line"/>
      <point x="282.0479092314206" y="341.03778061256685" type="line" smooth="yes"/>
      <point x="281.78981756132833" y="341.0126084235889"/>
      <point x="281.5306546016626" y="341.0"/>
      <point x="281.2713382904345" y="341.0" type="curve" smooth="yes"/>
      <point x="180.86217536194482" y="341.0" type="line"/>
    </contour>
  </outline>
</glyph>
<glyph name="C" format="2">
  <advance width="432"/>
  <unicode hex="0043"/>
  <outline>
    <contour>
      <point x="412.3909971491304" y="599.9176311296022" type="line"/>
      <point x="388.8682576169053" y="612.2736398301267"/>
      <point x="359.02378555275163" y="620.0"/>
      <point x="335.50104602052653" y="620.0" type="curve"/>
      <point x="335.50104602052653" y="620.0"/>
      <point x="335.50104602052653" y="620.0"/>
      <point x="335.50104602052653" y="620.0" type="curve"/>
      <point x="226.70368177196227" y="620.0"/>
      <point x="158.9461761308376" y="506.41036790089555"/>
      <point x="158.9461761308376" y="339.0" type="curve"/>
      <point x="158.9461761308376" y="339.0"/>
      <point x="158.9461761308376" y="339.0"/>
      <point x="158.9461761308376" y="339.0" type="curve"/>
      <point x="158.9461761308376" y="171.58963209910445"/>
      <point x="227.38794192446898" y="60.000000000000014"/>
      <point x="335.50104602052653" y="60.0" type="curve"/>
      <point x="335.50104602052653" y="60.0"/>
      <point x="335.50104602052653" y="60.0"/>
      <point x="335.50104602052653" y="60.0" type="curve"/>
      <point x="358.95556181302123" y="60.0"/>
      <point x="390.9189200658999" y="66.6951510404565"/>
      <point x="412.36304879046645" y="78.06761766879018" type="curve"/>
      <point x="419.8593893611195" y="63.93238233120982" type="line"/>
      <point x="396.0491348923857" y="51.30508803374557"/>
      <point x="361.5435118457043" y="44.0"/>
      <point x="335.50104602052653" y="44.0" type="curve"/>
      <point x="335.50104602052653" y="44.0"/>
      <point x="335.50104602052653" y="44.0"/>
      <point x="335.50104602052653" y="44.0" type="curve"/>
      <point x="220.17530096922954" y="44.000000000000014"/>
      <point x="142.9461761308376" y="160.42104263023785"/>
      <point x="142.9461761308376" y="339.0" type="curve"/>
      <point x="142.9461761308376" y="339.0"/>
      <point x="142.9461761308376" y="339.0"/>
      <point x="142.9461761308376" y="339.0" type="curve"/>
      <point x="142.9461761308376" y="517.5789573697623"/>
      <point x="219.44539119042378" y="636.0"/>
      <point x="335.50104602052653" y="636.0" type="curve"/>
      <point x="335.50104602052653" y="636.0"/>
      <point x="335.50104602052653" y="636.0"/>
      <point x="335.50104602052653" y="636.0" type="curve"/>
      <point x="361.47387543099245" y="636.0"/>
      <point x="393.85861159198964" y="627.7253591238631"/>
      <point x="419.83144100245556" y="614.0823688703978" type="curve"/>
    </contour>
    <contour>
      <point x="396.31890770772327" y="661.7290088591907" type="line"/>
      <point x="423.18896539281207" y="610.7290088591907" type="line" smooth="yes"/>
      <point x="424.0817196893295" y="609.034540255662"/>
      <point x="424.3369382359808" y="607.0760156563734"/>
      <point x="423.9082416148548" y="605.2093466205425" type="curve" smooth="yes"/>
      <point x="397.038183929766" y="488.2093466205425" type="line"/>
      <point x="381.4441388516424" y="491.7906533794575" type="line"/>
      <point x="408.3141965367312" y="608.7906533794575" type="line" smooth="yes"/>
      <point x="408.7428931578572" y="610.6573224152884"/>
      <point x="409.9262270552913" y="601.5765225372807"/>
      <point x="409.0334727587739" y="603.2709911408093" type="curve" smooth="yes"/>
      <point x="382.1634150736851" y="654.2709911408093" type="line"/>
    </contour>
    <contour>
      <point x="397.0447022289169" y="191.76203018882958" type="line"/>
      <point x="423.9147599140057" y="72.76203018882958" type="line" smooth="yes"/>
      <point x="424.34449821946225" y="70.85883895088487"/>
      <point x="424.06390389945904" y="68.86420600366102"/>
      <point x="423.12577326983455" y="67.1534392687943" type="curve" smooth="yes"/>
      <point x="396.25571558474576" y="18.15343926879431" type="line"/>
      <point x="382.2266071966626" y="25.84656073120569" type="line"/>
      <point x="409.0966648817514" y="74.8465607312057" type="line" smooth="yes"/>
      <point x="410.0347955113759" y="76.55732746607242"/>
      <point x="408.73741654303683" y="67.3347785732257"/>
      <point x="408.30767823758026" y="69.23796981117042" type="curve" smooth="yes"/>
      <point x="381.43762055249147" y="188.23796981117042" type="line"/>
    </contour>
  </outline>
</glyph>
<glyph name="D" format="2">
  <advance width="489"/>
  <unicode hex="0044"/>
  <outline>
    <contour>
      <point x="189.213943083804" y="62.0" type="line" smooth="yes"/>
      <point x="189.213943083804" y="57.581722001353654"/>
      <point x="176.79566508515765" y="70.0"/>
      <point x="181.213943083804" y="70.0" type="curve" smooth="yes"/>
      <point x="287.27996026178613" y="70.0" type="line"/>
      <point x="287.27996026178613" y="70.0"/>
      <point x="287.27996026178613" y="70.0"/>
      <point x="287.27996026178613" y="70.0" type="curve"/>
      <point x="397.50095531288935" y="70.0"/>
      <point x="471.6130047445271" y="177.3785813412409"/>
      <point x="471.6130047445271" y="341.0" type="curve"/>
      <point x="471.6130047445271" y="341.0"/>
      <point x="471.6130047445271" y="341.0"/>
      <point x="471.6130047445271" y="341.0" type="curve"/>
      <point x="471.6130047445271" y="503.6532445838552"/>
      <point x="397.50095531288935" y="610.0"/>
      <point x="287.27996026178613" y="610.0" type="curve"/>
      <point x="287.27996026178613" y="610.0"/>
      <point x="287.27996026178613" y="610.0"/>
      <point x="287.27996026178613" y="610.0" type="curve"/>
      <point x="181.213943083804" y="610.0" type="line" smooth="yes"/>
      <point x="176.79566508515765" y="610.0"/>
      <point x="189.213943083804" y="622.4182779986463"/>
      <point x="189.213943083804" y="618.0" type="curve" smooth="yes"/>
    </contour>
    <contour>
      <point x="171.2387887230702" y="127.16130980481849" type="line"/>
      <point x="188.91645825273392" y="64.16130980481849" type="line" smooth="yes"/>
      <point x="189.99239847033093" y="60.32685449978704"/>
      <point x="188.08405616813207" y="56.28491110771924"/>
      <point x="184.43958838090904" y="54.67912488719661" type="curve" smooth="yes"/>
      <point x="43.72533892478606" y="-7.320875112803392" type="line"/>
      <point x="37.274048330575965" y="7.320875112803392" type="line"/>
      <point x="177.98829778669895" y="69.32087511280339" type="line" smooth="yes"/>
      <point x="181.63276557392197" y="70.92666133332602"/>
      <point x="174.58736813247108" y="56.004234890150066"/>
      <point x="173.51142791487408" y="59.83869019518151" type="curve" smooth="yes"/>
      <point x="155.83375838521036" y="122.83869019518151" type="line"/>
    </contour>
    <contour>
      <point x="43.725338924786065" y="687.3208751128034" type="line"/>
      <point x="184.43958838090904" y="625.3208751128034" type="line" smooth="yes"/>
      <point x="188.08405616813218" y="623.7150888922807"/>
      <point x="189.99239847033095" y="619.6731455002131"/>
      <point x="188.91645825273392" y="615.8386901951815" type="curve" smooth="yes"/>
      <point x="171.2387887230702" y="552.8386901951815" type="line"/>
      <point x="155.83375838521036" y="557.1613098048185" type="line"/>
      <point x="173.51142791487408" y="620.1613098048185" type="line" smooth="yes"/>
      <point x="174.5873681324711" y="623.9957651098501"/>
      <point x="181.6327655739221" y="609.073338666674"/>
      <point x="177.98829778669895" y="610.6791248871966" type="curve" smooth="yes"/>
      <point x="37.27404833057596" y="672.6791248871966" type="line"/>
    </contour>
    <contour>
      <point x="173.213943083804" y="62.0" type="curve" smooth="yes"/>
      <point x="173.213943083804" y="618.0" type="line" smooth="yes"/>
      <point x="173.213943083804" y="622.4182779986463"/>
      <point x="176.79566508515765" y="626.0"/>
      <point x="181.213943083804" y="626.0" type="curve" smooth="yes"/>
      <point x="287.27996026178613" y="626.0" type="line"/>
      <point x="287.27996026178613" y="626.0"/>
      <point x="287.27996026178613" y="626.0"/>
      <point x="287.27996026178613" y="626.0" type="curve"/>
      <point x="404.6780072529972" y="626.0"/>
      <point x="487.6130047445271" y="514.2444280880883"/>
      <point x="487.6130047445271" y="341.0" type="curve"/>
      <point x="487.6130047445271" y="341.0"/>
      <point x="487.6130047445271" y="341.0"/>
      <point x="487.6130047445271" y="341.0" type="curve"/>
      <point x="487.6130047445271" y="166.72435507805395"/>
      <point x="404.6780072529972" y="54.0"/>
      <point x="287.27996026178613" y="54.0" type="curve"/>
      <point x="287.27996026178613" y="54.0"/>
      <point x="287.27996026178613" y="54.0"/>
      <point x="287.27996026178613" y="54.0" type="curve"/>
      <point x="181.213943083804" y="54.0" type="line" smooth="yes"/>
      <point x="176.79566508515765" y="54.0"/>
      <point x="173.213943083804" y="57.581722001353654"/>
    </contour>
  </outline>
</glyph>
<glyph name="E" format="2">
  <advance width="389"/>
  <unicode hex="0045"/>
  <outline>
    <contour>
      <point x="363.0592562057056" y="603.0393819463739" type="line"/>
      <point x="313.25001710926335" y="608.000008809872"/>
      <point x="230.1523448967018" y="611.9909635638668"/>
      <point x="181.7461829579058" y="610.0067128184676" type="curve" smooth="yes"/>
      <point x="177.45896348853486" y="609.8309724150341"/>
      <point x="189.41852454804882" y="622.2908199062595"/>
      <point x="189.41852454804882" y="618.0" type="curve" smooth="yes"/>
      <point x="189.41852454804882" y="62.0" type="line" smooth="yes"/>
      <point x="189.41852454804882" y="57.70560806108626"/>
      <point x="177.4459795616094" y="70.16459971191009"/>
      <point x="181.73696797952962" y="69.99365959876619" type="curve" smooth="yes"/>
      <point x="231.49641028918515" y="68.01139260804968"/>
      <point x="311.72908574438696" y="70.99667231393035"/>
      <point x="361.48852805404255" y="76.94347328607992" type="curve"/>
      <point x="363.3871930095675" y="61.05652671392008" type="line"/>
      <point x="312.74513966282217" y="55.00424400946467"/>
      <point x="231.74213446331345" y="51.988912833082004"/>
      <point x="181.10008111656802" y="54.006340401233814" type="curve" smooth="yes"/>
      <point x="176.8090926986478" y="54.17728051437772"/>
      <point x="173.41852454804882" y="57.70560806108626"/>
      <point x="173.41852454804882" y="62.0" type="curve" smooth="yes"/>
      <point x="173.41852454804882" y="618.0" type="line" smooth="yes"/>
      <point x="173.41852454804882" y="622.2908199062595"/>
      <point x="176.8036466688209" y="625.817546778099"/>
      <point x="181.09086613819184" y="625.9932871815324" type="curve" smooth="yes"/>
      <point x="230.25720414135665" y="628.0086988341789"/>
      <point x="314.0534427330173" y="623.9991471852419"/>
      <point x="364.6448919826507" y="618.9606180536261" type="curve"/>
    </contour>
    <contour>
      <point x="344.76019100214137" y="342.0" type="line"/>
      <point x="181.41852454804882" y="342.0" type="line"/>
      <point x="181.41852454804882" y="358.0" type="line"/>
      <point x="344.76019100214137" y="358.0" type="line"/>
    </contour>
    <contour>
      <point x="171.4433701873151" y="127.16130980481849" type="line"/>
      <point x="189.12103971697874" y="64.16130980481849" type="line" smooth="yes"/>
      <point x="190.19697993457575" y="60.32685449978704"/>
      <point x="188.28863763237686" y="56.28491110771924"/>
      <point x="184.64416984515387" y="54.67912488719661" type="curve" smooth="yes"/>
      <point x="43.92992038903094" y="-7.320875112803392" type="line"/>
      <point x="37.47862979482085" y="7.320875112803392" type="line"/>
      <point x="178.19287925094378" y="69.32087511280339" type="line" smooth="yes"/>
      <point x="181.83734703816677" y="70.92666133332602"/>
      <point x="174.7919495967159" y="56.004234890150066"/>
      <point x="173.7160093791189" y="59.83869019518151" type="curve" smooth="yes"/>
      <point x="156.03833984945527" y="122.83869019518151" type="line"/>
    </contour>
    <contour>
      <point x="43.92992038903095" y="687.3208751128034" type="line"/>
      <point x="184.64416984515387" y="625.3208751128034" type="line" smooth="yes"/>
      <point x="188.28863763237698" y="623.7150888922807"/>
      <point x="190.19697993457578" y="619.6731455002131"/>
      <point x="189.12103971697874" y="615.8386901951815" type="curve" smooth="yes"/>
      <point x="171.4433701873151" y="552.8386901951815" type="line"/>
      <point x="156.03833984945527" y="557.1613098048185" type="line"/>
      <point x="173.7160093791189" y="620.1613098048185" type="line" smooth="yes"/>
      <point x="174.79194959671594" y="623.9957651098501"/>
      <point x="181.83734703816688" y="609.073338666674"/>
      <point x="178.19287925094378" y="610.6791248871966" type="curve" smooth="yes"/>
      <point x="37.47862979482084" y="672.6791248871966" type="line"/>
    </contour>
    <contour>
      <point x="344.4367127012475" y="682.9030162231174" type="line"/>
      <point x="371.30677038633627" y="613.9030162231174" type="line" smooth="yes"/>
      <point x="371.96214943289647" y="612.2200591285464"/>
      <point x="372.02877632934775" y="610.3648568395952"/>
      <point x="371.49581190869714" y="608.6392221148757" type="curve" smooth="yes"/>
      <point x="344.62575422360834" y="521.6392221148757" type="line"/>
      <point x="329.33827859457034" y="526.3607778851243" type="line"/>
      <point x="356.20833627965914" y="613.3607778851243" type="line" smooth="yes"/>
      <point x="356.74130070030975" y="615.0864126098438"/>
      <point x="357.0527568485802" y="606.4140266823115"/>
      <point x="356.39737780202" y="608.0969837768826" type="curve" smooth="yes"/>
      <point x="329.5273201169312" y="677.0969837768826" type="line"/>
    </contour>
    <contour>
      <point x="357.6419450018785" y="167.04080372084783" type="line"/>
      <point x="370.36986706323637" y="70.04080372084783" type="line" smooth="yes"/>
      <point x="370.54488628513906" y="68.70697527322558"/>
      <point x="370.3807215281852" y="67.35054880402456"/>
      <point x="369.8925568239632" y="66.09698377688251" type="curve" smooth="yes"/>
      <point x="343.0224991388744" y="-2.903016223117496" type="line"/>
      <point x="328.11310655455804" y="2.903016223117496" type="line"/>
      <point x="354.98316423964684" y="71.90301622311749" type="line" smooth="yes"/>
      <point x="355.4713289438688" y="73.15658125025953"/>
      <point x="354.6808732222764" y="66.62536783152991"/>
      <point x="354.5058540003737" y="67.95919627915217" type="curve" smooth="yes"/>
      <point x="341.77793193901584" y="164.95919627915217" type="line"/>
    </contour>
    <contour>
      <point x="325.4923864006689" y="434.4911338889441" type="line"/>
      <point x="352.3624440857577" y="352.4911338889441" type="line" smooth="yes"/>
      <point x="352.8958809050065" y="350.8632319435503"/>
      <point x="352.8926769718562" y="349.1070881698964"/>
      <point x="352.35330378949385" y="347.4811434740056" type="curve" smooth="yes"/>
      <point x="325.48324610440505" y="266.4811434740056" type="line"/>
      <point x="310.2970205297001" y="271.5188565259944" type="line"/>
      <point x="337.1670782147889" y="352.5188565259944" type="line" smooth="yes"/>
      <point x="337.7064513971512" y="354.1448012218852"/>
      <point x="337.6913747377738" y="345.88096416566214"/>
      <point x="337.157937918525" y="347.5088661110559" type="curve" smooth="yes"/>
      <point x="310.2878802334362" y="429.5088661110559" type="line"/>
    </contour>
    <contour>
      <point x="168.48252070587864" y="412.58721758151063" type="line"/>
      <point x="188.98861736028846" y="352.58721758151063" type="line" smooth="yes"/>
      <point x="189.56182694396892" y="350.9100297870489"/>
      <point x="189.56182694396892" y="349.0899702129511"/>
      <point x="188.98861736028846" y="347.41278241848937" type="curve" smooth="yes"/>
      <point x="168.48252070587864" y="287.41278241848937" type="line"/>
      <point x="153.34233508139937" y="292.58721758151063" type="line"/>
      <point x="173.84843173580919" y="352.58721758151063" type="line" smooth="yes"/>
      <point x="174.42164131948965" y="354.26440537597233"/>
      <point x="174.42164131948965" y="345.73559462402767"/>
      <point x="173.84843173580919" y="347.41278241848937" type="curve" smooth="yes"/>
      <point x="153.34233508139937" y="407.41278241848937" type="line"/>
    </contour>
  </outline>
</glyph>
<glyph name="F" format="2">
  <advance width="369"/>
  <unicode hex="0046"/>
  <outline>
    <contour>
      <point x="344.659685938753" y="322.0" type="line"/>
      <point x="181.3180194846605" y="322.0" type="line"/>
      <point x="181.3180194846605" y="338.0" type="line"/>
      <point x="344.659685938753" y="338.0" type="line"/>
    </contour>
    <contour>
      <point x="43.829415325642636" y="687.3208751128034" type="line"/>
      <point x="184.54366478176556" y="625.3208751128034" type="line" smooth="yes"/>
      <point x="188.18813256898866" y="623.7150888922807"/>
      <point x="190.09647487118747" y="619.6731455002131"/>
      <point x="189.02053465359043" y="615.8386901951815" type="curve" smooth="yes"/>
      <point x="171.34286512392677" y="552.8386901951815" type="line"/>
      <point x="155.93783478606693" y="557.1613098048185" type="line"/>
      <point x="173.6155043157306" y="620.1613098048185" type="line" smooth="yes"/>
      <point x="174.69144453332763" y="623.9957651098501"/>
      <point x="181.73684197477857" y="609.073338666674"/>
      <point x="178.09237418755546" y="610.6791248871966" type="curve" smooth="yes"/>
      <point x="37.37812473143253" y="672.6791248871966" type="line"/>
    </contour>
    <contour>
      <point x="344.33620763785916" y="682.9030162231174" type="line"/>
      <point x="371.20626532294796" y="613.9030162231174" type="line" smooth="yes"/>
      <point x="371.86164436950816" y="612.2200591285464"/>
      <point x="371.92827126595944" y="610.3648568395952"/>
      <point x="371.3953068453088" y="608.6392221148757" type="curve" smooth="yes"/>
      <point x="344.52524916022" y="521.6392221148757" type="line"/>
      <point x="329.23777353118203" y="526.3607778851243" type="line"/>
      <point x="356.1078312162708" y="613.3607778851243" type="line" smooth="yes"/>
      <point x="356.64079563692144" y="615.0864126098438"/>
      <point x="356.9522517851919" y="606.4140266823115"/>
      <point x="356.2968727386317" y="608.0969837768826" type="curve" smooth="yes"/>
      <point x="329.4268150535429" y="677.0969837768826" type="line"/>
    </contour>
    <contour>
      <point x="325.39188133728055" y="414.4911338889441" type="line"/>
      <point x="352.26193902236935" y="332.4911338889441" type="line" smooth="yes"/>
      <point x="352.7953758416181" y="330.8632319435503"/>
      <point x="352.7921719084678" y="329.1070881698964"/>
      <point x="352.2527987261055" y="327.4811434740056" type="curve" smooth="yes"/>
      <point x="325.3827410410167" y="246.4811434740056" type="line"/>
      <point x="310.1965154663117" y="251.5188565259944" type="line"/>
      <point x="337.0665731514005" y="332.5188565259944" type="line" smooth="yes"/>
      <point x="337.60594633376286" y="334.1448012218852"/>
      <point x="337.59086967438543" y="325.88096416566214"/>
      <point x="337.05743285513665" y="327.5088661110559" type="curve" smooth="yes"/>
      <point x="310.18737517004786" y="409.5088661110559" type="line"/>
    </contour>
    <contour>
      <point x="168.3820156424903" y="392.58721758151063" type="line"/>
      <point x="188.88811229690015" y="332.58721758151063" type="line" smooth="yes"/>
      <point x="189.4613218805806" y="330.9100297870489"/>
      <point x="189.4613218805806" y="329.0899702129511"/>
      <point x="188.88811229690015" y="327.41278241848937" type="curve" smooth="yes"/>
      <point x="168.3820156424903" y="267.41278241848937" type="line"/>
      <point x="153.24183001801103" y="272.58721758151063" type="line"/>
      <point x="173.74792667242087" y="332.58721758151063" type="line" smooth="yes"/>
      <point x="174.32113625610134" y="334.26440537597233"/>
      <point x="174.32113625610134" y="325.73559462402767"/>
      <point x="173.74792667242087" y="327.41278241848937" type="curve" smooth="yes"/>
      <point x="153.24183001801103" y="387.41278241848937" type="line"/>
    </contour>
    <contour>
      <point x="362.9587511423173" y="603.0393819463739" type="line"/>
      <point x="313.149512045875" y="608.000008809872"/>
      <point x="230.05183983331344" y="611.9909635638668"/>
      <point x="181.6456778945175" y="610.0067128184676" type="curve" smooth="yes"/>
      <point x="177.35845842514655" y="609.8309724150341"/>
      <point x="189.3180194846605" y="622.2908199062595"/>
      <point x="189.3180194846605" y="618.0" type="curve" smooth="yes"/>
      <point x="189.3180194846605" y="62.0" type="line"/>
      <point x="173.3180194846605" y="62.0" type="line"/>
      <point x="173.3180194846605" y="618.0" type="line" smooth="yes"/>
      <point x="173.3180194846605" y="622.2908199062595"/>
      <point x="176.7031416054326" y="625.817546778099"/>
      <point x="180.99036107480353" y="625.9932871815324" type="curve" smooth="yes"/>
      <point x="230.15669907796828" y="628.0086988341789"/>
      <point x="313.9529376696289" y="623.9991471852419"/>
      <point x="364.54438691926237" y="618.9606180536261" type="curve"/>
    </contour>
    <contour>
      <point x="171.90588627598274" y="0.18243171668668057" type="line"/>
      <point x="173.32009983835582" y="62.18243171668668" type="line" smooth="yes"/>
      <point x="173.4536650958263" y="68.03801547256109"/>
      <point x="189.90355826470687" y="57.04074353795011"/>
      <point x="184.54366478176556" y="54.67912488719661" type="curve" smooth="yes"/>
      <point x="43.82941532564263" y="-7.320875112803392" type="line"/>
      <point x="37.378124731432536" y="7.320875112803392" type="line"/>
      <point x="178.09237418755546" y="69.32087511280339" type="line" smooth="yes"/>
      <point x="183.45226767049678" y="71.68249376355689"/>
      <point x="189.44950438843568" y="67.67315203918773"/>
      <point x="189.3159391309652" y="61.81756828331332" type="curve" smooth="yes"/>
      <point x="187.90172556859213" y="-0.18243171668668057" type="line"/>
    </contour>
  </outline>
</glyph>
<glyph name="G" format="2">
  <advance width="474"/>
  <unicode hex="0047"/>
  <outline>
    <contour>
      <point x="425.8618209751949" y="655.617509888951" type="line"/>
      <point x="452.7318786602837" y="602.617509888951" type="line" smooth="yes"/>
      <point x="453.58313671162847" y="600.9384410439924"/>
      <point x="453.8150005900543" y="599.0129577982244"/>
      <point x="453.3866792713865" y="597.1798038755916" type="curve" smooth="yes"/>
      <point x="426.51662158629773" y="482.1798038755916" type="line"/>
      <point x="410.9362639435877" y="485.8201961244084" type="line"/>
      <point x="437.80632162867647" y="600.8201961244084" type="line" smooth="yes"/>
      <point x="438.23464294734424" y="602.6533500470413"/>
      <point x="439.31238029112404" y="593.7034212660905"/>
      <point x="438.4611222397793" y="595.382490111049" type="curve" smooth="yes"/>
      <point x="411.5910645546905" y="648.382490111049" type="line"/>
    </contour>
    <contour>
      <point x="315.9552521519518" y="357.29000122816365" type="line"/>
      <point x="453.13396770214206" y="295.29000122816365" type="line" smooth="yes"/>
      <point x="459.01266047918165" y="292.6330369118364"/>
      <point x="443.12719222765395" y="280.21744065352806"/>
      <point x="441.96909901905616" y="286.56388125163136" type="curve" smooth="yes"/>
      <point x="430.6553905200714" y="348.56388125163136" type="line"/>
      <point x="446.39547475626074" y="351.43611874836864" type="line"/>
      <point x="457.7091832552455" y="289.43611874836864" type="line" smooth="yes"/>
      <point x="458.86727646384327" y="283.08967815026534"/>
      <point x="452.42300734919917" y="278.05303445550913"/>
      <point x="446.5443145721596" y="280.70999877183635" type="curve" smooth="yes"/>
      <point x="309.36559902196933" y="342.70999877183635" type="line"/>
    </contour>
    <contour>
      <point x="441.4951275633167" y="592.1313217833326" type="line"/>
      <point x="411.0090436913321" y="610.3349402773922"/>
      <point x="374.2592078311533" y="620.0"/>
      <point x="343.77312395916863" y="620.0" type="curve"/>
      <point x="343.77312395916863" y="620.0"/>
      <point x="343.77312395916863" y="620.0"/>
      <point x="343.77312395916863" y="620.0" type="curve"/>
      <point x="230.07226621052334" y="620.0"/>
      <point x="158.73297269524124" y="505.5779039103299"/>
      <point x="158.7329726952412" y="338.0" type="curve"/>
      <point x="158.7329726952412" y="338.0"/>
      <point x="158.7329726952412" y="338.0"/>
      <point x="158.7329726952412" y="338.0" type="curve"/>
      <point x="158.73297269524113" y="175.4280820384367"/>
      <point x="227.31181826095167" y="58.000000000000014"/>
      <point x="339.53048327204937" y="58.0" type="curve"/>
      <point x="339.53048327204937" y="58.0"/>
      <point x="339.53048327204937" y="58.0"/>
      <point x="339.53048327204937" y="58.0" type="curve"/>
      <point x="376.29670042166276" y="57.99999999999999"/>
      <point x="413.020547480187" y="69.63626934175136"/>
      <point x="448.42505288351845" y="91.78240836755066" type="curve" smooth="yes"/>
      <point x="450.7790677763415" y="93.25488596584964"/>
      <point x="444.68663120590185" y="82.16906020880567"/>
      <point x="444.66775316672886" y="84.94560842786507" type="curve" smooth="yes"/>
      <point x="443.96165794701164" y="188.7968297771275"/>
      <point x="443.25658609275104" y="248.76588744297638"/>
      <point x="441.84439565331706" y="287.7100954489498" type="curve"/>
      <point x="457.8338866209846" y="288.2899045510502" type="line"/>
      <point x="459.2497474578928" y="249.2444773902737"/>
      <point x="459.9594529386109" y="189.17553066753896"/>
      <point x="460.6673833570652" y="85.05439157213493" type="curve" smooth="yes"/>
      <point x="460.6862613962382" y="82.27784335307554"/>
      <point x="459.26409853309866" y="79.69006923074832"/>
      <point x="456.9100836402756" y="78.21759163244934" type="curve" smooth="yes"/>
      <point x="418.78310843652537" y="54.36850000198126"/>
      <point x="379.12388059902065" y="41.99999999999999"/>
      <point x="339.53048327204937" y="42.0" type="curve"/>
      <point x="339.53048327204937" y="42.0"/>
      <point x="339.53048327204937" y="42.0"/>
      <point x="339.53048327204937" y="42.0" type="curve"/>
      <point x="219.88510223843514" y="42.000000000000014"/>
      <point x="142.73297269524113" y="164.66894969786762"/>
      <point x="142.7329726952412" y="338.0" type="curve"/>
      <point x="142.7329726952412" y="338.0"/>
      <point x="142.7329726952412" y="338.0"/>
      <point x="142.7329726952412" y="338.0" type="curve"/>
      <point x="142.73297269524124" y="516.3113565790873"/>
      <point x="222.78966661615667" y="636.0"/>
      <point x="343.77312395916863" y="636.0" type="curve"/>
      <point x="343.77312395916863" y="636.0"/>
      <point x="343.77312395916863" y="636.0"/>
      <point x="343.77312395916863" y="636.0" type="curve"/>
      <point x="376.9334232279888" y="636.0"/>
      <point x="416.5375740679262" y="625.6691038657343"/>
      <point x="449.6978733367463" y="605.8686782166674" type="curve"/>
    </contour>
    <contour>
      <point x="335.8191492278235" y="134.5474214186529" type="line"/>
      <point x="455.3201952483501" y="92.54742141865292" type="line" smooth="yes"/>
      <point x="459.8707953606968" y="90.94806132028415"/>
      <point x="461.9817521995054" y="85.71546606009048"/>
      <point x="459.8148724690814" y="81.40611038428217" type="curve" smooth="yes"/>
      <point x="437.18745547111195" y="36.406110384282165" type="line"/>
      <point x="422.89284705674316" y="43.593889615717835" type="line"/>
      <point x="445.52026405471264" y="88.59388961571783" type="line" smooth="yes"/>
      <point x="447.68714378513664" y="92.90324529152613"/>
      <point x="454.56554138779063" y="75.85321848297832"/>
      <point x="450.01494127544396" y="77.45257858134708" type="curve" smooth="yes"/>
      <point x="330.5138952549174" y="119.45257858134708" type="line"/>
    </contour>
  </outline>
</glyph>
